<svg width="215" height="238" viewBox="0 0 215 238" fill="none" xmlns="http://www.w3.org/2000/svg">
<path d="M188.5 106.01C198.5 111.783 198.5 126.217 188.5 131.991L41.5 216.861C31.5 222.635 19 215.418 19 203.871L19 34.1298C19 22.5828 31.5 15.3659 41.5 21.1394L188.5 106.01Z" fill="#FFF8EC"/>
<path d="M198.527 89.8646C220.491 103.046 220.491 134.952 198.527 148.134L198 148.445L50.9998 233.315C28.3331 246.401 -0.00016264 230.043 -0.000161496 203.869L-0.000154076 34.1292C-0.000152932 7.95598 28.3332 -8.40266 50.9998 4.68389L198 89.554L198.527 89.8646ZM188.5 131.99C198.5 126.216 198.5 111.783 188.5 106.009L41.4998 21.138C31.656 15.4548 19.3893 22.3597 19.0086 33.5911L18.9998 34.1292L18.9998 203.869C18.9998 215.236 31.1121 222.407 41.0291 217.121L41.4998 216.861L188.5 131.99Z" fill="black"/>
</svg>
