<svg width="494" height="319" viewBox="0 0 494 319" fill="none" xmlns="http://www.w3.org/2000/svg">
<g clip-path="url(#clip0_202_994)">
<path d="M330.1 225.499C330.1 225.499 181.5 326.199 73.8001 315.099C-33.8999 303.999 14.4001 220.199 14.4001 220.199C14.4001 220.199 131.9 236.899 279.7 139.399" fill="#FFa956"/>
<path d="M330.1 225.499C330.1 225.499 181.5 326.199 73.8001 315.099C-33.8999 303.999 14.4001 220.199 14.4001 220.199C14.4001 220.199 131.9 236.899 279.7 139.399" stroke="#201F25" stroke-width="6" stroke-linecap="round" stroke-linejoin="round"/>
<path d="M397.3 114.7C397.3 114.7 409.8 126.7 435.9 110.2C462 93.6998 458.1 80.1998 478.5 86.8998C498.9 93.5998 490.2 123.4 472.1 148.4C438 195.6 383.3 193.3 383.3 193.3L344.3 229.6C344.3 229.6 311 222.6 292.4 186.8C273.9 151 281.3 128 281.3 128L319.7 107.4C319.7 107.4 342.7 17.9998 409.3 3.7998V119.1" fill="white"/>
<path d="M397.3 114.7C397.3 114.7 409.8 126.7 435.9 110.2C462 93.6998 458.1 80.1998 478.5 86.8998C498.9 93.5998 490.2 123.4 472.1 148.4C438 195.6 383.3 193.3 383.3 193.3L344.3 229.6C344.3 229.6 311 222.6 292.4 186.8C273.9 151 281.3 128 281.3 128L319.7 107.4C319.7 107.4 342.7 17.9998 409.3 3.7998V119.1" stroke="#201F25" stroke-width="6" stroke-linecap="round" stroke-linejoin="round"/>
</g>
<defs>
<clipPath id="clip0_202_994">
<rect width="494" height="319" fill="white"/>
</clipPath>
</defs>
</svg>
