<?xml version="1.0" encoding="UTF-8"?>
<svg xmlns="http://www.w3.org/2000/svg" version="1.1" viewBox="0 0 240.5 142">
  <defs>
    <style>
      .cls-1 {
        fill: #1450e7;
      }
    </style>
  </defs>
  <!-- Generator: Adobe Illustrator 28.7.0, SVG Export Plug-In . SVG Version: 1.2.0 Build 136)  -->
  <g>
    <g id="Calque_1">
      <path class="cls-1" d="M230.3,10.5l3.3-2.4c.7-.5,1.7-.4,2.3.2l.8.8c.7.7.7,1.4-.2,2l-5.9,3.9c-.8.5-1.1,1.1-1,1.8l.2,1.4c.2,1.2.7,1.4,1.5.7l5.8-5.3c.8-.7,1.5-.7,2.2,0l.6.6c.7.7.7,1.4,0,2.1-1.2,1.3-2.9,2.9-5.3,4.7-2,1.6-3.8,1.8-5.4.8-3-2-3.2-6.4-3-10.1,0-.4-.1-.5-.5-.5-.9,0-1.7.5-2.5,1.5-3.3,4.4-5.1,8.8-5.5,13.2-.1,1.3-.8,1.7-1.9,1,0,0-.2,0-.3-.2-1.3-.7-1.8-1.7-1.6-3.2l2.1-16.2c0-.4.3-.6.7-.5,2,.3,3,1.3,2.8,3.2,0,.5,0,.5.4.2,1.6-1.9,3.3-2.2,5.4-1.1.2.1.4.3.6.6,0,.1.2.2.3.2.3,0,.4,0,.4-.3l.7-5.4c0-.4.3-.5.6-.5,2.2.3,4.4-.2,6.4-1.6,1.1-.8,1.9-1.3,2.2-1.5.5-.3,1.3-.3,1.7.2l1,1c.5.4.4,1.2,0,1.6,0,0,0,0,0,0-2.5,2-5.2,3.2-7.9,3.6-.3,0-.6.2-.7.5-.4.8-.6,1.8-.6,2.8,0,.4.1.5.4.2Z"/>
      <path class="cls-1" d="M194.2,14.6c0-.8-.2-.9-.6-.2-.9,1.2-1.6,2.6-2.1,4.3-1.2,3.9-1.8,8.1-1.8,12.6,0,1,.4,1.2,1.2.6,1.1-.7,2-1.7,2.9-2.9,1.9-2.7,3.4-4.7,4.2-6,.6-.9,1.3-1.1,2.3-.5l.7.4c1,.6,1.2,1.4.6,2.4-1.7,2.8-3.9,5.7-6.5,8.5-4.1,4.3-9.1,0-8.9-5.1,0-3.7.4-6.9,1.1-9.5.7-3,2.7-9.6,6.4-8.3,2.5.9,4,2.7,4.5,5.4.1.7-.3,1.3-1,1.4-.2,0-.4,0-.5,0-1.6-.5-2.4-1.5-2.3-3Z"/>
      <path class="cls-1" d="M206.6,28.5c-2-.2-3.3-1-3.8-2.4-1.4-3.5-.9-7.3,1.5-11.3,1.3-2.2,2.5-3.2,3.7-3.1,1.2.1,2.3,1.3,3.2,3.7,1.7,4.3,1.6,8.1-.4,11.3-.8,1.3-2.2,1.9-4.2,1.7ZM205.8,25.3c1,.3,2.5-1.7,3.3-4.5.8-2.8.6-5.2-.4-5.5h0c-1-.3-2.5,1.7-3.3,4.5-.8,2.8-.6,5.2.4,5.5h0Z"/>
      <path class="cls-1" d="M160.1,28.6l3.6-2.6c.7-.5,1.8-.4,2.3.3,0,0,0,.1.1.2l.7,1.3c.4.6.2,1.2-.4,1.5l-6.3,3.6c-.5.3-.8.7-.7,1.3l.2,2.1c0,.6.4.8.9.6,2.3-1,3.9-2.9,6.8-5.8.3-.3.6-.3.9-.1l1.3.8c.2.1.3,0,.3-.2l1-12.3c.1-1.3.7-1.6,1.8-1l1.2.7c1.1.6,1.3,1.5.8,2.6-.6,1.4-.8,2.3-.5,2.9,0,0,.1,0,.2,0,0,0,0,0,0,0l3.5-6c.6-1.1,2-1.6,3.2-1.2,1.6.5,2.3,1.7,2.2,3.4-.2,3.4-.3,6.7-.2,9.9,0,1.5.7,1.8,1.2,2.9.2.3,0,.7-.3.8,0,0-.1,0-.2,0-1,.2-1.9,0-2.8-.8-1.7-1.5-1.4-3.3-1.5-5.5,0-1.3,0-2.6.1-4,0-1.5-.2-1.6-.8-.2-1.3,2.7-2.8,6.7-4.4,11.9-.3.8-1.1,1.3-1.9,1,0,0-.1,0-.2,0-.8-.4-1.5-1.1-2.1-2.2-.2-.4-.4-.4-.7,0-1.9,2.2-4,4-6.4,5.4-3.2,2-6.3-1-6.8-4.1-.5-2.6-.6-4.9-.4-6.9.1-1.1.6-3.4,1.2-6.8,0-.3.3-.5.6-.4,3.2.4,5.7-1.1,8.2-3,.6-.5,1.3-.5,1.9,0,.5.4.9.9,1.2,1.4.3.5.2,1-.3,1.4-2.4,2-5.1,3.2-8.2,3.6-.3,0-.6.3-.7.7l-.4,2.8c0,.3,0,.3.3.2Z"/>
      <path class="cls-1" d="M138.2,30.3l-2.6,3.3c-.5.6-.3,1.6.4,2.1.1,0,.2.1.4.2.5.2,2.5,1,6,2.4.6.2,1.3.8,1.9,1.7,1.4,1.7.9,3.9-.5,5.4-.7.7-1.7,1.1-2.9,1.1-3.8.2-7.2-.9-10.3-3.3-.2-.2-.3-.4-.3-.7v-.5c0-.4.4-.7.8-.7.1,0,.2,0,.3.1,2.5,1.5,6.9,3.1,9.4,1.3.7-.5.9-1.5.4-2.3-.2-.2-.4-.4-.7-.6-1.3-.6-3.1-1.2-5.4-1.9-1.3-.4-2.4-1.2-3.2-2.2-.2-.3-.3-.6-.2-1,.6-3.7,2.6-6.3,6.1-7.7,1.5-.7,3-.4,4.5.8.3.2.4.5.3.8l-.3,3.3c0,.3-.2.5-.5.5-1.3,0-2.2-.7-2.9-2-.2-.4-.4-.4-.7-.1Z"/>
      <path class="cls-1" d="M125.5,44.2c-.3.4-.9,1.6-1.8,3.6-.5,1.1-1.4,2.1-2.7,2.8-.3.2-.6.2-.9.1-2.6-.7-4-2.7-4-5.5.1-4,1.4-7.5,3.7-10.5.8-1,2.2-1.1,3.2-.4,0,0,.1.1.2.2l1.2,1.2c.2.2.4.2.6,0l1.5-2.6c.4-.7,1.4-1,2.1-.6,0,0,0,0,0,0,1.5,1,2.1,1.6,1.8,3.6-.3,2.2-.7,4.6-1,7.4-.2,1.6,0,2.4.6,3.8.1.4,0,.8-.4.9-.1,0-.3,0-.4,0-1.9-.4-3-1.8-3.2-4.2,0-.4-.2-.5-.5-.1ZM120.1,46.3l3.7-8c0,0,0-.1,0-.2h0c-.7-.3-2.1,1.2-3.1,3.4v.2c-1.1,2.2-1.4,4.3-.7,4.6h0c0,0,.2,0,.2,0,0,0,0,0,0,0Z"/>
      <path class="cls-1" d="M105.4,39.7c.7-.8,1.4-1.9,2.2-3.3,2.2-3.5,5.5-1,6.1,1.9.9,4.8.6,9.2-.9,13.2-1.8,4.6-4.9,5.9-9.4,3.6-.4-.2-.5,0-.6.3l-.7,8.8c0,.5-.5.8-.9.8-.1,0-.3,0-.4-.1l-.9-.5c-.9-.5-1.3-1.3-1.1-2.3l3.3-25.4c0-.1.1-.2.3-.2,2,0,2.9,1.1,2.7,3,0,.5,0,.6.4.2ZM104.5,52.1c-.2.6,0,1,.7,1h.8c.9.1,1.7-.3,2.2-1,2.3-3.5,3.3-7.7,2.8-12.8,0-.2-.2-.3-.3-.3,0,0-.1,0-.2,0-1.7,1.6-3.7,5.9-6,12.9Z"/>
      <path class="cls-1" d="M82.2,44.3l-2.6,3.3c-.5.6-.3,1.6.4,2.1.1,0,.2.1.4.2.5.2,2.5,1,6,2.4.6.3,1.3.8,1.9,1.7,1.4,1.7.9,4-.6,5.4-.7.7-1.7,1.1-2.9,1.1-3.8.2-7.2-.9-10.3-3.4-.2-.2-.3-.4-.3-.7v-.5c0-.4.4-.7.8-.7.1,0,.2,0,.3.1,2.5,1.5,6.9,3.1,9.4,1.3.7-.5.9-1.5.4-2.3-.2-.2-.4-.4-.7-.6-1.3-.6-3.1-1.2-5.4-1.9-1.3-.4-2.4-1.2-3.2-2.2-.2-.3-.3-.6-.2-1,.6-3.7,2.6-6.2,6.2-7.7,1.5-.7,3-.4,4.5.8.3.2.4.5.4.8l-.3,3.3c0,.3-.2.5-.5.5-1.3,0-2.2-.7-2.9-2-.2-.4-.4-.4-.7-.1Z"/>
      <path class="cls-1" d="M41.3,49.7l-2.6.9c-1.1.4-2.1.2-2.9-.7l-.4-.4c-.8-.8-.7-1.4.4-1.8l6.5-2.3c.4-.2.7-.5.7-1v-1.5c.2-.7.8-1.2,1.5-1.2.2,0,.4,0,.5.2l2.2,1.3c.2.1.5.1.7,0l5.3-1.9c1.2-.4,2.5-.1,3.3.8l1.3,1.3c.6.6.5,1-.6,1.2-4.2.6-7.8,1.6-10.9,3.2-.2.1-.3.3-.4.5-1.4,9-2.1,17.9-2.1,26.7,0,.5-.4,1-1,1-.2,0-.3,0-.5-.1l-.8-.4c-1.1-.6-1.7-1.9-1.6-3.1l1.8-22.1c0-.4-.1-.6-.6-.4Z"/>
      <path class="cls-1" d="M64.1,53.6l3.5-2.5c.8-.6,1.6-.5,2.4.4l.7.7c.6.7.5,1.3-.3,1.8l-6.2,4.2c-.5.3-.7.7-.7,1.1l.2,2c0,.6.3.8.9.6,2.4-1,4.1-3.1,6.5-5.5.6-.6,1.5-.6,2,0,0,0,0,0,0,0l.8.8c.7.7.7,1.4,0,2-2.1,2.4-4.6,4.4-7.4,6.1-.3.2-.6.2-1,.2-5.5-.6-5.8-7.2-5.4-11.5,0-.9.5-3.2,1.3-7,0-.3.3-.5.6-.4,3,.5,5.9-1.1,8.2-3,.7-.5,1.3-.5,1.9.1l1,1c.6.6.6,1.2,0,1.8-2.4,2-5.2,3.2-8.2,3.6-.4,0-.6.3-.7.7l-.4,2.8c0,.3,0,.3.3.2Z"/>
      <path class="cls-1" d="M27.1,51.7c-.2,1.1-.3,2.5-.4,3.1,0,.4-.3.6-.6.5-1.6-.5-2.5-1.1-2.7-1.7-.3-1.4-.3-2.8.1-4.1.3-.8.8-1.1,1.6-.8,1.6.6,2.3,1.6,2,3Z"/>
      <path class="cls-1" d="M17.8,53.4c-4,.8-7.3,2.4-10,4.8-.3.3-.5.6-.6,1-.5,1.7.4,3,2.6,4,.4.2,2.9,1.2,7.5,3.1,2.4,1,3.6,2.6,3.8,4.8.2,2.9-2.1,5.2-4.4,6.9-4.7,3.3-11.4,5.2-16.2,1.4-.3-.2-.4-.5-.4-.9,0-.4.2-.7.5-1,.3-.2.6-.3.9-.2,4.5,1.6,8.7.8,12.7-2.5,1.1-.9,1.9-1.8,2.4-2.9.5-.9.1-1.9-.7-2.4-.1,0-.2,0-.3-.1-3.5-1-5.8-1.8-6.9-2.3-4.8-2.1-6.9-5.8-3.2-10.2,2.7-3.2,6.1-5.4,10.4-6.6,2.5-.7,4,.2,4.6,2.8,0,.3,0,.7-.3.8-.4.3-.9.2-1.4-.4-.2-.3-.5-.3-.9-.3Z"/>
      <path class="cls-1" d="M188.8,65.6c-1.2,1.4-2.5,4.9-4.5,6.5-1.9,1.4-4.1.5-5.5-1.1-.5-.5-.7-1.4-.7-2.5,0-4.5.4-8.9,1.2-13,.2-1.1.8-1.4,1.8-.8l1.1.6c.9.5,1.3,1.3,1,2.4-.8,3.5-1.3,6.8-1.6,10.1-.1,1.5.3,1.7,1.2.5,3.5-4.4,5.2-10.2,5.8-15.7.2-1.5,1-1.8,2.4-1l.5.3c1.2.7,1.8,1.8,1.8,3.2l-.6,14.3c0,.9-.5,1.1-1.3.8l-1.4-.6c-.9-.4-1.2-1-1.1-2l.3-2.1c0-.3,0-.2-.3,0Z"/>
      <path class="cls-1" d="M170.1,57.6c0-.8-.2-.9-.6-.2-.9,1.2-1.6,2.6-2.1,4.3-1.2,3.9-1.8,8.1-1.8,12.5,0,1,.4,1.2,1.2.6,1.1-.7,2-1.7,2.9-2.9,1.9-2.7,3.3-4.7,4.2-6,.6-.9,1.3-1.1,2.3-.5l.7.4c1,.6,1.2,1.4.6,2.4-1.7,2.8-3.8,5.7-6.5,8.5-4,4.3-9,0-8.9-5,0-3.7.4-6.8,1.1-9.5.7-3,2.7-9.6,6.4-8.3,2.5.9,4,2.7,4.5,5.4.1.7-.3,1.3-1,1.4-.2,0-.4,0-.5,0-1.6-.5-2.4-1.5-2.3-3Z"/>
      <path class="cls-1" d="M26.5,59.4c-.8,4.7-1,10.1-.6,16,0,1.1-.4,1.5-1.5,1.1l-.8-.3c-1.2-.5-1.8-1.4-1.7-2.7l.7-15.6c0-1.5.7-1.9,2-1.1l.8.5c.9.5,1.2,1.2,1,2.2Z"/>
      <path class="cls-1" d="M145.1,57.2c-.2,1.1-.3,2.5-.4,3.1-.1.4-.3.6-.6.5-1.6-.5-2.5-1.1-2.7-1.7-.3-1.4-.3-2.8.1-4,.3-.8.8-1.1,1.6-.8,1.6.6,2.3,1.6,2,3Z"/>
      <path class="cls-1" d="M150.6,68.1c.3-.4,1.3-2,3-5,1.1-1.9,2.5-2.4,4.2-1.8,1.1.4,1.6,1.5,1.6,3.1,0,.8,0,4.2,0,10,0,1.2.7,2,1.1,2.8.2.3.1.8-.2,1-.1,0-.3.1-.4.1-2.5-.2-3.8-1.6-3.9-4.2,0-2,0-4.1,0-6.2,0-1.5-.2-1.5-.8-.2-1.2,2.6-2.7,6.6-4.5,12.1-.2.7-.7,1-1.5.9-2.1-.3-3.1-2.2-3.1-4.4,0-3.6.3-8,.9-13.4,0-.6.6-1,1.1-.9.1,0,.2,0,.3,0,1.3.6,2.2,1.4,2.6,2.2.1.3.1.6,0,.9-.4,1-.7,1.9-.8,2.8,0,.7,0,.7.5.1Z"/>
      <path class="cls-1" d="M144.5,64.9c-.8,4.7-1,10.1-.6,16,0,1.1-.4,1.5-1.5,1l-.8-.3c-1.2-.5-1.8-1.4-1.7-2.7l.7-15.6c0-1.5.7-1.9,2-1.1l.8.5c.8.5,1.2,1.2,1,2.2Z"/>
      <path class="cls-1" d="M115.8,85.4c0,.4.3.7.6.8.2,0,.3,0,.5-.1,4.2-3,4.4-13.2,3.9-17.8-.1-1.1.3-1.4,1.2-.8l.7.4c.7.4,1.2,1.2,1.3,2,.5,5.4-.4,10.7-2.6,15.9-.6,1.4-1.5,2.5-2.6,3.4-.3.2-.6.3-.9.3-2.7-.1-4.3-1.5-4.8-4.2-.4-2.3-.4-6,.1-11,.1-1,.7-1.4,1.8-1.1.1,0,.3,0,.5.2.7.4,1.1,1,1,1.8l-.8,10.3Z"/>
      <path class="cls-1" d="M134.9,79.3c0-.4-.2-.5-.5-.1-.3.4-.9,1.6-1.8,3.6-.5,1.1-1.4,2.1-2.7,2.8-.3.2-.6.2-.9.1-2.6-.7-4-2.7-4-5.4.1-4,1.4-7.5,3.7-10.4.8-1,2.2-1.1,3.2-.4,0,0,.1.1.2.2l1.2,1.2c.2.2.4.2.6,0l1.5-2.6c.4-.7,1.4-1,2.1-.5,0,0,0,0,0,0,1.5,1,2.1,1.6,1.8,3.6-.3,2.2-.7,4.6-1,7.4-.2,1.6,0,2.4.6,3.8.1.4,0,.8-.4.9-.1,0-.3,0-.4,0-1.9-.4-3-1.8-3.2-4.2ZM129.1,81.3l3.7-8c0,0,0-.2,0-.2,0,0,0,0,0,0h0c-.7-.3-2.1,1.2-3.1,3.4v.2c-1.1,2.2-1.4,4.3-.7,4.6,0,0,0,0,0,0h0c0,0,.2,0,.2,0,0,0,0,0,0,0Z"/>
      <path class="cls-1" d="M101.1,80c0,.7,0,.7.5.1.3-.4,1.3-2,3-4.9,1.1-1.9,2.5-2.4,4.2-1.8,1.1.4,1.6,1.5,1.6,3.1,0,.8,0,4.2,0,10,0,1.2.7,2,1.2,2.8.2.3.1.8-.2,1-.1,0-.3.1-.4.1-2.5-.2-3.8-1.6-3.9-4.2,0-2,0-4.1,0-6.2,0-1.5-.2-1.5-.8-.2-1.2,2.6-2.7,6.6-4.5,12.1-.2.7-.7,1-1.5.9-2.1-.3-3.1-2.2-3.1-4.4,0-3.6.3-8,.9-13.4,0-.6.6-1,1.1-.9.1,0,.2,0,.3,0,1.3.6,2.2,1.4,2.6,2.2.1.3.1.6,0,.9-.4,1-.7,1.9-.8,2.8Z"/>
      <path class="cls-1" d="M78.1,80.6c0-.8-.2-.9-.6-.2-.9,1.2-1.6,2.6-2.1,4.3-1.2,3.9-1.8,8.1-1.8,12.5,0,1,.4,1.2,1.2.6,1.1-.7,2-1.7,2.9-2.9,1.9-2.7,3.3-4.7,4.2-6,.6-.9,1.3-1.1,2.3-.5l.7.4c1,.6,1.2,1.4.6,2.4-1.7,2.8-3.8,5.7-6.5,8.5-4,4.3-9,0-8.9-5,0-3.7.4-6.8,1.1-9.5.7-3,2.7-9.6,6.4-8.3,2.5.9,4,2.7,4.5,5.4.1.7-.3,1.3-1,1.4-.2,0-.4,0-.5,0-1.6-.5-2.4-1.5-2.3-3Z"/>
      <path class="cls-1" d="M91.9,78.7c1.2,0,2.3,1.3,3.2,3.7,1.7,4.3,1.5,8.1-.4,11.4-.8,1.3-2.2,1.9-4.2,1.7-2-.2-3.3-1-3.8-2.4-1.4-3.5-.9-7.3,1.5-11.3,1.3-2.2,2.5-3.2,3.8-3.1ZM89.8,92.3c1,.3,2.5-1.7,3.3-4.5.8-2.8.6-5.2-.4-5.5,0,0,0,0,0,0-1-.3-2.5,1.7-3.3,4.5-.8,2.8-.6,5.2.4,5.5,0,0,0,0,0,0Z"/>
      <path class="cls-1" d="M190.3,126.8c-.5-2.6-.5-5.1,0-7.4.2-.9,1-1.5,1.9-1.4,1.3,0,2.1.6,2.4,1.8.8,3,1.4,6.5,1.7,10.4.4,4.2-1.7,6.1-5.4,7.9-2,1-7.1,3.6-9.2,2.8-1-.4-1.5-1.5-1.2-2.5,0-.2.1-.3.2-.5,1.9-2.6,4.3-4.2,7.2-5.5.4-.2.4-.4,0-.6-2.1-1-7.2-4-15.5-8.8-1.4-.8-2.5-1.7-3.6-2.7-5.7-5.7-8.6-12.8-8.7-21.3,0-2.8.2-5,.6-6.8.2-.9.7-1.3,1.6-1.2.3,0,.4,0,.5,0,1.1.4,1.6,1.1,1.5,2.1-.5,5.5-.2,10.2.9,14.1,1.3,4.5,3.9,8.3,7.9,11.6,1.2,1,3.8,2.4,7.8,4.3,5.3,2.5,8.1,3.8,8.6,4,.2,0,.3,0,.4-.2,0,0,0-.1,0-.2Z"/>
      <path class="cls-1" d="M61.3,45.4c-1,1.1-2.3,2.6-2.9,3.2-.4.4-.7.4-.9.1-.9-1.6-1.1-2.7-.7-3.5.9-1.8,2-3.2,3.5-4.4.9-.7,1.5-.7,1.9.1.8,1.6.5,3.1-.9,4.5Z"/>
    </g>
  </g>
</svg>