<svg width="73" height="40" viewBox="0 0 73 40" fill="none" xmlns="http://www.w3.org/2000/svg">
<path d="M59.4066 18.0301C58.9782 17.22 57.6289 17.1454 57.0939 17.8936C56.6058 18.5737 56.7742 20.405 56.8189 21.2365C56.8275 21.3196 56.8573 21.39 56.9191 21.4497L57.9806 22.4964C58.0872 22.603 58.1405 22.7416 58.1405 22.8695C58.1405 23.0059 58.0872 23.136 57.987 23.2362L56.8957 24.3277C56.8509 24.3725 56.8275 24.4343 56.8275 24.4961C56.7742 25.4576 56.7656 26.0759 56.8125 26.3658C57.0641 28.0671 59.5899 27.9754 59.5899 26.046C59.5899 23.7798 59.5985 21.5051 59.5985 19.2303C59.5985 18.6739 59.5366 18.2689 59.4066 18.0322V18.0301ZM63.5951 31.6401C63.1134 30.8769 62.152 30.6253 61.4572 31.0752C60.7559 31.5186 60.579 32.4865 61.0607 33.2433C61.5339 34.0065 62.4952 34.2581 63.1986 33.8168C63.8935 33.3669 64.0768 32.3969 63.5951 31.6422V31.6401ZM66.5345 17.0004C66.1146 16.1839 64.7568 16.1007 64.2218 16.832C63.7187 17.512 63.902 19.3732 63.9319 20.2132C63.9319 20.275 63.9617 20.3283 64.0001 20.3666L65.1149 21.4667C65.3131 21.665 65.3216 21.9848 65.1234 22.1852H65.1149L64.0086 23.2852C63.9553 23.3385 63.9319 23.4067 63.9255 23.4835C63.902 24.2765 63.7805 25.3851 64.2154 26.0098C64.9337 27.048 66.6432 26.5449 66.6645 25.108C66.6943 22.7949 66.7093 20.4818 66.7178 18.1687C66.7178 17.6272 66.656 17.237 66.5345 17.0004ZM66.5345 17.0004C66.1146 16.1839 64.7568 16.1007 64.2218 16.832C63.7187 17.512 63.902 19.3732 63.9319 20.2132C63.9319 20.275 63.9617 20.3283 64.0001 20.3666L65.1149 21.4667C65.3131 21.665 65.3216 21.9848 65.1234 22.1852H65.1149L64.0086 23.2852C63.9553 23.3385 63.9319 23.4067 63.9255 23.4835C63.902 24.2765 63.7805 25.3851 64.2154 26.0098C64.9337 27.048 66.6432 26.5449 66.6645 25.108C66.6943 22.7949 66.7093 20.4818 66.7178 18.1687C66.7178 17.6272 66.656 17.237 66.5345 17.0004ZM63.5951 31.6401C63.1134 30.8769 62.152 30.6253 61.4572 31.0752C60.7559 31.5186 60.579 32.4865 61.0607 33.2433C61.5339 34.0065 62.4952 34.2581 63.1986 33.8168C63.8935 33.3669 64.0768 32.3969 63.5951 31.6422V31.6401ZM59.4066 18.0301C58.9782 17.22 57.6289 17.1454 57.0939 17.8936C56.6058 18.5737 56.7742 20.405 56.8189 21.2365C56.8275 21.3196 56.8573 21.39 56.9191 21.4497L57.9806 22.4964C58.0872 22.603 58.1405 22.7416 58.1405 22.8695C58.1405 23.0059 58.0872 23.136 57.987 23.2362L56.8957 24.3277C56.8509 24.3725 56.8275 24.4343 56.8275 24.4961C56.7742 25.4576 56.7656 26.0759 56.8125 26.3658C57.0641 28.0671 59.5899 27.9754 59.5899 26.046C59.5899 23.7798 59.5985 21.5051 59.5985 19.2303C59.5985 18.6739 59.5366 18.2689 59.4066 18.0322V18.0301ZM39.8839 24.9225C39.8839 24.9993 39.8839 25.0675 39.8754 25.1442C39.8754 25.1442 39.8782 25.1393 39.8839 25.1293C39.9073 25.0376 39.9073 24.9374 39.8988 24.8394C39.8903 24.8692 39.8839 24.8841 39.8839 24.9225ZM66.5345 17.0004C66.1146 16.1839 64.7568 16.1007 64.2218 16.832C63.7187 17.512 63.902 19.3732 63.9319 20.2132C63.9319 20.275 63.9617 20.3283 64.0001 20.3666L65.1149 21.4667C65.3131 21.665 65.3216 21.9848 65.1234 22.1852H65.1149L64.0086 23.2852C63.9553 23.3385 63.9319 23.4067 63.9255 23.4835C63.902 24.2765 63.7805 25.3851 64.2154 26.0098C64.9337 27.048 66.6432 26.5449 66.6645 25.108C66.6943 22.7949 66.7093 20.4818 66.7178 18.1687C66.7178 17.6272 66.656 17.237 66.5345 17.0004ZM63.5951 31.6401C63.1134 30.8769 62.152 30.6253 61.4572 31.0752C60.7559 31.5186 60.579 32.4865 61.0607 33.2433C61.5339 34.0065 62.4952 34.2581 63.1986 33.8168C63.8935 33.3669 64.0768 32.3969 63.5951 31.6422V31.6401ZM59.4066 18.0301C58.9782 17.22 57.6289 17.1454 57.0939 17.8936C56.6058 18.5737 56.7742 20.405 56.8189 21.2365C56.8275 21.3196 56.8573 21.39 56.9191 21.4497L57.9806 22.4964C58.0872 22.603 58.1405 22.7416 58.1405 22.8695C58.1405 23.0059 58.0872 23.136 57.987 23.2362L56.8957 24.3277C56.8509 24.3725 56.8275 24.4343 56.8275 24.4961C56.7742 25.4576 56.7656 26.0759 56.8125 26.3658C57.0641 28.0671 59.5899 27.9754 59.5899 26.046C59.5899 23.7798 59.5985 21.5051 59.5985 19.2303C59.5985 18.6739 59.5366 18.2689 59.4066 18.0322V18.0301ZM39.8839 24.9225C39.8839 24.9993 39.8839 25.0675 39.8754 25.1442C39.8754 25.1442 39.8782 25.1393 39.8839 25.1293C39.9073 25.0376 39.9073 24.9374 39.8988 24.8394C39.8903 24.8692 39.8839 24.8841 39.8839 24.9225Z" fill="#1D1D1B"/>
<path d="M66.7177 18.1689C66.7091 20.482 66.6942 22.7951 66.6644 25.1082C66.6409 26.543 64.9314 27.0461 64.2153 26.01C63.7804 25.3832 63.9019 24.2768 63.9254 23.4837C63.9339 23.407 63.9552 23.3387 64.0085 23.2854L65.1148 22.1854H65.1233C65.3215 21.9871 65.3151 21.6673 65.1148 21.4669L64 20.3669C63.9616 20.3285 63.9318 20.2752 63.9318 20.2134C63.9019 19.3734 63.7186 17.5123 64.2217 16.8322C64.7567 16.0988 66.1145 16.1841 66.5344 17.0006C66.6559 17.2372 66.7177 17.6274 66.7177 18.1689Z" fill="#1D1D1B"/>
<path d="M59.5963 19.2284C59.5963 21.5031 59.5878 23.7779 59.5878 26.0441C59.5878 27.9756 57.0619 28.0673 56.8104 26.3639C56.7656 26.0739 56.772 25.4557 56.8253 24.4942C56.8253 24.4324 56.8488 24.3727 56.8935 24.3258L57.9849 23.2342C58.0851 23.134 58.1383 23.0061 58.1383 22.8676C58.1383 22.7375 58.0851 22.6011 57.9785 22.4945L56.917 21.4477C56.8552 21.3859 56.8253 21.3177 56.8168 21.2345C56.7699 20.4031 56.6036 18.5697 57.0918 17.8917C57.6268 17.1434 58.976 17.2202 59.4045 18.0282C59.5345 18.2648 59.5963 18.6699 59.5963 19.2263V19.2284Z" fill="#1D1D1B"/>
<path d="M39.8988 24.8396C39.9073 24.9398 39.9073 25.0379 39.8839 25.1295C39.8839 25.1295 39.8811 25.1345 39.8754 25.1445C39.8839 25.0677 39.8839 24.9995 39.8839 24.9227C39.8839 24.8844 39.8924 24.8694 39.8988 24.8396Z" fill="#1D1D1B"/>
<path d="M63.1986 33.817C62.4973 34.2604 61.5338 34.0089 61.0606 33.2435C60.5789 32.4888 60.7558 31.5188 61.4571 31.0754C62.152 30.6256 63.1133 30.8771 63.595 31.6403C64.0768 32.395 63.8935 33.365 63.1986 33.8149V33.817Z" fill="#1D1D1B"/>
<path d="M5.77508 25.298C5.73032 25.2447 5.68343 25.2447 5.63014 25.2894C5.13349 25.7542 4.68374 25.7329 4.27235 25.2361C4.21906 25.1743 4.19562 25.1146 4.18069 25.0379C4.12741 24.6093 4.27235 24.2746 4.60913 24.0145C4.61766 24.006 4.62405 23.9996 4.63258 23.9911C4.67095 23.9378 4.66242 23.8611 4.60913 23.8227C4.34269 23.6393 4.03575 23.5327 3.87589 23.2727C3.4645 22.6246 4.16577 21.7995 4.90542 22.1427C5.91363 22.6246 6.63835 23.3558 7.09663 24.3557C7.54639 25.347 6.51686 26.1806 5.77721 25.2937L5.77508 25.298Z" fill="#1D1D1B"/>
<path d="M30.52 33.7254C29.8187 34.1688 28.8638 33.9172 28.3821 33.1604C27.9003 32.4057 28.0772 31.4272 28.7785 30.9859C29.4734 30.536 30.4347 30.794 30.9164 31.5508C31.3982 32.3055 31.2213 33.2841 30.52 33.7254Z" fill="#1D1D1B"/>
<path d="M72.1063 23.6415C71.8931 22.7482 71.7162 22.2515 71.8079 21.3284C72.0146 19.092 71.8079 16.4804 71.616 14.4892C71.2878 10.9162 70.3499 7.62028 68.8152 4.59725C68.5637 4.10052 67.7004 2.7425 67.0524 2.61246C66.6027 2.52932 65.9461 2.82565 65.9525 3.36715C65.9525 3.43537 65.9291 3.45029 65.8694 3.42045C61.8941 0.923998 57.4605 -0.205907 52.59 0.0307337C46.2486 0.344122 39.9286 3.2904 36.4031 8.57324C34.8087 6.09171 32.6409 4.06854 29.8934 2.52079C21.2159 -2.36552 9.7525 0.320672 5.21233 9.53472C3.7842 12.4362 3.311 15.5957 3.7842 19.0302C3.79912 19.0984 3.76928 19.1453 3.70747 19.1666C-2.00078 21.0299 -0.811388 28.6557 5.18036 28.8156C5.24217 28.8156 5.28054 28.8454 5.28693 28.9158C5.7985 32.9301 9.16419 36.3582 12.6748 38.0232C19.483 41.2445 27.9856 40.4877 34.0669 36.0534C35.9597 34.6719 37.4326 33.0389 38.4238 31.1457C41.1031 37.6118 49.0559 40.3214 55.6189 39.8012C62.3268 39.2661 69.5399 35.7634 71.746 29.0927C72.3876 27.1548 72.5006 25.3363 72.1041 23.6436L72.1063 23.6415ZM11.7519 12.2529C12.7217 11.0697 14.363 10.0315 15.9339 10.2148C18.6197 10.5197 21.0709 11.948 23.7652 12.3744C26.9476 12.8775 29.887 12.2444 32.5876 10.4578C33.2356 10.0293 33.7941 9.35138 34.4037 8.78643C34.4719 8.73313 34.5252 8.73313 34.5785 8.80988C34.8918 9.25331 35.1881 9.70314 35.4567 10.1679C36.1665 11.3809 36.7164 12.6643 37.1129 14.0309C37.1278 14.0757 37.098 14.1311 37.0447 14.1524H36.9999C35.9853 13.9243 34.9856 13.9456 34.0541 14.1823H34.0456C31.9247 14.7238 30.1769 16.3653 29.5502 18.6251C29.3221 19.4651 29.3669 20.418 29.3818 21.3198C29.3818 21.3881 29.337 21.4414 29.2667 21.4414C29.2219 21.4414 29.175 21.4115 29.1601 21.3646C29.045 21.0832 28.9384 20.7847 28.8404 20.4863C27.8855 17.6935 25.0932 15.7684 22.1708 15.8217C18.3852 15.8899 15.6526 18.6763 15.2263 22.454C15.2114 22.5308 15.173 22.5606 15.1048 22.5308L8.85512 20.1558C8.71018 20.1025 8.61852 19.949 8.62705 19.7891C8.90841 16.9644 9.94647 14.453 11.7561 12.2465L11.7519 12.2529ZM23.7034 19.1304C24.0167 19.4736 24.3365 19.787 24.6647 20.0769C24.8864 20.2688 24.9013 20.595 24.7095 20.8167L23.6096 21.9168C23.5798 21.9466 23.5563 21.9935 23.5478 22.0383C23.3879 23.2513 23.2728 24.7863 24.5091 25.1231C25.6154 25.428 26.3252 24.5731 26.2868 23.4965C26.2484 22.4583 26.257 21.1003 26.3017 19.4203C26.3017 19.3137 26.3401 19.3052 26.4083 19.3905C28.5079 22.2302 27.8812 25.7947 24.8971 27.5578C22.5993 28.9094 19.7153 28.2528 18.0356 26.2296C16.1897 23.9847 16.5777 20.8167 18.6154 18.8788C19.8283 17.734 21.4077 17.3055 23.3709 17.6039C23.4476 17.6125 23.486 17.6572 23.486 17.7255C23.5158 18.1838 23.3645 18.7637 23.6991 19.1304H23.7034ZM38.1126 26.9459C38.0294 27.5642 37.8845 28.159 37.6927 28.7324C36.4031 32.6018 32.9223 35.4266 29.1452 36.9147C25.5514 38.3345 21.849 38.7076 18.025 38.036C13.683 37.2643 9.35603 34.9448 7.49307 30.7386C7.06463 29.7621 6.91329 28.4191 6.28662 27.3275C6.16512 27.1143 5.9136 27.0077 5.677 27.061C4.38743 27.3659 3.02111 26.8692 2.22818 25.8245C1.14536 24.4196 1.62496 22.0852 3.08293 21.2068C4.93736 20.0919 7.09661 20.87 7.89167 22.8932C8.05153 23.3046 7.9748 24.0998 8.37979 24.4047C8.74641 24.6797 9.06614 24.6946 9.34964 24.458C9.99762 23.9165 9.54787 22.9166 9.41145 22.2131C9.40292 22.1449 9.42637 22.1214 9.48819 22.1449L15.2199 24.3194C15.335 24.3578 15.4181 24.4559 15.4565 24.5795C17.5028 32.3034 28.6827 31.3035 29.256 23.2215C29.2646 23.1533 29.2944 23.1 29.3562 23.0616C29.7079 22.8484 29.9658 22.9934 30.1662 23.3366C30.876 24.5497 31.8522 25.4131 32.9905 25.9162C33.7621 26.2594 34.6083 26.4343 35.4865 26.4428C36.3498 26.4513 37.2429 26.2893 38.1275 25.961C38.1573 25.9524 38.1957 25.9695 38.2042 25.9993C38.2127 26.0079 38.2127 26.0143 38.2127 26.0228C38.1978 26.3362 38.168 26.6411 38.1211 26.9459H38.1126ZM39.0057 23.2897C38.411 23.9762 37.6777 24.4196 36.8997 24.6477C36.0151 24.9142 35.0602 24.8993 34.1905 24.6243C33.5639 24.426 32.9841 24.0977 32.4896 23.6479C31.9098 23.1362 31.4515 22.4497 31.2 21.6183C30.6117 19.6804 31.1467 17.9856 32.788 16.5337C32.8647 16.4655 32.9031 16.4804 32.9095 16.587C32.9329 17.1605 33.4509 17.6636 33.8857 18.0218C33.9539 18.0751 34.0158 18.122 34.069 18.1668C34.2971 18.3501 34.3355 18.6784 34.1522 18.9065C34.1373 18.9215 34.1287 18.9364 34.1138 18.9513L34.0222 19.043L33.0139 20.0578C32.9756 20.0876 32.9521 20.1345 32.9521 20.1878C32.8903 20.6526 32.837 21.2559 32.9074 21.8059C32.9521 22.2344 33.0757 22.6224 33.3187 22.8974C33.5404 23.1426 33.8154 23.2876 34.1287 23.3089C34.2651 23.3323 34.4186 23.3238 34.5721 23.294C35.7082 23.0808 35.6933 22.0873 35.7018 21.0043C35.7167 19.2476 35.7167 17.5229 35.7018 15.8366C35.7018 15.7151 35.802 15.6149 35.9235 15.6149H35.9768C38.541 16.15 39.9222 17.6146 40.1205 19.9959C40.1738 20.6376 40.0906 21.2559 39.8753 21.8208C39.6835 22.3474 39.3936 22.8292 39.0206 23.2705L39.0057 23.2854V23.2897ZM67.3359 33.1071C61.6341 38.7779 51.7672 39.8311 44.8525 35.8786C41.9834 34.237 40.1588 31.8642 39.3723 28.7644C39.692 27.6345 39.869 26.4364 39.8753 25.153V25.1445C39.8839 25.0677 39.8839 24.9995 39.8839 24.9227C39.8839 24.8844 39.8924 24.8694 39.8988 24.8396V24.8161C39.9137 24.733 39.9606 24.6477 40.0203 24.588C40.2185 24.3812 40.3933 24.1595 40.5617 23.9314C40.8814 24.8694 43.1728 25.3427 43.9125 25.4046C45.0869 25.5111 46.012 25.5048 46.4852 24.3279C47.745 21.1898 48.3311 17.9323 48.2416 14.5425C48.2416 14.5127 48.2651 14.4892 48.2949 14.4892H48.3034C52.1871 15.3143 56.0814 15.3676 59.9885 14.6342C60.0567 14.6257 60.1249 14.6257 60.1953 14.6577C62.6593 15.5957 64.2409 15.8494 66.6517 14.5511C67.5299 14.0778 68.5743 13.2677 69.6124 13.6578C69.7957 13.7346 69.9023 13.8646 69.9257 14.0543C70.2774 16.6958 70.3307 19.3286 70.0856 21.9701C70.0238 22.5585 70.4437 23.618 70.5353 24.2C71.0767 27.5897 69.6635 30.7961 67.3359 33.1071Z" fill="#1D1D1B"/>
<path d="M5.77508 25.298C5.73032 25.2447 5.68343 25.2447 5.63014 25.2894C5.13349 25.7542 4.68374 25.7329 4.27235 25.2361C4.21906 25.1743 4.19562 25.1146 4.18069 25.0379C4.12741 24.6093 4.27235 24.2746 4.60913 24.0145C4.61766 24.006 4.62405 23.9996 4.63258 23.9911C4.67095 23.9378 4.66242 23.8611 4.60913 23.8227C4.34269 23.6393 4.03575 23.5327 3.87589 23.2727C3.4645 22.6246 4.16577 21.7995 4.90542 22.1427C5.91363 22.6246 6.63835 23.3558 7.09663 24.3557C7.54639 25.347 6.51686 26.1806 5.77721 25.2937L5.77508 25.298Z" fill="#1D1D1B"/>
<path d="M30.52 33.7254C29.8187 34.1688 28.8638 33.9172 28.3821 33.1604C27.9003 32.4057 28.0772 31.4272 28.7785 30.9859C29.4734 30.536 30.4347 30.794 30.9164 31.5508C31.3982 32.3055 31.2213 33.2841 30.52 33.7254Z" fill="#1D1D1B"/>
</svg>
