<?xml version="1.0" encoding="UTF-8" standalone="no"?>
<!DOCTYPE svg PUBLIC "-//W3C//DTD SVG 1.1//EN" "http://www.w3.org/Graphics/SVG/1.1/DTD/svg11.dtd">
<svg width="100%" height="100%" viewBox="0 0 229 218" version="1.1" xmlns="http://www.w3.org/2000/svg" xmlns:xlink="http://www.w3.org/1999/xlink" xml:space="preserve" xmlns:serif="http://www.serif.com/" style="fill-rule:evenodd;clip-rule:evenodd;stroke-linejoin:round;stroke-miterlimit:2;">
    <g transform="matrix(1,0,0,1,-4.08484,-9.25514)">
        <g transform="matrix(-4.16667,0,0,4.16667,193.352,137.553)">
            <path d="M0,0.97C0.59,2.26 -0.77,3.36 -1.74,2.2C-1.8,2.13 -1.86,2.12 -1.93,2.19C-2.57,2.79 -3.17,2.77 -3.71,2.12C-3.77,2.04 -3.81,1.95 -3.82,1.86C-3.89,1.3 -3.71,0.85 -3.27,0.52C-3.25,0.51 -3.24,0.5 -3.23,0.48C-3.18,0.42 -3.2,0.32 -3.27,0.27C-3.62,0.03 -4.01,-0.11 -4.23,-0.45C-4.77,-1.3 -3.85,-2.39 -2.88,-1.93C-1.56,-1.31 -0.6,-0.34 0,0.97" style="fill-rule:nonzero;"/>
        </g>
        <g transform="matrix(2.22737,-3.52136,3.52136,2.22737,77.6636,181.713)">
            <path d="M-1.66,-3.014C-2.833,-3.017 -3.792,-2.139 -3.791,-1.051C-3.794,0.028 -2.842,0.916 -1.66,0.914C-0.487,0.917 0.464,0.044 0.471,-1.049C0.469,-2.136 -0.478,-3.016 -1.66,-3.014" style="fill-rule:nonzero;"/>
        </g>
        <g transform="matrix(-4.16667,0,0,4.16667,19.1019,93.7609)">
            <path d="M0,10.06C-3.04,13.6 -8.9,12.36 -10.25,7.89C-11.01,5.35 -10.32,3.13 -8.17,1.22C-8.07,1.13 -8.01,1.16 -8.01,1.29C-7.97,2.15 -7.08,2.89 -6.48,3.37C-6.19,3.61 -6.14,4.04 -6.38,4.34C-6.39,4.36 -6.41,4.38 -6.43,4.39L-7.87,5.84C-7.91,5.89 -7.94,5.95 -7.95,6.01C-8.08,7.08 -8.2,8.74 -7.46,9.57C-7.04,10.04 -6.5,10.21 -5.83,10.08C-4.33,9.81 -4.36,8.5 -4.34,7.09C-4.33,4.78 -4.32,2.53 -4.34,0.32C-4.34,0.16 -4.22,0.03 -4.05,0.02C-4.03,0.02 -4.01,0.03 -3.99,0.03C-0.62,0.73 1.19,2.65 1.45,5.77C1.58,7.38 1.03,8.86 0,10.06M-1.07,13.66C-1.42,20.55 -6.88,25.54 -12.94,27.93C-17.64,29.79 -22.5,30.28 -27.51,29.39C-33.2,28.39 -38.86,25.35 -41.31,19.83C-41.87,18.56 -42.07,16.79 -42.89,15.37C-43.05,15.09 -43.37,14.95 -43.69,15.02C-45.38,15.41 -47.17,14.76 -48.21,13.4C-49.63,11.55 -49,8.49 -47.08,7.34C-44.65,5.89 -41.82,6.91 -40.78,9.56C-40.57,10.09 -40.68,11.14 -40.14,11.54C-39.67,11.9 -39.25,11.92 -38.87,11.6C-38.03,10.9 -38.62,9.59 -38.79,8.66C-38.81,8.58 -38.78,8.55 -38.69,8.58L-31.19,11.42C-31.04,11.48 -30.92,11.61 -30.88,11.77C-28.2,21.88 -13.54,20.58 -12.79,9.99C-12.78,9.9 -12.74,9.82 -12.66,9.77C-12.2,9.5 -11.87,9.69 -11.61,10.13C-9.42,13.9 -5.21,15.08 -1.18,13.58C-1.13,13.56 -1.09,13.59 -1.07,13.63L-1.07,13.66ZM-20.07,4.63C-19.65,5.07 -19.23,5.48 -18.8,5.86C-18.52,6.12 -18.49,6.55 -18.75,6.84L-20.18,8.27C-20.23,8.32 -20.26,8.37 -20.26,8.43C-20.47,10.03 -20.63,12.03 -19,12.48C-17.55,12.87 -16.62,11.76 -16.68,10.35C-16.73,8.99 -16.72,7.21 -16.65,5.01C-16.65,4.87 -16.6,4.85 -16.52,4.97C-13.76,8.68 -14.58,13.36 -18.49,15.66C-21.5,17.44 -25.29,16.58 -27.48,13.92C-29.91,10.99 -29.4,6.84 -26.72,4.3C-25.14,2.79 -23.06,2.23 -20.49,2.62C-20.4,2.64 -20.35,2.69 -20.34,2.78C-20.31,3.38 -20.5,4.15 -20.07,4.63M-35.73,-4.38C-34.46,-5.94 -32.31,-7.29 -30.25,-7.06C-26.73,-6.65 -23.51,-4.78 -19.99,-4.22C-15.82,-3.56 -11.97,-4.4 -8.43,-6.73C-7.58,-7.29 -6.84,-8.18 -6.05,-8.92C-5.96,-9 -5.89,-8.99 -5.82,-8.9C-4.33,-6.8 -3.22,-4.52 -2.5,-2.06C-2.48,-1.99 -2.51,-1.92 -2.58,-1.9C-2.6,-1.89 -2.62,-1.89 -2.65,-1.9C-7.02,-2.87 -11.22,-0.29 -12.4,3.96C-12.71,5.07 -12.65,6.32 -12.62,7.5C-12.62,7.58 -12.69,7.65 -12.77,7.65C-12.84,7.66 -12.9,7.62 -12.92,7.56C-13.06,7.18 -13.2,6.8 -13.34,6.41C-14.58,2.75 -18.24,0.23 -22.08,0.3C-27.04,0.38 -30.61,4.04 -31.18,8.99C-31.19,9.09 -31.25,9.12 -31.34,9.09L-39.52,5.98C-39.72,5.9 -39.84,5.71 -39.82,5.5C-39.46,1.8 -38.09,-1.49 -35.73,-4.38M1.38,0.46C0.51,-0.38 0.1,-0.58 -0.22,-1.81C-2.02,-8.63 -5.93,-13.73 -11.96,-17.13C-23.33,-23.54 -38.35,-20.02 -44.3,-7.95C-46.17,-4.15 -46.79,0 -46.16,4.5C-46.15,4.59 -46.19,4.65 -46.27,4.68C-53.75,7.11 -52.19,17.1 -44.34,17.31C-44.25,17.32 -44.2,17.36 -44.19,17.45C-43.52,22.7 -39.11,27.2 -34.51,29.38C-25.59,33.6 -14.46,32.6 -6.49,26.79C-1.62,23.24 1.15,18.42 1.14,12.22C1.13,12.06 1.2,11.9 1.31,11.78C4.23,8.74 4.48,3.47 1.38,0.46" style="fill-rule:nonzero;"/>
        </g>
        <g transform="matrix(-4.16667,0,0,4.16667,200.602,132.428)">
            <path d="M0,3.43C-0.06,3.36 -0.12,3.35 -0.19,3.42C-0.83,4.02 -1.43,4 -1.97,3.35C-2.03,3.27 -2.07,3.18 -2.08,3.09C-2.15,2.53 -1.97,2.08 -1.53,1.75C-1.51,1.74 -1.5,1.73 -1.49,1.71C-1.44,1.65 -1.46,1.55 -1.53,1.5C-1.88,1.26 -2.27,1.12 -2.49,0.78C-3.03,-0.07 -2.11,-1.16 -1.14,-0.7C0.18,-0.08 1.14,0.89 1.74,2.2C2.33,3.49 0.97,4.59 0,3.43" style="fill-rule:nonzero;"/>
        </g>
        <g transform="matrix(-3.52008,-2.22939,2.22939,-3.52008,62.2424,189.014)">
            <path d="M-1.14,-0.331C-2.219,-0.334 -3.107,0.619 -3.104,1.801C-3.107,2.975 -2.233,3.924 -1.14,3.931C-0.052,3.928 0.827,2.981 0.824,1.799C0.827,0.625 -0.052,-0.333 -1.14,-0.331" style="fill-rule:nonzero;"/>
        </g>
        <g transform="matrix(-1,0,0,1,232.134,9.25514)">
            <path d="M129.407,103.797C131.157,105.631 132.907,107.339 134.699,108.922C135.866,110.006 135.991,111.797 134.907,113.006L128.949,118.964C128.741,119.172 128.616,119.381 128.616,119.631C127.741,126.297 127.074,134.631 133.866,136.506C139.907,138.131 143.782,133.506 143.532,127.631C143.324,121.964 143.366,114.547 143.657,105.381C143.657,104.797 143.866,104.714 144.199,105.214C155.699,120.672 152.282,140.172 135.991,149.756C123.449,157.172 107.657,153.589 98.532,142.506C88.407,130.297 90.532,113.006 101.699,102.422C108.282,96.131 116.949,93.797 127.657,95.422C128.032,95.506 128.241,95.714 128.282,96.089C128.407,98.589 127.616,101.797 129.407,103.797ZM213.032,126.422C200.366,141.172 175.949,136.006 170.324,117.381C167.157,106.797 170.032,97.547 178.991,89.589C179.407,89.214 179.657,89.339 179.657,89.881C179.824,93.464 183.532,96.547 186.032,98.547C187.241,99.547 187.449,101.339 186.449,102.589C186.407,102.672 186.324,102.756 186.241,102.797L180.241,108.839C180.074,109.047 179.949,109.297 179.907,109.547C179.366,114.006 178.866,120.922 181.949,124.381C183.699,126.339 185.949,127.047 188.741,126.506C194.991,125.381 194.866,119.922 194.949,114.047C194.991,104.422 195.032,95.047 194.949,85.839C194.949,85.172 195.449,84.631 196.157,84.589C196.241,84.589 196.324,84.631 196.407,84.631C210.449,87.547 217.991,95.547 219.074,108.547C219.616,115.256 217.324,121.422 213.032,126.422ZM64.157,66.256C69.449,59.756 78.407,54.131 86.991,55.089C101.657,56.797 115.074,64.589 129.741,66.922C147.116,69.672 163.157,66.172 177.907,56.464C181.449,54.131 184.532,50.422 187.824,47.339C188.199,47.006 188.491,47.047 188.782,47.422C194.991,56.172 199.616,65.672 202.616,75.922C202.699,76.214 202.574,76.506 202.282,76.589C202.199,76.631 202.116,76.631 201.991,76.589C183.782,72.547 166.282,83.297 161.366,101.006C160.074,105.631 160.324,110.839 160.449,115.756C160.449,116.089 160.157,116.381 159.824,116.381C159.532,116.422 159.282,116.256 159.199,116.006C158.616,114.422 158.032,112.839 157.449,111.214C152.282,95.964 137.032,85.464 121.032,85.756C100.366,86.089 85.491,101.339 83.116,121.964C83.074,122.381 82.824,122.506 82.449,122.381L48.366,109.422C47.532,109.089 47.032,108.297 47.116,107.422C48.616,92.006 54.324,78.297 64.157,66.256ZM208.574,141.422C207.116,170.131 184.366,190.923 159.116,200.881C139.532,208.631 119.282,210.673 98.407,206.964C74.699,202.798 51.116,190.131 40.907,167.131C38.574,161.839 37.741,154.464 34.324,148.547C33.657,147.381 32.324,146.797 30.991,147.089C23.949,148.714 16.491,146.006 12.157,140.339C6.241,132.631 8.866,119.881 16.866,115.089C26.991,109.047 38.782,113.297 43.116,124.339C43.991,126.547 43.532,130.922 45.782,132.589C47.741,134.089 49.491,134.172 51.074,132.839C54.574,129.922 52.116,124.464 51.407,120.589C51.324,120.256 51.449,120.131 51.824,120.256L83.074,132.089C83.699,132.339 84.199,132.881 84.366,133.547C95.532,175.673 156.616,170.256 159.741,126.131C159.782,125.756 159.949,125.422 160.282,125.214C162.199,124.089 163.574,124.881 164.657,126.714C173.782,142.422 191.324,147.339 208.116,141.089C208.324,141.006 208.491,141.131 208.574,141.297L208.574,141.422ZM31.532,137.464C35.603,142.273 41.242,137.713 38.782,132.339C36.284,126.88 32.277,122.849 26.782,120.256C22.737,118.347 18.893,122.89 21.157,126.422C22.068,127.843 23.709,128.409 25.157,129.422C25.451,129.628 25.532,130.047 25.324,130.297C25.282,130.381 25.241,130.422 25.157,130.464C23.324,131.839 22.59,133.712 22.866,136.047C22.91,136.422 23.066,136.804 23.324,137.131C25.506,139.894 28.115,139.965 30.741,137.422C31.037,137.136 31.284,137.171 31.532,137.464ZM166.617,183.465C170.45,181.046 171.397,175.72 168.782,171.589C166.147,167.428 160.939,166.031 157.115,168.463C153.272,170.906 152.334,176.208 154.95,180.339C157.585,184.5 162.824,185.881 166.616,183.466L166.617,183.465Z" style="fill:white;"/>
        </g>
    </g>
</svg>
