<svg width="172" height="171" viewBox="0 0 172 171" fill="none" xmlns="http://www.w3.org/2000/svg">
<path d="M147.691 114.769C143.596 114.318 139.501 114.68 135.444 115.328C135.348 115.336 135.326 115.314 135.37 115.225C148.014 94.066 146.042 67.5131 130.406 48.4398C120.43 36.2802 105.083 28.3697 89.368 27.5126C74.3027 26.685 59.3776 31.4425 47.8467 41.4533C29.8975 57.0413 23.1636 81.927 31.023 104.408C37.2662 122.278 51.4625 135.618 69.561 140.983C69.6643 141.013 69.6643 141.057 69.5831 141.123C67.0526 142.916 55.8684 150.529 59.4249 154.661C62.4354 158.158 74.1513 156.345 78.1649 155.578C85.284 154.228 92.205 152.296 99.088 150.046C110.929 146.159 122.321 141.246 133.276 135.293C137.607 132.94 141.724 130.284 145.656 127.326C147.913 125.629 156.191 118.724 150.93 115.78C149.934 115.226 148.864 114.88 147.691 114.754V114.769ZM55.468 39.8382C83.252 21.5285 120.85 31.9051 135.107 62.0525C135.144 62.1189 135.122 62.1558 135.041 62.1631C129.079 62.3545 123.17 63.8517 117.437 65.4079C117.356 65.4301 117.312 65.4005 117.297 65.3268C116.382 60.8557 115.74 56.3329 115.378 51.7807C115.363 51.6184 115.274 51.5446 115.119 51.552L83.83 53.0176C83.83 53.0176 83.8 53.0176 83.793 53.0249C83.786 53.0323 83.771 53.0471 83.756 53.0471C83.756 53.0471 83.741 53.0618 83.734 53.0692C83.734 53.0692 83.734 53.0692 83.727 53.0766L83.704 53.0987C83.697 53.1061 83.697 53.1208 83.697 53.1356L84.17 59.2888C84.17 59.2888 84.155 59.3036 84.148 59.311L84.14 59.3036C83.513 58.6174 82.915 57.8869 82.34 57.1196C80.06 54.0723 77.7502 51.0545 75.3964 48.0663C75.3448 48.0146 75.3005 47.9999 75.2341 48.022C74.1201 48.4719 73.0651 49.0105 72.0617 49.6449C70.8518 50.3973 70.0403 50.8989 69.6124 51.1202C61.7553 55.3324 54.0457 59.7806 46.2328 64.0665C42.8908 65.9033 39.7406 68.1091 36.2289 69.6434L36.2141 69.6581C36.2141 69.6581 36.2067 69.6655 36.1994 69.6729C36.1994 69.6729 36.192 69.6803 36.1846 69.6877C36.1772 69.695 36.1772 69.695 36.1698 69.7024C36.1698 69.7024 36.1625 69.7098 36.1551 69.7171C36.1477 69.7245 36.1477 69.7393 36.1477 69.754C36.1477 69.754 36.1625 69.7688 36.1625 69.7836C36.1625 69.7836 36.1772 69.7983 36.1846 69.8057L44.1095 82.039C44.1538 82.113 44.1464 82.194 44.0948 82.231C43.5562 82.666 43.0398 82.991 42.5529 83.212C39.8527 84.377 37.1451 85.476 34.4375 86.502C34.3415 86.539 34.3194 86.605 34.3785 86.694L40.5177 96.654C40.562 96.728 40.5472 96.787 40.4735 96.831C38.0684 98.233 35.8183 99.849 33.7378 101.708C33.6788 101.767 33.6346 101.752 33.6124 101.671C26.4539 78.6067 35.1946 53.1315 55.4901 39.757L55.468 39.8382ZM45.3339 77.1549C43.9909 75.1922 42.6922 73.2001 41.4452 71.1858C41.4083 71.1194 41.423 71.0751 41.4894 71.0382C42.7215 70.4407 44.0199 69.5555 45.0233 69.0096C52.1648 65.0999 59.2768 61.1312 66.3592 57.1182C68.4028 55.96 70.6825 54.8167 72.8441 53.6438C73.3311 53.3782 73.8549 53.2085 74.3713 53.002C74.4525 52.9651 74.5558 52.9946 74.6074 53.061C82.104 63.2137 90.132 72.9385 98.699 82.213C99.348 82.922 99.953 83.704 100.536 84.449C100.632 84.574 100.757 84.656 100.898 84.692C100.92 84.7 100.942 84.707 100.949 84.729C100.949 84.729 100.957 84.737 100.964 84.744C100.971 84.751 100.971 84.766 100.971 84.781C100.971 84.81 100.949 84.833 100.912 84.84C87.979 90.394 74.8028 95.292 61.368 99.519C61.2352 99.563 61.0802 99.511 61.0065 99.393C55.6568 92.022 50.4326 84.6 45.3338 77.1106L45.3339 77.1549ZM56.9634 100.5C56.9634 100.5 56.9782 100.514 56.9782 100.529C56.9782 100.544 56.9782 100.559 56.9708 100.581L56.9561 100.596C56.9561 100.596 56.9487 100.603 56.9413 100.61C56.9339 100.618 56.9266 100.625 56.9192 100.632C56.9044 100.647 56.897 100.655 56.8675 100.655C54.5657 101.245 52.3007 101.812 50.0947 102.351C49.5488 102.484 49.4897 102.292 49.1798 101.952C45.6086 98.101 42.2733 92.7 39.7866 88.487C39.7423 88.413 39.7571 88.354 39.8309 88.31C40.8195 87.734 41.8376 87.233 42.8778 86.798C43.9845 86.34 45.0616 85.691 46.1978 85.263C46.3232 85.212 46.4634 85.263 46.5298 85.374C49.8798 90.495 53.2814 95.563 56.9561 100.448C56.9634 100.455 56.9708 100.463 56.9708 100.477L56.9634 100.5ZM95.688 73.3743C93.327 70.7328 91.157 67.8995 88.958 65.1104C88.737 64.83 88.538 64.4537 88.486 64.107C88.117 61.6132 87.844 59.1416 87.652 56.6773C87.645 56.6552 87.652 56.6331 87.659 56.611C87.659 56.611 87.674 56.5962 87.674 56.5814C87.696 56.5593 87.718 56.5372 87.74 56.515C87.74 56.515 87.755 56.5003 87.777 56.5076L111.888 55.4325C111.969 55.4252 112.014 55.4694 112.021 55.5506C112.907 62.8843 114.169 69.7828 115.793 76.246C115.845 76.4452 115.881 76.6149 115.881 76.7477C115.889 76.8436 115.852 76.91 115.763 76.9542L104.505 82.723C104.38 82.789 104.218 82.76 104.114 82.656C101.281 79.6164 98.462 76.5322 95.651 73.3816L95.688 73.3743ZM93.789 133.799C86.677 134.168 79.6902 133.437 72.8212 131.584C64.1003 129.237 56.0065 125.821 49.0043 120.087C48.8494 119.962 48.8198 119.977 48.9379 120.154C52.0887 124.868 55.9773 129.952 60.6257 133.789C60.6331 133.796 60.6478 133.811 60.6331 133.826C60.6257 133.833 60.611 133.848 60.5962 133.833C55.2249 131.162 50.3994 127.502 46.2674 123.164C42.1427 118.832 38.719 113.815 36.1657 108.414C36.1288 108.348 36.151 108.311 36.2248 108.311C39.1759 108.252 41.9057 107.957 44.4289 107.412C53.4667 105.472 62.4749 102.78 71.4979 99.704C88.85 93.788 106.748 86.545 123.437 77.8993C128.424 75.3174 133.389 72.5364 137.683 68.8773C137.742 68.8182 137.786 68.833 137.808 68.9142C141.86 82.099 141.057 96.375 134.993 108.843C134.359 110.156 133.599 111.403 132.728 112.598C123.662 125 109.195 133.004 93.767 133.807L93.789 133.799Z" fill="#E73928"/>
<path d="M75.5178 87.509C76.322 86.867 77.0597 86.129 77.6425 85.281C79.4425 82.625 79.8333 79.6516 79.3239 76.2946C78.9031 73.5573 77.1838 70.2445 74.358 69.381C70.7058 68.2667 68.6846 71.8227 68.1388 74.818L67.9839 74.9287C65.7853 74.412 62.0151 73.8731 60.215 75.6289C58.9756 76.8388 59.1086 78.9489 59.7064 80.447C60.6067 82.734 63.0637 84.63 65.2255 85.641C67.8079 86.837 71.128 87.486 74.1087 87.531L75.5178 87.509Z" fill="#E73928"/>
<path d="M116.715 164.855C72.8771 181.953 23.2956 160.199 6.18993 116.358C-10.9158 72.5168 10.8301 22.939 54.6682 5.84071C98.506 -11.2576 148.088 10.4967 165.194 54.3378C182.299 98.179 160.553 147.757 116.715 164.855ZM55.8416 8.82891C13.6486 25.2854 -7.27847 72.9967 9.19263 115.185C25.6637 157.373 73.3711 178.316 115.564 161.859C157.757 145.403 178.684 97.692 162.22 55.4958C145.757 13.3001 98.042 -7.63509 55.8563 8.82891H55.8416Z" fill="#E73928"/>
<path d="M52.4224 143.572L51.0282 145.777L48.7114 144.316C48.5122 144.191 48.2909 144.058 48.0547 143.925C47.8186 143.792 47.5678 143.689 47.2948 143.608C47.0292 143.534 46.7562 143.512 46.4758 143.542C46.1955 143.571 45.9299 143.689 45.6495 143.881C45.3766 144.08 45.111 144.375 44.8528 144.796C44.5946 145.201 44.4471 145.57 44.4028 145.895C44.3586 146.22 44.3807 146.507 44.4767 146.766C44.58 147.016 44.7054 147.245 44.8678 147.437C45.0301 147.629 45.1924 147.791 45.3769 147.917C45.554 148.049 45.6942 148.145 45.8196 148.226L48.4536 149.887L47.0594 152.093L44.2778 150.344C43.5178 149.864 42.898 149.348 42.3963 148.787C41.9019 148.233 41.5477 147.628 41.3263 147.009C41.1123 146.382 41.0532 145.732 41.1565 145.054C41.2597 144.375 41.5474 143.674 41.9974 142.944C42.5801 142.021 43.281 141.38 44.0925 141.011C44.9115 140.649 45.8263 140.561 46.8519 140.76C47.87 140.952 48.9915 141.439 50.2163 142.206L52.4077 143.586L52.4224 143.572ZM56.5613 141.661L49.1622 153.413L46.292 151.606L53.6985 139.861L56.5613 141.661Z" fill="#E73928"/>
<path d="M44.8591 133.898L34.9957 143.673L30.8489 139.482C30.3619 138.995 29.9561 138.501 29.6093 138.007C29.2625 137.512 28.9968 137.011 28.7976 136.516C28.5983 136.022 28.4876 135.528 28.4581 135.041C28.4285 134.554 28.5023 134.082 28.6793 133.639C28.849 133.189 29.144 132.761 29.5498 132.355C29.8892 132.016 30.2507 131.772 30.6417 131.603C31.0327 131.433 31.4458 131.359 31.8811 131.367C32.3164 131.374 32.7665 131.485 33.2313 131.699C33.6961 131.913 34.1831 132.208 34.6849 132.592L34.8914 132.385C34.3897 131.765 34.0797 131.19 33.9616 130.688C33.8435 130.186 33.8656 129.677 34.0132 129.19C34.168 128.696 34.3967 128.172 34.7213 127.612L36.1377 125.088L38.7866 127.767L37.3923 130.002C37.0899 130.467 36.8907 130.888 36.8317 131.256C36.7727 131.625 36.8023 131.979 36.9498 132.304C37.0974 132.629 37.3483 132.983 37.7025 133.337L39.1487 134.783L42.4758 131.486L44.8739 133.884L44.8591 133.898ZM37.3707 136.561L36.0795 135.27C35.9172 135.108 35.7475 134.938 35.5482 134.739C35.349 134.554 35.1277 134.392 34.8842 134.237C34.6407 134.082 34.3898 133.979 34.1242 133.92C33.8586 133.861 33.5783 133.861 33.2979 133.934C33.0176 134.008 32.7298 134.193 32.42 134.488C32.1323 134.775 31.9405 135.056 31.8593 135.343C31.7708 135.624 31.7635 135.897 31.8151 136.155C31.8668 136.413 31.9627 136.642 32.0734 136.856C32.1915 137.062 32.3243 137.254 32.4645 137.409C32.6121 137.572 32.7228 137.697 32.7965 137.771L34.4493 139.424L37.356 136.546L37.3707 136.561Z" fill="#E73928"/>
<path d="M34.9791 123.059L23.6031 131.027L21.6182 128.201L32.9943 120.234L34.9791 123.059Z" fill="#E73928"/>
<path d="M31.0315 117.74L18.3936 123.486L16.5635 119.457L22.62 110.258L22.5315 110.066L14.1136 114.071L12.7411 111.061L25.3789 105.315L27.0467 108.974L20.6951 118.75L20.791 118.963L29.6589 114.729L31.0315 117.74Z" fill="#E73928"/>
<path d="M13.9506 105.277L11.1839 105.83L8.9696 94.645L11.7363 94.092L13.9506 105.277ZM24.0357 99.206L10.4089 101.897L9.752 98.555L23.3788 95.863L24.0357 99.206Z" fill="#E73928"/>
<path d="M22.8097 84.302C22.795 85.217 22.6918 86.029 22.5074 86.759C22.323 87.489 22.0501 88.117 21.6886 88.64C21.3271 89.164 20.8845 89.577 20.3459 89.865C19.8074 90.153 19.1876 90.33 18.4867 90.381L17.5495 87.378C18.1545 87.349 18.6561 87.187 19.0545 86.906C19.4529 86.626 19.748 86.242 19.9472 85.748C20.1463 85.254 20.2496 84.708 20.2569 84.095C20.2716 83.52 20.1978 83.033 20.0576 82.642C19.9174 82.251 19.7329 81.948 19.5115 81.742C19.2975 81.528 19.0467 81.425 18.7811 81.424C18.4712 81.424 18.213 81.55 18.0064 81.815C17.7999 82.081 17.6155 82.443 17.4679 82.9C17.3204 83.357 17.1582 83.889 17.0106 84.494C16.8263 85.194 16.6345 85.873 16.4206 86.53C16.2067 87.186 15.9411 87.791 15.6239 88.33C15.3067 88.869 14.8936 89.296 14.3919 89.606C13.8902 89.916 13.2558 90.064 12.5032 90.049C11.6474 90.034 10.9022 89.805 10.2824 89.362C9.66258 88.92 9.17558 88.27 8.82878 87.422C8.48188 86.573 8.31949 85.54 8.34159 84.323C8.36359 83.121 8.55528 82.088 8.91678 81.239C9.27818 80.391 9.78718 79.7342 10.4291 79.2842C11.0709 78.8342 11.8087 78.5982 12.635 78.5835L13.4321 81.623C13.0263 81.616 12.6648 81.682 12.355 81.8C12.0451 81.933 11.7869 82.103 11.5803 82.339C11.3738 82.56 11.2115 82.855 11.1008 83.202C10.9902 83.549 10.9312 83.947 10.9238 84.382C10.9165 84.921 10.9682 85.356 11.0789 85.718C11.1896 86.079 11.3445 86.352 11.5511 86.544C11.7504 86.743 11.9865 86.832 12.2447 86.839C12.5767 86.847 12.8644 86.707 13.0784 86.419C13.2997 86.139 13.4841 85.748 13.6464 85.261C13.8013 84.766 13.9562 84.228 14.1037 83.623C14.2364 83.018 14.4061 82.405 14.6052 81.764C14.8117 81.129 15.0699 80.531 15.3871 79.9781C15.7117 79.4174 16.1322 78.9822 16.656 78.6502C17.1798 78.3183 17.8364 78.1634 18.648 78.1782C19.5186 78.193 20.2712 78.4292 20.8983 78.8941C21.5255 79.3589 22.0125 80.052 22.3446 80.96C22.6767 81.868 22.8317 82.982 22.8097 84.302Z" fill="#E73928"/>
<path d="M26.2535 64.8174C25.9069 65.8725 25.4495 66.7578 24.8889 67.4807C24.3282 68.2037 23.6716 68.757 22.9043 69.1406C22.1371 69.5242 21.2886 69.7233 20.3516 69.7454C19.4146 69.7675 18.3964 69.5903 17.2897 69.2213C16.1683 68.8523 15.2312 68.3727 14.4713 67.775C13.7113 67.1773 13.121 66.4985 12.7151 65.7238C12.3093 64.9491 12.0805 64.1301 12.0288 63.2373C11.9844 62.352 12.1245 61.415 12.4417 60.4485C12.6999 59.6886 13.0244 59.0247 13.4228 58.4492C13.8285 57.8811 14.2933 57.4164 14.8245 57.077C15.3557 56.7377 15.9238 56.5238 16.5287 56.45C17.1337 56.3763 17.7756 56.4428 18.4175 56.6568L18.189 59.8809C17.6578 59.7038 17.1783 59.6669 16.743 59.7775C16.3151 59.8808 15.9462 60.0873 15.6437 60.375C15.3486 60.6701 15.1199 61.0169 14.9872 61.43C14.8765 61.7768 14.8249 62.153 14.8545 62.5515C14.884 62.9499 15.0168 63.3483 15.2456 63.7393C15.4743 64.1304 15.8359 64.5067 16.3007 64.8535C16.7729 65.2077 17.4001 65.5102 18.1896 65.7685C19.2151 66.1154 20.0931 66.2409 20.8383 66.1598C21.5834 66.0787 22.181 65.8352 22.6532 65.4369C23.1327 65.0311 23.472 64.5147 23.6859 63.8729C23.9072 63.1941 23.9367 62.6186 23.767 62.139C23.5972 61.6595 23.3021 61.261 22.9036 60.9511C22.4978 60.6338 22.0551 60.3977 21.5756 60.2427L22.9476 57.5721C23.6633 57.8156 24.3052 58.1329 24.866 58.5313C25.4267 58.9298 25.8694 59.4315 26.1867 60.0144C26.5114 60.6047 26.6812 61.2908 26.7034 62.095C26.7256 62.8992 26.5633 63.7993 26.2314 64.8101L26.2535 64.8174Z" fill="#E73928"/>
<path d="M32.4351 51.9213C31.904 52.7771 31.2843 53.4706 30.5908 53.987C29.8973 54.5181 29.1448 54.8575 28.3259 55.0271C27.507 55.1967 26.6437 55.1745 25.7141 54.9678C24.7918 54.7686 23.8327 54.3405 22.8292 53.7207C21.4273 52.8352 20.4312 51.8687 19.8262 50.8062C19.2211 49.7437 18.9701 48.637 19.066 47.4787C19.1544 46.3277 19.5527 45.2063 20.2314 44.1145C20.7551 43.2808 21.3601 42.6021 22.0609 42.0783C22.7544 41.5472 23.5069 41.2078 24.3259 41.0382C25.1448 40.8686 26.0154 40.8982 26.9524 41.1122C27.8894 41.3263 28.856 41.7469 29.852 42.3741C30.885 43.0234 31.6966 43.7318 32.2869 44.4844C32.8846 45.2444 33.2757 46.0338 33.475 46.8528C33.6743 47.6717 33.6743 48.5128 33.4899 49.376C33.3056 50.2392 32.9515 51.0803 32.4277 51.9139L32.4351 51.9213ZM30.229 50.4087C30.4282 50.0914 30.5757 49.7373 30.6495 49.3537C30.7306 48.9774 30.7158 48.5642 30.6124 48.1363C30.5017 47.701 30.2509 47.2583 29.8672 46.8008C29.4835 46.3434 28.9227 45.8859 28.1849 45.4284C27.2995 44.8676 26.4805 44.5208 25.7649 44.3805C25.0418 44.2477 24.4073 44.2919 23.8687 44.5205C23.3302 44.7492 22.8801 45.1402 22.5408 45.6862C22.3564 45.9886 22.2162 46.3206 22.1277 46.7043C22.0392 47.0879 22.0466 47.4937 22.15 47.9364C22.2533 48.3791 22.5042 48.8365 22.8879 49.3087C23.2789 49.7883 23.8618 50.268 24.6513 50.7623C25.3891 51.2198 26.0532 51.5297 26.6361 51.6847C27.2189 51.8397 27.7428 51.8767 28.1928 51.8103C28.6502 51.7366 29.0486 51.5743 29.388 51.3235C29.7274 51.0726 30.0077 50.7628 30.229 50.4087Z" fill="#E73928"/>
<path d="M42.2172 39.8961C41.4869 40.5969 40.7196 41.1133 39.9228 41.4527C39.126 41.792 38.3071 41.9468 37.466 41.9025C36.6323 41.8655 35.7912 41.6294 34.9501 41.2014C34.109 40.7734 33.2752 40.1314 32.4636 39.2903C31.3199 38.0876 30.582 36.9071 30.272 35.7266C29.9473 34.5461 29.9767 33.4099 30.3455 32.318C30.7143 31.2261 31.3709 30.2301 32.3004 29.3448C33.0086 28.6661 33.7685 28.1571 34.5653 27.8178C35.3621 27.4785 36.1884 27.331 37.0221 27.3679C37.8558 27.4049 38.6969 27.6411 39.5528 28.0838C40.4013 28.5192 41.2424 29.1685 42.0541 30.0097C42.8952 30.8951 43.5077 31.7731 43.8988 32.6511C44.2825 33.5365 44.4744 34.3924 44.4671 35.2408C44.4598 36.0893 44.2533 36.9008 43.8697 37.6976C43.4788 38.487 42.9328 39.2248 42.2246 39.9035L42.2172 39.8961ZM40.4464 37.8892C40.7119 37.6236 40.9406 37.3211 41.1103 36.9743C41.28 36.6276 41.3685 36.2292 41.3684 35.7865C41.3684 35.3439 41.2429 34.8495 40.9773 34.3183C40.719 33.7797 40.2837 33.1968 39.686 32.5696C38.9555 31.8096 38.2619 31.2784 37.5905 30.9611C36.9265 30.6511 36.2994 30.5404 35.7091 30.6289C35.1263 30.7247 34.6025 30.9829 34.1377 31.4329C33.8869 31.6838 33.6729 31.9715 33.4885 32.3182C33.3041 32.665 33.2156 33.0634 33.2082 33.5135C33.2009 33.9635 33.3337 34.4652 33.5846 35.026C33.8429 35.5793 34.2931 36.1917 34.935 36.8632C35.5327 37.4903 36.1008 37.9552 36.632 38.2356C37.1633 38.516 37.6502 38.6931 38.1224 38.7374C38.5798 38.7817 39.0077 38.7228 39.3987 38.5679C39.7898 38.413 40.1439 38.1769 40.4464 37.8892Z" fill="#E73928"/>
<path d="M49.1741 33.4558L42.2821 21.3997L45.2183 19.7178L48.229 24.9859C48.679 24.3883 49.0404 23.7464 49.3207 23.0677C49.6011 22.389 49.7928 21.6955 49.9108 21.002C50.0288 20.3084 50.0582 19.6297 50.0287 18.9657C49.9991 18.3016 49.9031 17.6892 49.7482 17.1359L53.1492 15.1958C53.3337 15.8524 53.4223 16.5607 53.4298 17.3354C53.4372 18.1101 53.3561 18.8848 53.2012 19.6742C53.0464 20.4636 52.8177 21.2088 52.5227 21.9318C52.2276 22.6548 51.8735 23.2893 51.4604 23.8499L51.6154 24.1229C52.3015 23.7172 52.936 23.4664 53.5114 23.3632C54.0869 23.2747 54.6107 23.2821 55.0903 23.4076C55.5699 23.533 56.0126 23.7249 56.4184 23.9832C56.8242 24.2414 57.2152 24.5292 57.5915 24.8465L60.2552 27.1265L56.9131 29.0371L54.9283 27.0965C54.5667 26.735 54.1905 26.4472 53.8142 26.2185C53.4379 25.9897 52.9878 25.8938 52.4861 25.9232C51.977 25.9601 51.3499 26.1888 50.5974 26.6166L49.535 27.2215L52.1398 31.7739L49.2036 33.4558H49.1741Z" fill="#E73928"/>
<path d="M62.3873 26.411L58.3357 13.123L61.5966 12.1346L65.6483 25.4226L62.3873 26.411ZM64.7482 25.6881L63.9437 23.0542L72.0371 20.5833L72.8416 23.2172L64.7482 25.6881ZM63.0582 20.1767L62.3423 17.8231L69.4323 15.662L70.1482 18.0156L63.0582 20.1767ZM61.4862 15.0194L60.6892 12.4075L68.7383 9.95142L69.5353 12.5632L61.4862 15.0194Z" fill="#E73928"/>
<path d="M75.4386 22.7158L74.4783 8.85991L77.8573 8.62411L78.8176 22.48L75.4386 22.7158ZM77.0174 22.6126L76.8327 19.8606L80.802 19.5806C81.23 19.5511 81.651 19.4552 82.034 19.3077C82.418 19.1602 82.757 18.9094 83.037 18.5848C83.318 18.2602 83.524 17.8175 83.664 17.2642C83.805 16.7109 83.849 16.0321 83.79 15.2205C83.731 14.4384 83.605 13.7818 83.399 13.2506C83.192 12.7193 82.926 12.3062 82.594 11.9889C82.262 11.6716 81.864 11.465 81.384 11.3543C80.912 11.2509 80.388 11.214 79.7906 11.2509L76.2418 11.494L76.0571 8.74211L79.4805 8.50621C81.192 8.38831 82.609 8.56551 83.73 9.03781C84.852 9.51011 85.708 10.2332 86.291 11.2145C86.873 12.1958 87.213 13.3911 87.309 14.8003C87.383 15.8922 87.317 16.844 87.103 17.6629C86.889 18.4818 86.586 19.1679 86.181 19.736C85.775 20.3041 85.295 20.7688 84.742 21.1451C84.181 21.5139 83.591 21.7942 82.964 21.9786C82.337 22.163 81.71 22.2736 81.105 22.3178L77.0322 22.5978L77.0174 22.6126Z" fill="#E73928"/>
<path d="M97.506 22.8873L98.715 8.7218L102.256 9.814L100.759 20.8439L100.981 20.9177L106.381 11.0908L110.446 12.338L109.407 23.5154L109.628 23.5892L114.615 13.6295L117.957 14.6553L110.978 27.0348L106.478 25.6474L107.613 14.5216L107.436 14.4626L102.139 24.3043L97.535 22.8873H97.506Z" fill="#E73928"/>
<path d="M115.538 29.647L122.421 17.5847L125.416 19.2967L118.534 31.359L115.538 29.647Z" fill="#E73928"/>
<path d="M123.529 34.7311L132.131 23.8273L134.802 25.9375L126.2 36.8414L123.521 34.7237L123.529 34.7311ZM127.246 23.5612L128.987 21.348L137.945 28.4168L136.204 30.63L127.246 23.5612Z" fill="#E73928"/>
<path d="M130.959 40.8332L141.767 32.1061L143.899 34.7402L133.091 43.4673L130.959 40.8332ZM136.604 47.8206L147.412 39.0935L149.544 41.7275L138.736 50.4547L136.604 47.8206ZM136.647 38.9081L138.779 37.1892L143.989 43.6379L141.856 45.3568L136.647 38.9081Z" fill="#E73928"/>
<path d="M142.536 57.5157L155.366 52.1973L156.665 55.3257L143.835 60.6441L142.536 57.5157ZM142.772 58.0764L145.399 56.9847L148.616 64.7466L145.99 65.8383L142.772 58.0764Z" fill="#E73928"/>
<path d="M147.328 99.533L149.984 100.271L147.735 108.424L145.079 107.686L147.328 99.533ZM147.977 97.158L161.368 100.855L160.461 104.138L147.07 100.441L147.977 97.158ZM152.884 101.061L155.252 101.718L153.283 108.852L150.915 108.195L152.884 101.061ZM158.071 102.5L160.705 103.231L158.462 111.346L155.828 110.616L158.071 102.5Z" fill="#E73928"/>
<path d="M147.481 73.6148C147.289 72.6261 147.274 71.6965 147.422 70.8407C147.569 69.9848 147.894 69.2176 148.381 68.5388C148.867 67.8601 149.517 67.2847 150.336 66.8052C151.154 66.3257 152.136 65.979 153.301 65.7578C154.925 65.448 156.326 65.4777 157.485 65.854C158.65 66.223 159.587 66.865 160.303 67.7725C161.019 68.6801 161.499 69.7647 161.735 71.0337C161.919 72.0002 161.934 72.9151 161.787 73.7709C161.639 74.6267 161.315 75.394 160.828 76.0727C160.341 76.7515 159.684 77.3343 158.858 77.8064C158.024 78.2859 157.036 78.6399 155.877 78.8538C154.675 79.0824 153.605 79.1192 152.653 78.9642C151.702 78.8092 150.875 78.4992 150.174 78.0344C149.473 77.5695 148.89 76.9571 148.44 76.1971C147.99 75.4372 147.665 74.5665 147.481 73.6148ZM150.122 73.2166C150.196 73.5855 150.329 73.9396 150.528 74.2716C150.727 74.6037 151.015 74.8914 151.391 75.1349C151.768 75.3784 152.247 75.5334 152.837 75.6073C153.428 75.6811 154.151 75.6369 155.007 75.4746C156.039 75.2829 156.873 74.9805 157.493 74.5969C158.12 74.2059 158.555 73.7411 158.791 73.2099C159.035 72.6714 159.086 72.0885 158.968 71.454C158.902 71.1073 158.769 70.7678 158.577 70.4284C158.385 70.089 158.097 69.7865 157.721 69.543C157.345 69.2995 156.85 69.1298 156.245 69.0412C155.64 68.9526 154.881 69.0042 153.973 69.1738C153.117 69.336 152.424 69.5573 151.893 69.8524C151.361 70.1327 150.956 70.4647 150.668 70.8262C150.38 71.1877 150.196 71.5787 150.122 71.9918C150.048 72.405 150.048 72.8182 150.122 73.2313V73.2166Z" fill="#E73928"/>
<path d="M148.928 85.818L163.012 81.946L162.85 85.649L151.673 88.179L151.658 88.474L162.556 91.98L162.386 95.661L148.714 90.518L148.928 85.833V85.818Z" fill="#E73928"/>
</svg>
