<svg width="213" height="227" viewBox="0 0 213 227" fill="none" xmlns="http://www.w3.org/2000/svg">
<path d="M167.691 134.769C163.596 134.318 159.501 134.68 155.444 135.328C155.348 135.336 155.326 135.314 155.37 135.225C168.014 114.066 166.042 87.5131 150.406 68.4398C140.43 56.2802 125.083 48.3697 109.368 47.5126C94.3027 46.685 79.3776 51.4425 67.8467 61.4533C49.8975 77.0413 43.1636 101.927 51.023 124.408C57.2662 142.278 71.4625 155.618 89.561 160.983C89.6643 161.013 89.6643 161.057 89.5831 161.123C87.0526 162.916 75.8684 170.529 79.4249 174.661C82.4354 178.158 94.1513 176.345 98.1649 175.578C105.284 174.228 112.205 172.296 119.088 170.046C130.929 166.159 142.321 161.246 153.276 155.293C157.607 152.94 161.724 150.284 165.656 147.326C167.913 145.629 176.191 138.724 170.93 135.78C169.934 135.226 168.864 134.88 167.691 134.754L167.691 134.769ZM75.468 59.8382C103.252 41.5285 140.85 51.9051 155.107 82.0525C155.144 82.1189 155.122 82.1558 155.041 82.1631C149.079 82.3545 143.17 83.8517 137.437 85.4079C137.356 85.4301 137.312 85.4005 137.297 85.3268C136.382 80.8557 135.74 76.3329 135.378 71.7807C135.363 71.6184 135.274 71.5446 135.119 71.552L103.83 73.0176C103.83 73.0176 103.8 73.0176 103.793 73.0249C103.786 73.0323 103.771 73.0471 103.756 73.0471C103.756 73.0471 103.741 73.0618 103.734 73.0692C103.734 73.0692 103.734 73.0692 103.727 73.0766L103.704 73.0987C103.697 73.1061 103.697 73.1208 103.697 73.1356L104.17 79.2888C104.17 79.2888 104.155 79.3036 104.148 79.311L104.14 79.3036C103.513 78.6174 102.915 77.8869 102.34 77.1196C100.06 74.0723 97.7502 71.0545 95.3964 68.0663C95.3448 68.0146 95.3005 67.9999 95.2341 68.022C94.1201 68.4719 93.0651 69.0105 92.0617 69.6449C90.8518 70.3973 90.0403 70.8989 89.6124 71.1202C81.7553 75.3324 74.0457 79.7806 66.2328 84.0665C62.8908 85.9033 59.7406 88.1091 56.2289 89.6434L56.2141 89.6581C56.2141 89.6581 56.2067 89.6655 56.1994 89.6729C56.1994 89.6729 56.192 89.6803 56.1846 89.6877C56.1772 89.695 56.1772 89.695 56.1698 89.7024C56.1698 89.7024 56.1625 89.7098 56.1551 89.7171C56.1477 89.7245 56.1477 89.7393 56.1477 89.754C56.1477 89.754 56.1625 89.7688 56.1625 89.7836C56.1625 89.7836 56.1772 89.7983 56.1846 89.8057L64.1095 102.039C64.1538 102.113 64.1464 102.194 64.0948 102.231C63.5562 102.666 63.0398 102.991 62.5529 103.212C59.8527 104.377 57.1451 105.476 54.4375 106.502C54.3415 106.539 54.3194 106.605 54.3785 106.694L60.5177 116.654C60.562 116.728 60.5472 116.787 60.4735 116.831C58.0684 118.233 55.8183 119.849 53.7378 121.708C53.6788 121.767 53.6346 121.752 53.6124 121.671C46.4539 98.6067 55.1946 73.1315 75.4901 59.757L75.468 59.8382ZM65.3339 97.1549C63.9909 95.1922 62.6922 93.2001 61.4452 91.1858C61.4083 91.1194 61.423 91.0751 61.4894 91.0382C62.7215 90.4407 64.0199 89.5555 65.0233 89.0096C72.1648 85.0999 79.2768 81.1312 86.3592 77.1182C88.4028 75.96 90.6825 74.8167 92.8441 73.6438C93.3311 73.3782 93.8549 73.2085 94.3713 73.002C94.4525 72.9651 94.5558 72.9946 94.6074 73.061C102.104 83.2137 110.132 92.9385 118.699 102.213C119.348 102.922 119.953 103.704 120.536 104.449C120.632 104.574 120.757 104.656 120.898 104.692C120.92 104.7 120.942 104.707 120.949 104.729C120.949 104.729 120.957 104.737 120.964 104.744C120.971 104.751 120.971 104.766 120.971 104.781C120.971 104.81 120.949 104.833 120.912 104.84C107.979 110.394 94.8028 115.292 81.368 119.519C81.2352 119.563 81.0802 119.511 81.0065 119.393C75.6568 112.022 70.4326 104.6 65.3338 97.1106L65.3339 97.1549ZM76.9634 120.5C76.9634 120.5 76.9782 120.514 76.9782 120.529C76.9782 120.544 76.9782 120.559 76.9708 120.581L76.9561 120.596C76.9561 120.596 76.9487 120.603 76.9413 120.61C76.9339 120.618 76.9266 120.625 76.9192 120.632C76.9044 120.647 76.897 120.655 76.8675 120.655C74.5657 121.245 72.3007 121.812 70.0947 122.351C69.5488 122.484 69.4897 122.292 69.1798 121.952C65.6086 118.101 62.2733 112.7 59.7866 108.487C59.7423 108.413 59.7571 108.354 59.8309 108.31C60.8195 107.734 61.8376 107.233 62.8778 106.798C63.9845 106.34 65.0616 105.691 66.1978 105.263C66.3232 105.212 66.4634 105.263 66.5298 105.374C69.8798 110.495 73.2814 115.563 76.9561 120.448C76.9634 120.455 76.9708 120.463 76.9708 120.477L76.9634 120.5ZM115.688 93.3743C113.327 90.7328 111.157 87.8995 108.958 85.1104C108.737 84.83 108.538 84.4537 108.486 84.107C108.117 81.6132 107.844 79.1416 107.652 76.6773C107.645 76.6552 107.652 76.6331 107.659 76.611C107.659 76.611 107.674 76.5962 107.674 76.5814C107.696 76.5593 107.718 76.5372 107.74 76.515C107.74 76.515 107.755 76.5003 107.777 76.5076L131.888 75.4325C131.969 75.4252 132.014 75.4694 132.021 75.5506C132.907 82.8843 134.169 89.7828 135.793 96.246C135.845 96.4452 135.881 96.6149 135.881 96.7477C135.889 96.8436 135.852 96.91 135.763 96.9542L124.505 102.723C124.38 102.789 124.218 102.76 124.114 102.656C121.281 99.6164 118.462 96.5322 115.651 93.3816L115.688 93.3743ZM113.789 153.799C106.677 154.168 99.6902 153.437 92.8212 151.584C84.1003 149.237 76.0065 145.821 69.0043 140.087C68.8494 139.962 68.8198 139.977 68.9379 140.154C72.0887 144.868 75.9773 149.952 80.6257 153.789C80.6331 153.796 80.6478 153.811 80.6331 153.826C80.6257 153.833 80.611 153.848 80.5962 153.833C75.2249 151.162 70.3994 147.502 66.2674 143.164C62.1427 138.832 58.719 133.815 56.1657 128.414C56.1288 128.348 56.151 128.311 56.2248 128.311C59.1759 128.252 61.9057 127.957 64.4289 127.412C73.4667 125.472 82.4749 122.78 91.4979 119.704C108.85 113.788 126.748 106.545 143.437 97.8993C148.424 95.3174 153.389 92.5364 157.683 88.8773C157.742 88.8182 157.786 88.833 157.808 88.9142C161.86 102.099 161.057 116.375 154.993 128.843C154.359 130.156 153.599 131.403 152.728 132.598C143.662 145 129.195 153.004 113.767 153.807L113.789 153.799Z" fill="#E73928"/>
<path d="M95.5178 107.509C96.322 106.867 97.0597 106.129 97.6425 105.281C99.4425 102.625 99.8333 99.6516 99.3239 96.2946C98.9031 93.5573 97.1838 90.2445 94.358 89.381C90.7058 88.2667 88.6846 91.8227 88.1388 94.818L87.9839 94.9287C85.7853 94.412 82.0151 93.8731 80.215 95.6289C78.9756 96.8388 79.1086 98.9489 79.7064 100.447C80.6067 102.734 83.0637 104.63 85.2255 105.641C87.8079 106.837 91.128 107.486 94.1087 107.531L95.5178 107.509Z" fill="#E73928"/>
<path d="M136.715 184.855C92.8771 201.953 43.2956 180.199 26.1899 136.358C9.08417 92.5168 30.8301 42.939 74.6682 25.8407C118.506 8.74238 168.088 30.4967 185.194 74.3378C202.299 118.179 180.553 167.757 136.715 184.855ZM75.8416 28.8289C33.6486 45.2854 12.7215 92.9967 29.1926 135.185C45.6637 177.373 93.3711 198.316 135.564 181.859C177.757 165.403 198.684 117.692 182.22 75.4958C165.757 33.3001 118.042 12.3649 75.8563 28.8289L75.8416 28.8289Z" fill="#E73928"/>
<path d="M72.4223 163.572L71.0281 165.777L68.7113 164.316C68.5121 164.191 68.2908 164.058 68.0546 163.925C67.8185 163.792 67.5677 163.689 67.2947 163.608C67.0291 163.534 66.7561 163.512 66.4757 163.542C66.1954 163.571 65.9298 163.689 65.6494 163.881C65.3765 164.08 65.1109 164.375 64.8527 164.796C64.5945 165.201 64.447 165.57 64.4027 165.895C64.3585 166.22 64.3806 166.507 64.4766 166.766C64.5799 167.016 64.7053 167.245 64.8677 167.437C65.03 167.629 65.1923 167.791 65.3768 167.917C65.5539 168.049 65.6941 168.145 65.8195 168.226L68.4535 169.887L67.0593 172.093L64.2777 170.344C63.5177 169.864 62.8979 169.348 62.3962 168.787C61.9018 168.233 61.5476 167.628 61.3262 167.009C61.1122 166.382 61.0531 165.732 61.1564 165.054C61.2596 164.375 61.5473 163.674 61.9973 162.944C62.58 162.021 63.2809 161.38 64.0924 161.011C64.9114 160.649 65.8262 160.561 66.8518 160.76C67.8699 160.952 68.9914 161.439 70.2162 162.206L72.4076 163.586L72.4223 163.572ZM76.5612 161.661L69.1621 173.413L66.2919 171.606L73.6984 159.861L76.5612 161.661Z" fill="#E73928"/>
<path d="M64.8591 153.898L54.9957 163.673L50.8489 159.482C50.3619 158.995 49.9561 158.501 49.6093 158.007C49.2625 157.512 48.9968 157.011 48.7976 156.516C48.5983 156.022 48.4876 155.528 48.4581 155.041C48.4285 154.554 48.5023 154.082 48.6793 153.639C48.849 153.189 49.144 152.761 49.5498 152.355C49.8892 152.016 50.2507 151.772 50.6417 151.603C51.0327 151.433 51.4458 151.359 51.8811 151.367C52.3164 151.374 52.7665 151.485 53.2313 151.699C53.6961 151.913 54.1831 152.208 54.6849 152.592L54.8914 152.385C54.3897 151.765 54.0797 151.19 53.9616 150.688C53.8435 150.186 53.8656 149.677 54.0132 149.19C54.168 148.696 54.3967 148.172 54.7213 147.612L56.1377 145.088L58.7866 147.767L57.3923 150.002C57.0899 150.467 56.8907 150.888 56.8317 151.256C56.7727 151.625 56.8023 151.979 56.9498 152.304C57.0974 152.629 57.3483 152.983 57.7025 153.337L59.1487 154.783L62.4758 151.486L64.8739 153.884L64.8591 153.898ZM57.3707 156.561L56.0795 155.27C55.9172 155.108 55.7475 154.938 55.5482 154.739C55.349 154.554 55.1277 154.392 54.8842 154.237C54.6407 154.082 54.3898 153.979 54.1242 153.92C53.8586 153.861 53.5783 153.861 53.2979 153.934C53.0176 154.008 52.7298 154.193 52.42 154.488C52.1323 154.775 51.9405 155.056 51.8593 155.343C51.7708 155.624 51.7635 155.897 51.8151 156.155C51.8668 156.413 51.9627 156.642 52.0734 156.856C52.1915 157.062 52.3243 157.254 52.4645 157.409C52.6121 157.572 52.7228 157.697 52.7965 157.771L54.4493 159.424L57.356 156.546L57.3707 156.561Z" fill="#E73928"/>
<path d="M54.9791 143.059L43.6031 151.027L41.6182 148.201L52.9943 140.234L54.9791 143.059Z" fill="#E73928"/>
<path d="M51.0315 137.74L38.3936 143.486L36.5635 139.457L42.62 130.258L42.5315 130.066L34.1136 134.071L32.7411 131.061L45.3789 125.315L47.0467 128.974L40.6951 138.75L40.791 138.963L49.6589 134.729L51.0315 137.74Z" fill="#E73928"/>
<path d="M33.9506 125.277L31.1839 125.83L28.9696 114.645L31.7363 114.092L33.9506 125.277ZM44.0357 119.206L30.4089 121.897L29.752 118.555L43.3788 115.863L44.0357 119.206Z" fill="#E73928"/>
<path d="M42.8097 104.302C42.795 105.217 42.6918 106.029 42.5074 106.759C42.323 107.489 42.0501 108.117 41.6886 108.64C41.3271 109.164 40.8845 109.577 40.3459 109.865C39.8074 110.153 39.1876 110.33 38.4867 110.381L37.5495 107.378C38.1545 107.349 38.6561 107.187 39.0545 106.906C39.4529 106.626 39.748 106.242 39.9472 105.748C40.1463 105.254 40.2496 104.708 40.2569 104.095C40.2716 103.52 40.1978 103.033 40.0576 102.642C39.9174 102.251 39.7329 101.948 39.5115 101.742C39.2975 101.528 39.0467 101.425 38.7811 101.424C38.4712 101.424 38.213 101.55 38.0064 101.815C37.7999 102.081 37.6155 102.443 37.4679 102.9C37.3204 103.357 37.1582 103.889 37.0106 104.494C36.8263 105.194 36.6345 105.873 36.4206 106.53C36.2067 107.186 35.9411 107.791 35.6239 108.33C35.3067 108.869 34.8936 109.296 34.3919 109.606C33.8902 109.916 33.2558 110.064 32.5032 110.049C31.6474 110.034 30.9022 109.805 30.2824 109.362C29.6626 108.92 29.1756 108.27 28.8288 107.422C28.4819 106.573 28.3195 105.54 28.3416 104.323C28.3636 103.121 28.5553 102.088 28.9168 101.239C29.2782 100.391 29.7872 99.7342 30.4291 99.2842C31.0709 98.8342 31.8087 98.5982 32.635 98.5835L33.4321 101.623C33.0263 101.616 32.6648 101.682 32.355 101.8C32.0451 101.933 31.7869 102.103 31.5803 102.339C31.3738 102.56 31.2115 102.855 31.1008 103.202C30.9902 103.549 30.9312 103.947 30.9238 104.382C30.9165 104.921 30.9682 105.356 31.0789 105.718C31.1896 106.079 31.3445 106.352 31.5511 106.544C31.7504 106.743 31.9865 106.832 32.2447 106.839C32.5767 106.847 32.8644 106.707 33.0784 106.419C33.2997 106.139 33.4841 105.748 33.6464 105.261C33.8013 104.766 33.9562 104.228 34.1037 103.623C34.2364 103.018 34.4061 102.405 34.6052 101.764C34.8117 101.129 35.0699 100.531 35.3871 99.9781C35.7117 99.4174 36.1322 98.9822 36.656 98.6502C37.1798 98.3183 37.8364 98.1634 38.648 98.1782C39.5186 98.193 40.2712 98.4292 40.8983 98.8941C41.5255 99.3589 42.0125 100.052 42.3446 100.96C42.6767 101.868 42.8317 102.982 42.8097 104.302Z" fill="#E73928"/>
<path d="M46.2535 84.8174C45.9069 85.8725 45.4495 86.7578 44.8889 87.4807C44.3282 88.2037 43.6716 88.757 42.9043 89.1406C42.1371 89.5242 41.2886 89.7233 40.3516 89.7454C39.4146 89.7675 38.3964 89.5903 37.2897 89.2213C36.1683 88.8523 35.2312 88.3727 34.4713 87.775C33.7113 87.1773 33.121 86.4985 32.7151 85.7238C32.3093 84.9491 32.0805 84.1301 32.0288 83.2373C31.9844 82.352 32.1245 81.415 32.4417 80.4485C32.6999 79.6886 33.0244 79.0247 33.4228 78.4492C33.8285 77.8811 34.2933 77.4164 34.8245 77.077C35.3557 76.7377 35.9238 76.5238 36.5287 76.45C37.1337 76.3763 37.7756 76.4428 38.4175 76.6568L38.189 79.8809C37.6578 79.7038 37.1783 79.6669 36.743 79.7775C36.3151 79.8808 35.9462 80.0873 35.6437 80.375C35.3486 80.6701 35.1199 81.0169 34.9872 81.43C34.8765 81.7768 34.8249 82.153 34.8545 82.5515C34.884 82.9499 35.0168 83.3483 35.2456 83.7393C35.4743 84.1304 35.8359 84.5067 36.3007 84.8535C36.7729 85.2077 37.4001 85.5102 38.1896 85.7685C39.2151 86.1154 40.0931 86.2409 40.8383 86.1598C41.5834 86.0787 42.181 85.8352 42.6532 85.4369C43.1327 85.0311 43.472 84.5147 43.6859 83.8729C43.9072 83.1941 43.9367 82.6186 43.767 82.139C43.5972 81.6595 43.3021 81.261 42.9036 80.9511C42.4978 80.6338 42.0551 80.3977 41.5756 80.2427L42.9476 77.5721C43.6633 77.8156 44.3052 78.1329 44.866 78.5313C45.4267 78.9298 45.8694 79.4315 46.1867 80.0144C46.5114 80.6047 46.6812 81.2908 46.7034 82.095C46.7256 82.8992 46.5633 83.7993 46.2314 84.8101L46.2535 84.8174Z" fill="#E73928"/>
<path d="M52.4351 71.9213C51.904 72.7771 51.2843 73.4706 50.5908 73.987C49.8973 74.5181 49.1448 74.8575 48.3259 75.0271C47.507 75.1967 46.6437 75.1745 45.7141 74.9678C44.7918 74.7686 43.8327 74.3405 42.8292 73.7207C41.4273 72.8352 40.4312 71.8687 39.8262 70.8062C39.2211 69.7437 38.9701 68.637 39.066 67.4787C39.1544 66.3277 39.5527 65.2063 40.2314 64.1145C40.7551 63.2808 41.3601 62.6021 42.0609 62.0783C42.7544 61.5472 43.5069 61.2078 44.3259 61.0382C45.1448 60.8686 46.0154 60.8982 46.9524 61.1122C47.8894 61.3263 48.856 61.7469 49.852 62.3741C50.885 63.0234 51.6966 63.7318 52.2869 64.4844C52.8846 65.2444 53.2757 66.0338 53.475 66.8528C53.6743 67.6717 53.6743 68.5128 53.4899 69.376C53.3056 70.2392 52.9515 71.0803 52.4277 71.9139L52.4351 71.9213ZM50.229 70.4087C50.4282 70.0914 50.5757 69.7373 50.6495 69.3537C50.7306 68.9774 50.7158 68.5642 50.6124 68.1363C50.5017 67.701 50.2509 67.2583 49.8672 66.8008C49.4835 66.3434 48.9227 65.8859 48.1849 65.4284C47.2995 64.8676 46.4805 64.5208 45.7649 64.3805C45.0418 64.2477 44.4073 64.2919 43.8687 64.5205C43.3302 64.7492 42.8801 65.1402 42.5408 65.6862C42.3564 65.9886 42.2162 66.3206 42.1277 66.7043C42.0392 67.0879 42.0466 67.4937 42.15 67.9364C42.2533 68.3791 42.5042 68.8365 42.8879 69.3087C43.2789 69.7883 43.8618 70.268 44.6513 70.7623C45.3891 71.2198 46.0532 71.5297 46.6361 71.6847C47.2189 71.8397 47.7428 71.8767 48.1928 71.8103C48.6502 71.7366 49.0486 71.5743 49.388 71.3235C49.7274 71.0726 50.0077 70.7628 50.229 70.4087Z" fill="#E73928"/>
<path d="M62.2172 59.8961C61.4869 60.5969 60.7196 61.1133 59.9228 61.4527C59.126 61.792 58.3071 61.9468 57.466 61.9025C56.6323 61.8655 55.7912 61.6294 54.9501 61.2014C54.109 60.7734 53.2752 60.1314 52.4636 59.2903C51.3199 58.0876 50.582 56.9071 50.272 55.7266C49.9473 54.5461 49.9767 53.4099 50.3455 52.318C50.7143 51.2261 51.3709 50.2301 52.3004 49.3448C53.0086 48.6661 53.7685 48.1571 54.5653 47.8178C55.3621 47.4785 56.1884 47.331 57.0221 47.3679C57.8558 47.4049 58.6969 47.6411 59.5528 48.0838C60.4013 48.5192 61.2424 49.1685 62.0541 50.0097C62.8952 50.8951 63.5077 51.7731 63.8988 52.6511C64.2825 53.5365 64.4744 54.3924 64.4671 55.2408C64.4598 56.0893 64.2533 56.9008 63.8697 57.6976C63.4788 58.487 62.9328 59.2248 62.2246 59.9035L62.2172 59.8961ZM60.4464 57.8892C60.7119 57.6236 60.9406 57.3211 61.1103 56.9743C61.28 56.6276 61.3685 56.2292 61.3684 55.7865C61.3684 55.3439 61.2429 54.8495 60.9773 54.3183C60.719 53.7797 60.2837 53.1968 59.686 52.5696C58.9555 51.8096 58.2619 51.2784 57.5905 50.9611C56.9265 50.6511 56.2994 50.5404 55.7091 50.6289C55.1263 50.7247 54.6025 50.9829 54.1377 51.4329C53.8869 51.6838 53.6729 51.9715 53.4885 52.3182C53.3041 52.665 53.2156 53.0634 53.2082 53.5135C53.2009 53.9635 53.3337 54.4652 53.5846 55.026C53.8429 55.5793 54.2931 56.1917 54.935 56.8632C55.5327 57.4903 56.1008 57.9552 56.632 58.2356C57.1633 58.516 57.6502 58.6931 58.1224 58.7374C58.5798 58.7817 59.0077 58.7228 59.3987 58.5679C59.7898 58.413 60.1439 58.1769 60.4464 57.8892Z" fill="#E73928"/>
<path d="M69.1741 53.4558L62.2821 41.3997L65.2183 39.7178L68.229 44.9859C68.679 44.3883 69.0404 43.7464 69.3207 43.0677C69.6011 42.389 69.7928 41.6955 69.9108 41.002C70.0288 40.3084 70.0582 39.6297 70.0287 38.9657C69.9991 38.3016 69.9031 37.6892 69.7482 37.1359L73.1492 35.1958C73.3337 35.8524 73.4223 36.5607 73.4298 37.3354C73.4372 38.1101 73.3561 38.8848 73.2012 39.6742C73.0464 40.4636 72.8177 41.2088 72.5227 41.9318C72.2276 42.6548 71.8735 43.2893 71.4604 43.8499L71.6154 44.1229C72.3015 43.7172 72.936 43.4664 73.5114 43.3632C74.0869 43.2747 74.6107 43.2821 75.0903 43.4076C75.5699 43.533 76.0126 43.7249 76.4184 43.9832C76.8242 44.2414 77.2152 44.5292 77.5915 44.8465L80.2552 47.1265L76.9131 49.0371L74.9283 47.0965C74.5667 46.735 74.1905 46.4472 73.8142 46.2185C73.4379 45.9897 72.9878 45.8938 72.4861 45.9232C71.977 45.9601 71.3499 46.1888 70.5974 46.6166L69.535 47.2215L72.1398 51.7739L69.2036 53.4558L69.1741 53.4558Z" fill="#E73928"/>
<path d="M82.3873 46.411L78.3357 33.123L81.5966 32.1346L85.6483 45.4226L82.3873 46.411ZM84.7482 45.6881L83.9437 43.0542L92.0371 40.5833L92.8416 43.2172L84.7482 45.6881ZM83.0582 40.1767L82.3423 37.8231L89.4323 35.662L90.1482 38.0156L83.0582 40.1767ZM81.4862 35.0194L80.6892 32.4075L88.7383 29.9514L89.5353 32.5632L81.4862 35.0194Z" fill="#E73928"/>
<path d="M95.4386 42.7158L94.4783 28.8599L97.8573 28.6241L98.8176 42.48L95.4386 42.7158ZM97.0174 42.6126L96.8327 39.8606L100.802 39.5806C101.23 39.5511 101.651 39.4552 102.034 39.3077C102.418 39.1602 102.757 38.9094 103.037 38.5848C103.318 38.2602 103.524 37.8175 103.664 37.2642C103.805 36.7109 103.849 36.0321 103.79 35.2205C103.731 34.4384 103.605 33.7818 103.399 33.2506C103.192 32.7193 102.926 32.3062 102.594 31.9889C102.262 31.6716 101.864 31.465 101.384 31.3543C100.912 31.2509 100.388 31.214 99.7906 31.2509L96.2418 31.494L96.0571 28.7421L99.4805 28.5062C101.192 28.3883 102.609 28.5655 103.73 29.0378C104.852 29.5101 105.708 30.2332 106.291 31.2145C106.873 32.1958 107.213 33.3911 107.309 34.8003C107.383 35.8922 107.317 36.844 107.103 37.6629C106.889 38.4818 106.586 39.1679 106.181 39.736C105.775 40.3041 105.295 40.7688 104.742 41.1451C104.181 41.5139 103.591 41.7942 102.964 41.9786C102.337 42.163 101.71 42.2736 101.105 42.3178L97.0322 42.5978L97.0174 42.6126Z" fill="#E73928"/>
<path d="M117.506 42.8873L118.715 28.7218L122.256 29.814L120.759 40.8439L120.981 40.9177L126.381 31.0908L130.446 32.338L129.407 43.5154L129.628 43.5892L134.615 33.6295L137.957 34.6553L130.978 47.0348L126.478 45.6474L127.613 34.5216L127.436 34.4626L122.139 44.3043L117.535 42.8873L117.506 42.8873Z" fill="#E73928"/>
<path d="M135.538 49.647L142.421 37.5847L145.416 39.2967L138.534 51.359L135.538 49.647Z" fill="#E73928"/>
<path d="M143.529 54.7311L152.131 43.8273L154.802 45.9375L146.2 56.8414L143.521 54.7237L143.529 54.7311ZM147.246 43.5612L148.987 41.348L157.945 48.4168L156.204 50.63L147.246 43.5612Z" fill="#E73928"/>
<path d="M150.959 60.8332L161.767 52.1061L163.899 54.7402L153.091 63.4673L150.959 60.8332ZM156.604 67.8206L167.412 59.0935L169.544 61.7275L158.736 70.4547L156.604 67.8206ZM156.647 58.9081L158.779 57.1892L163.989 63.6379L161.856 65.3568L156.647 58.9081Z" fill="#E73928"/>
<path d="M162.536 77.5157L175.366 72.1973L176.665 75.3257L163.835 80.6441L162.536 77.5157ZM162.772 78.0764L165.399 76.9847L168.616 84.7466L165.99 85.8383L162.772 78.0764Z" fill="#E73928"/>
<path d="M167.481 93.6148C167.289 92.6261 167.274 91.6965 167.422 90.8407C167.569 89.9848 167.894 89.2176 168.381 88.5388C168.867 87.8601 169.517 87.2847 170.336 86.8052C171.154 86.3257 172.136 85.979 173.301 85.7578C174.925 85.448 176.326 85.4777 177.485 85.854C178.65 86.223 179.587 86.865 180.303 87.7725C181.019 88.6801 181.499 89.7647 181.735 91.0337C181.919 92.0002 181.934 92.9151 181.787 93.7709C181.639 94.6267 181.315 95.394 180.828 96.0727C180.341 96.7515 179.684 97.3343 178.858 97.8064C178.024 98.2859 177.036 98.6399 175.877 98.8538C174.675 99.0824 173.605 99.1192 172.653 98.9642C171.702 98.8092 170.875 98.4992 170.174 98.0344C169.473 97.5695 168.89 96.9571 168.44 96.1971C167.99 95.4372 167.665 94.5665 167.481 93.6148ZM170.122 93.2166C170.196 93.5855 170.329 93.9396 170.528 94.2716C170.727 94.6037 171.015 94.8914 171.391 95.1349C171.768 95.3784 172.247 95.5334 172.837 95.6073C173.428 95.6811 174.151 95.6369 175.007 95.4746C176.039 95.2829 176.873 94.9805 177.493 94.5969C178.12 94.2059 178.555 93.7411 178.791 93.2099C179.035 92.6714 179.086 92.0885 178.968 91.454C178.902 91.1073 178.769 90.7678 178.577 90.4284C178.385 90.089 178.097 89.7865 177.721 89.543C177.345 89.2995 176.85 89.1298 176.245 89.0412C175.64 88.9526 174.881 89.0042 173.973 89.1738C173.117 89.336 172.424 89.5573 171.893 89.8524C171.361 90.1327 170.956 90.4647 170.668 90.8262C170.38 91.1877 170.196 91.5787 170.122 91.9918C170.048 92.405 170.048 92.8182 170.122 93.2313L170.122 93.2166Z" fill="#E73928"/>
<path d="M168.928 105.818L183.012 101.946L182.85 105.649L171.673 108.179L171.658 108.474L182.556 111.98L182.386 115.661L168.714 110.518L168.928 105.833L168.928 105.818Z" fill="#E73928"/>
<path d="M167.328 119.533L169.984 120.271L167.735 128.424L165.079 127.686L167.328 119.533ZM167.977 117.158L181.368 120.855L180.461 124.138L167.07 120.441L167.977 117.158ZM172.884 121.061L175.252 121.718L173.283 128.852L170.915 128.195L172.884 121.061ZM178.071 122.5L180.705 123.231L178.462 131.346L175.828 130.616L178.071 122.5Z" fill="#E73928"/>
</svg>
