<?xml version="1.0" encoding="UTF-8" standalone="no"?>
<!DOCTYPE svg PUBLIC "-//W3C//DTD SVG 1.1//EN" "http://www.w3.org/Graphics/SVG/1.1/DTD/svg11.dtd">
<svg width="100%" height="100%" viewBox="0 0 507 469" version="1.1" xmlns="http://www.w3.org/2000/svg" xmlns:xlink="http://www.w3.org/1999/xlink" xml:space="preserve" xmlns:serif="http://www.serif.com/" style="fill-rule:evenodd;clip-rule:evenodd;stroke-linejoin:round;stroke-miterlimit:2;">
    <g transform="matrix(1,0,0,1,-967.452,-487.19)">
        <g id="COLO" transform="matrix(0.276438,0,0,0.276438,885.142,269.146)">
            <g transform="matrix(1,0,0,0.918738,-26.9734,73.1984)">
                <path d="M480.888,2210.3L1328.57,2608.3L2015.25,2233.6L2139.99,1829.85L1868.26,1011.98L1277.35,796.049L341.18,1263.94L480.888,2210.3Z" style="fill:rgb(248,234,223);"/>
            </g>
            <g transform="matrix(1,0,0,0.918738,-26.9734,73.1984)">
                <path d="M464.433,2213.18L324.725,1266.82L334.226,1247.46L1270.4,779.563L1282.65,778.852L1873.57,994.787L1883.93,1005.82L2155.67,1823.68L2155.79,1835.63L2031.04,2239.38L2022.72,2249.82L1336.04,2624.52L1321.97,2624.96L474.287,2226.96L464.433,2213.18ZM495.892,2197.59L1328.04,2588.3L2001.64,2220.73L2122.34,1830.07L1855.33,1026.39L1278.31,815.534L359.645,1274.68L495.892,2197.59Z"/>
            </g>
            <g id="Calque3" transform="matrix(1,0,0,1,-20.658,-6.33354)">
                <g transform="matrix(1,0,0,0.956244,0,96.6384)">
                    <path d="M864.008,2007.17L1045.54,2083.12L1129.86,2208.59L1539.08,2179.38L1674.76,2049.04L1643.58,1853.47L1622.86,1442.78L1537.87,1247.15L1273.29,1066.17L1006.48,1074.04L698.371,1298.41L722.414,1546.63L814.325,1792.61L864.008,2007.17Z" style="fill:rgb(203,64,58);"/>
                </g>
                <g transform="matrix(1,0,0,0.956244,0,96.6384)">
                    <path d="M847.809,2011.27L798.392,1797.86L706.89,1552.98L705.832,1548.39L681.789,1300.17L688.846,1284.11L996.955,1059.73L1006.01,1056.61L1272.82,1048.74L1282.41,1051.58L1546.99,1232.56L1553.04,1239.94L1638.04,1435.57L1639.51,1441.86L1660.17,1851.58L1691.2,2046.18L1686.04,2061.88L1550.36,2192.22L1540.22,2196.77L1130.99,2225.98L1116.22,2218.61L1034.75,2097.38L857.816,2023.35L847.809,2011.27ZM878.183,1994.33L1051.73,2066.94L1059.18,2073.1L1138.09,2190.53L1532.11,2162.41L1656.84,2042.6L1627.14,1856.34L1626.93,1854.39L1606.39,1446.99L1524.7,1258.96L1268.54,1083.74L1011.92,1091.31L715.94,1306.86L738.766,1542.51L829.849,1786.27L830.524,1788.51L878.183,1994.33Z"/>
                </g>
                <g transform="matrix(0.982396,0.178634,-0.149425,0.751421,318.912,220.544)">
                    <path d="M1164.28,2048.94L1178.41,2009.83C1178.41,2009.83 1291.42,2081.08 1291.42,2081.08L1485.11,2029.31C1485.11,2029.31 1524.56,1983.69 1524.56,1983.69L1519.9,1911.23L1553.18,1908.31L1558.52,1991.51L1553.08,2009.35L1504.22,2065.85L1496.64,2070.79L1293.1,2125.19L1282.42,2123.43L1164.28,2048.94Z"/>
                </g>
                <g transform="matrix(1,0,0,0.956244,0,96.6384)">
                    <path d="M695.466,1774.73L720.596,1920.77L993.701,1941.97L1297.77,1874.79L795.557,1827.36L695.466,1774.73Z"/>
                </g>
                <g transform="matrix(1,0,0,0.956244,0,96.6384)">
                    <path d="M702.954,1759.15L800.212,1810.3L1299.27,1857.43L1301.21,1891.84L997.146,1959.02L992.467,1959.35L719.362,1938.15L704.193,1923.86L679.063,1777.81L702.954,1759.15ZM717.776,1805.97L734.711,1904.39L992.573,1924.4L1185.8,1881.71L794.058,1844.72L788.069,1842.93L717.776,1805.97Z"/>
                </g>
                <g transform="matrix(1,0,0,0.956244,0,96.6384)">
                    <path d="M1372.1,1844.31L1727.36,1781.61L1737.04,1707.91L1800.42,1710.31L1856.42,1761L1788,1881.36L1372.1,1844.31Z"/>
                </g>
                <g transform="matrix(1,0,0,0.956244,0,96.6384)">
                    <path d="M1369.32,1827.12L1712.51,1766.56L1720.53,1705.54L1737.64,1690.5L1801.03,1692.89L1811.33,1697.13L1867.33,1747.82L1870.74,1769.9L1802.32,1890.27L1786.58,1898.73L1370.68,1861.68L1369.32,1827.12ZM1504.52,1838.62L1779.01,1863.07L1834.96,1764.63L1793.95,1727.51L1751.5,1725.9L1743.87,1783.98L1730.13,1798.8L1504.52,1838.62Z"/>
                </g>
                <g transform="matrix(1,0,0,0.956244,0,96.6384)">
                    <path d="M683.899,1431.82L546.013,1481.77L493.013,1577.57L558.559,1628.9L706.878,1517.28" style="fill:rgb(165,101,59);"/>
                </g>
                <g transform="matrix(1,0,0,0.956244,0,96.6384)">
                    <path d="M678.443,1415.35L689.354,1448.29L557.332,1496.11L514.852,1572.9L558.755,1607.28L697.143,1503.13L716.614,1531.42L568.294,1643.05L548.568,1642.85L483.023,1591.52L478.587,1568.84L531.587,1473.04L540.558,1465.3L678.443,1415.35Z"/>
                </g>
                <g transform="matrix(1,0,0,0.956244,0,96.6384)">
                    <path d="M693.136,1520.76L1576.49,1246.52L1542.32,1177.51L1301.55,1029.78L994.476,1070.98L673.077,1296.72L693.136,1520.76Z" style="fill:rgb(187,114,66);"/>
                </g>
                <g transform="matrix(1,0,0,0.956244,0,96.6384)">
                    <path d="M676.542,1522.39L656.483,1298.35L663.785,1282.25L985.184,1056.51L992.356,1053.69L1299.42,1012.49L1309.98,1014.75L1550.75,1162.47L1557.12,1169.49L1591.29,1238.51L1581.23,1263.23L697.879,1537.47L676.542,1522.39ZM707.839,1498.02L1552.42,1235.81L1529.73,1189.99L1298.02,1047.83L1000.5,1087.74L690.595,1305.41L707.839,1498.02Z"/>
                </g>
                <g transform="matrix(0.799306,-0.0182993,0.0239347,0.95597,202.159,129.222)">
                    <path d="M1367.47,1595.71L1489.92,1685.59L1746.57,1674.32L1928.24,1538.74L2137.42,1580.75L2071.86,1772.14L1548.46,1817.08L1299.8,1762.53L1209.09,1828.74" style="fill:rgb(203,64,58);"/>
                </g>
                <g transform="matrix(0.799306,-0.0182993,0.0239347,0.95597,202.159,129.222)">
                    <path d="M1354.67,1607.89L1380.27,1583.53L1496.81,1669.07C1496.81,1669.07 1738.79,1658.45 1738.79,1658.45L1915.36,1526.67L1932.8,1522.99L2141.98,1565.01L2156.04,1585.18L2090.48,1776.57L2073.8,1788.25L1550.39,1833.19L1543.5,1832.75L1304.78,1780.37L1221.81,1840.93L1196.37,1816.55L1287.08,1750.34L1304.76,1746.86L1550.01,1800.67C1550.01,1800.67 2056.86,1757.15 2056.86,1757.15C2056.86,1757.15 2113.24,1592.56 2113.24,1592.56L1933.54,1556.47L1759.45,1686.39L1747.55,1690.49L1490.9,1701.76L1477.13,1697.77L1354.67,1607.89Z"/>
                </g>
                <g transform="matrix(1,0,0,1.06369,-1.30493,-70.9493)">
                    <path d="M1158.44,1390.02L1154.98,1302.09L1244.58,1264.51L1363.03,1277.13L1379.05,1332.5L1158.44,1390.02Z" style="fill:rgb(203,64,58);"/>
                </g>
                <g transform="matrix(1,0,0,1.06369,-1.30493,-70.9493)">
                    <path d="M1141.79,1390.6L1138.32,1302.67L1148.19,1287.78L1237.79,1250.2L1246.45,1248.94L1364.91,1261.56L1379.12,1273.02L1395.13,1328.39L1383.5,1347.6L1162.9,1405.12L1141.79,1390.6ZM1174.32,1369.62L1358.61,1321.57C1358.61,1321.57 1349.92,1291.5 1349.92,1291.5L1247.22,1280.56C1247.22,1280.56 1172.05,1312.09 1172.05,1312.09L1174.32,1369.62Z"/>
                </g>
                <g transform="matrix(1,0,0,0.95453,1.03181,79.9877)">
                    <path d="M1126.63,1350.03L1133.8,1404.52L1381.26,1326.8L1371.27,1284.25L1126.63,1350.03Z" style="fill:rgb(187,114,66);"/>
                </g>
                <g transform="matrix(1,0,0,0.95453,1.03181,79.9877)">
                    <path d="M1122.49,1333.13L1367.13,1267.35L1387.44,1280.08L1397.43,1322.64L1386.04,1343.51L1138.58,1421.23L1117.3,1406.9L1110.14,1352.41L1122.49,1333.13ZM1145.15,1363.06L1147.64,1381.96L1361.31,1314.86C1361.31,1314.86 1359.12,1305.53 1359.12,1305.53L1145.15,1363.06Z"/>
                </g>
                <g transform="matrix(1,0,0,0.956244,0,96.6384)">
                    <path d="M1187.1,1641.28L1155.11,1651.05L1068.08,1339.24L1100.08,1329.47L1187.1,1641.28Z"/>
                </g>
                <g transform="matrix(1.00207,0.0102933,0.0107643,1.00988,-19.9656,-2.84777)">
                    <path d="M1487.04,1581.62L1453.85,1584.6L1429.14,1233.62L1462.33,1230.64L1487.04,1581.62Z"/>
                </g>
                <g transform="matrix(2.13032,0,0,2.13032,-4485.87,-1782.61)">
                    <g id="TYLT" transform="matrix(0.0825296,-0.0249325,0.0249325,0.0825296,2339.57,1429.52)">
                        <g transform="matrix(388.317,0,0,388.317,934.452,1736.13)">
                            <path d="M-0.017,-0.405L-0.022,-0.429L-0.025,-0.453L-0.026,-0.479L-0.029,-0.505L-0.033,-0.527L-0.037,-0.552L-0.035,-0.575L-0.02,-0.592L0.016,-0.604L0.052,-0.613L0.312,-0.672L0.569,-0.706L0.581,-0.672L0.592,-0.63L0.602,-0.586L0.607,-0.544L0.561,-0.532L0.512,-0.522L0.462,-0.512L0.411,-0.498L0.407,-0.423L0.415,-0.344L0.429,-0.265L0.442,-0.182L0.453,-0.099L0.458,-0.022L0.404,-0.02L0.346,-0.019L0.287,-0.017L0.229,-0.013L0.228,-0.017L0.224,-0.128L0.215,-0.236L0.209,-0.343L0.213,-0.459L0.211,-0.46L0.096,-0.428L-0.017,-0.405Z" style="fill-rule:nonzero;"/>
                        </g>
                        <g transform="matrix(388.317,0,0,388.317,1177.91,1736.13)">
                            <path d="M0.016,-0.574L0.064,-0.632L0.123,-0.675L0.184,-0.627L0.24,-0.568L0.294,-0.504L0.349,-0.443L0.364,-0.477L0.387,-0.526L0.415,-0.583L0.445,-0.64L0.472,-0.689L0.491,-0.724L0.533,-0.715L0.581,-0.704L0.628,-0.689L0.665,-0.672L0.645,-0.616L0.609,-0.534L0.564,-0.433L0.514,-0.323L0.462,-0.218L0.404,-0.119L0.349,-0.033L0.306,0.026L0.29,0.024L0.272,0.021L0.254,0.017L0.238,0.013L0.181,-0.003L0.124,-0.015L0.161,-0.089L0.202,-0.162L0.243,-0.232L0.273,-0.294L0.247,-0.317L0.213,-0.348L0.173,-0.387L0.131,-0.428L0.092,-0.47L0.057,-0.511L0.03,-0.546L0.016,-0.574Z" style="fill-rule:nonzero;"/>
                        </g>
                        <g transform="matrix(388.317,0,0,388.317,1435.4,1736.13)">
                            <path d="M0.018,-0.676L0.036,-0.68L0.061,-0.684L0.09,-0.688L0.12,-0.691L0.151,-0.693L0.177,-0.693L0.195,-0.692L0.203,-0.688L0.214,-0.654L0.22,-0.611L0.224,-0.568L0.227,-0.531L0.235,-0.443L0.242,-0.351L0.251,-0.259L0.264,-0.168L0.402,-0.19L0.536,-0.207L0.545,-0.166L0.557,-0.122L0.569,-0.077L0.574,-0.03L0.546,-0.01L0.514,-0.002L0.482,0L0.455,0.001L0.267,0.012L0.08,0.017L0.063,-0.147L0.049,-0.327L0.036,-0.509L0.018,-0.676Z" style="fill-rule:nonzero;"/>
                        </g>
                        <g transform="matrix(388.317,0,0,388.317,1601.68,1736.13)">
                            <path d="M0.005,-0.489L0.002,-0.516L-0,-0.542L-0.002,-0.569L-0.006,-0.597L-0.012,-0.619L-0.017,-0.644L-0.017,-0.667L-0.004,-0.683L0.029,-0.693L0.063,-0.699L0.31,-0.726L0.565,-0.723L0.578,-0.686L0.591,-0.643L0.601,-0.597L0.608,-0.554L0.563,-0.546L0.515,-0.543L0.466,-0.539L0.417,-0.532L0.416,-0.455L0.42,-0.368L0.43,-0.274L0.443,-0.177L0.456,-0.083L0.465,0.001L0.407,0.009L0.345,0.014L0.282,0.019L0.222,0.023L0.222,0.018L0.222,-0.117L0.22,-0.257L0.221,-0.394L0.229,-0.523L0.226,-0.524L0.116,-0.506L0.005,-0.489Z" style="fill-rule:nonzero;"/>
                        </g>
                    </g>
                </g>
            </g>
        </g>
    </g>
</svg>
