<?xml version="1.0" encoding="UTF-8"?><svg id="Calque_2" xmlns="http://www.w3.org/2000/svg" viewBox="0 0 355.52 338.47"><defs><style>.cls-1{fill:#201f25;}.cls-2{fill:#fff;}.cls-2,.cls-3,.cls-4{stroke-linecap:round;stroke-linejoin:round;}.cls-2,.cls-3,.cls-4,.cls-5{stroke:#201f23;stroke-width:6px;}.cls-3{fill:#1d1d1b;}.cls-4{fill:none;}.cls-5{fill:#ffa956;stroke-miterlimit:10;}</style></defs><g id="Calque_1-2"><path class="cls-3" d="M195.13,8.14c-8.86-6.86-24.34-6.86-33.2,0,0,0-153.66,118.4-153.4,118.66-.27.26,57.32,154.18,57.32,154.18,13.55,6.29,236.62,1.13,247.01-4.01l34.33-148.21L195.13,8.14Z"/><rect class="cls-2" x="46.69" y="72.72" width="262.14" height="252.38" rx="12.32" ry="12.32"/><path class="cls-1" d="M71.37,96.94h15.82c-.62,2.94-.94,5.21-.94,6.37,0,2.18.85,3.57,2.14,3.57s2.18-1.38,2.18-3.57c0-1.16-.31-3.43-.94-6.37h15.82c-1.34,7.58-1.34,16.49,0,26.74h-15.82c.67-4.23.98-7.35.98-8.91,0-2.18-.89-3.57-2.23-3.57s-2.18,1.38-2.18,3.57c0,1.56.4,4.68.98,8.91h-15.82c1.34-10.25,1.34-19.17,0-26.74Z"/><path class="cls-1" d="M127.76,113.88c3.03,0,6.37-.45,9.09-1.2-.58,7.58-6.78,11.9-14.58,11.9-9.23,0-14.71-4.9-14.71-12.44s5.93-12.52,15.15-12.52c8.11,0,13.68,3.3,13.68,10.96h-14.35c-1.16,0-1.69.36-1.69,1.07,0,1.29,2.54,2.23,7.4,2.23ZM122.72,108.31c1.51,0,2.23-1.11,2.23-2.41,0-1.47-.71-2.81-2.23-2.81s-2.14,1.34-2.14,2.81c0,1.29.62,2.41,2.14,2.41Z"/><path class="cls-1" d="M153.97,123.68h-15.38c.89-9.23.89-21.97,0-29.86h15.38c-.89,7.89-.89,20.64,0,29.86Z"/><path class="cls-1" d="M170.78,123.68h-15.38c.89-9.23.89-21.97,0-29.86h15.38c-.89,7.89-.89,20.64,0,29.86Z"/><path class="cls-1" d="M172.52,112.14c0-7.18,6.37-12.52,14.44-12.52s14.4,5.35,14.4,12.52-5.84,12.44-14.4,12.44-14.44-5.08-14.44-12.44ZM186.96,110.36c1.65,0,2.45-1.25,2.45-2.67,0-1.6-.8-3.08-2.45-3.08s-2.36,1.47-2.36,3.08c0,1.43.67,2.67,2.36,2.67Z"/><path class="cls-1" d="M71.37,137.09h19.79c9.05,0,12.84,3.7,12.84,10.52,0,5.57-3.61,9-9,9-4.1,0-6.02-2.23-6.02-5.53,0-1.87.62-3.25.62-4.86,0-1.52-.53-2.45-1.65-2.45s-1.74.89-1.74,2.76c0,5.08.22,11.77.98,17.29h-15.82c1.34-10.25,1.34-19.17,0-26.74Z"/><path class="cls-1" d="M123.26,163.83h-16.71c1.34-10.25,1.34-19.17,0-26.74h16.71c-1.34,7.58-1.34,16.49,0,26.74Z"/><path class="cls-1" d="M125.4,137.09h30.84l-.62,7.98c-3.12-1.02-8.11-1.56-11.68-1.56-2.81,0-3.7.58-3.7,1.74,0,.89.71,1.38,1.83,1.38,1.78,0,7.49-.8,11.28-.8v6.2c-4.28,0-9.67-.62-11.54-.62-.94,0-1.52.54-1.52,1.38,0,1.11.8,1.65,4.1,1.65,3.12,0,8.29-.54,11.86-1.43l.98,10.83h-31.82c1.34-10.25,1.34-19.17,0-26.74Z"/><path class="cls-1" d="M160.79,149.44c0-4.46-.36-8.56-1.03-12.35h21.13c7.35,0,12.12,2.99,12.12,8.11,0,4.37-3.7,7.13-8.96,7.13-.76,0-1.47-.09-2.14-.09-.45,0-.71.27-.71.62,0,1.38,2.05,1.87,3.65,1.87,3.17,0,6.37-1.38,8.07-2.81h.18c.53,1.38.8,2.99.8,4.5,0,4.63-3.57,8.29-8.56,8.29-4.68,0-7.35-1.78-8.47-7.84-.22-1.16-.67-1.69-1.29-1.69-.54,0-.85.45-.85,1.11,0,1.6.31,4.41.85,7.53h-15.82c.67-5.13,1.03-9.94,1.03-14.4ZM176.66,150.64c1.38,0,2.23-1.29,2.23-2.99,0-2.05-.76-3.79-2.14-3.79s-2.18,1.74-2.18,3.79c0,1.69.67,2.99,2.09,2.99Z"/><path class="cls-1" d="M196.63,149.44c0-4.46-.36-8.56-1.03-12.35h21.13c7.35,0,12.12,2.99,12.12,8.11,0,4.37-3.7,7.13-8.96,7.13-.76,0-1.47-.09-2.14-.09-.45,0-.71.27-.71.62,0,1.38,2.05,1.87,3.65,1.87,3.17,0,6.37-1.38,8.07-2.81h.18c.53,1.38.8,2.99.8,4.5,0,4.63-3.57,8.29-8.56,8.29-4.68,0-7.35-1.78-8.47-7.84-.22-1.16-.67-1.69-1.29-1.69-.54,0-.85.45-.85,1.11,0,1.6.31,4.41.85,7.53h-15.82c.67-5.13,1.03-9.94,1.03-14.4ZM212.5,150.64c1.38,0,2.23-1.29,2.23-2.99,0-2.05-.76-3.79-2.14-3.79s-2.18,1.74-2.18,3.79c0,1.69.67,2.99,2.09,2.99Z"/><path class="cls-1" d="M231.45,137.09h30.84l-.62,7.98c-3.12-1.02-8.11-1.56-11.68-1.56-2.81,0-3.7.58-3.7,1.74,0,.89.71,1.38,1.83,1.38,1.78,0,7.49-.8,11.28-.8v6.2c-4.28,0-9.67-.62-11.54-.62-.94,0-1.52.54-1.52,1.38,0,1.11.8,1.65,4.1,1.65,3.12,0,8.29-.54,11.86-1.43l.98,10.83h-31.82c1.34-10.25,1.34-19.17,0-26.74Z"/><path class="cls-5" d="M347.19,128.76l-150.22,98.51c-10.38,5.14-19.65,6.29-33.2,0L7.45,127.93s-4.45,4.6-4.45,12.46v169.88c0,13.92,11.29,25.21,25.21,25.21h299.11c13.92,0,25.21-11.29,25.21-25.21v-169.88c0-7.07-5.33-11.63-5.33-11.63Z"/><line class="cls-4" x1="27.28" y1="309.96" x2="97.58" y2="309.96"/><line class="cls-4" x1="27.28" y1="286.73" x2="97.58" y2="286.73"/><line class="cls-4" x1="27.28" y1="263.49" x2="97.58" y2="263.49"/></g></svg>