<svg width="666" height="496" viewBox="0 0 666 496" fill="none" xmlns="http://www.w3.org/2000/svg">
<g clip-path="url(#clip0_202_815)">
<path d="M635.7 15.2002H41.9996C27.4193 15.2002 15.5996 27.0199 15.5996 41.6002V466C15.5996 480.581 27.4193 492.4 41.9996 492.4H635.7C650.28 492.4 662.1 480.581 662.1 466V41.6002C662.1 27.0199 650.28 15.2002 635.7 15.2002Z" fill="#1D1D1B" stroke="#201F23" stroke-width="6" stroke-linecap="round" stroke-linejoin="round"/>
<path d="M622.1 3H28.4C13.8197 3 2 14.8197 2 29.4V453.8C2 468.38 13.8197 480.2 28.4 480.2H622.1C636.68 480.2 648.5 468.38 648.5 453.8V29.4C648.5 14.8197 636.68 3 622.1 3Z" fill="white"/>
<mask id="mask0_202_815" style="mask-type:luminance" maskUnits="userSpaceOnUse" x="2" y="3" width="647" height="478">
<path d="M622.1 3H28.4C13.8197 3 2 14.8197 2 29.4V453.8C2 468.38 13.8197 480.2 28.4 480.2H622.1C636.68 480.2 648.5 468.38 648.5 453.8V29.4C648.5 14.8197 636.68 3 622.1 3Z" fill="white"/>
</mask>
<g mask="url(#mask0_202_815)">
<path d="M657.099 88.2998H422.399V489.3H657.099V88.2998Z" fill="#144FE7"/>
<path d="M421 88.5H-14.2002V485.4H421V88.5Z" fill="#FF5E38"/>
</g>
<path d="M622.1 3H28.4C13.8197 3 2 14.8197 2 29.4V453.8C2 468.38 13.8197 480.2 28.4 480.2H622.1C636.68 480.2 648.5 468.38 648.5 453.8V29.4C648.5 14.8197 636.68 3 622.1 3Z" stroke="#201F23" stroke-width="6" stroke-linecap="round" stroke-linejoin="round"/>
<path d="M649.5 89.5H3" stroke="#201F23" stroke-width="6" stroke-miterlimit="10"/>
<path d="M423.3 89.5V480.1" stroke="#201F23" stroke-width="6" stroke-linecap="round" stroke-linejoin="round"/>
<path d="M58.1999 23.0996L115.5 23.6996C116.8 23.6996 117.1 24.7996 117 25.9996L116 51.5996C116 52.6996 115.1 53.5996 114 53.7996L75.8999 57.9996C75.0999 57.9996 74.2999 57.6996 73.7999 56.9996L57.5999 33.0996C57.3999 32.8996 57.2999 32.5996 57.2999 32.2996L55.9999 25.7996C55.6999 24.3996 56.7999 23.0996 58.1999 23.0996Z" fill="#FFA956" stroke="#201F23" stroke-width="6" stroke-miterlimit="10"/>
<path d="M113.6 67.5992H58.4C56 67.5992 54 65.5992 54 63.1992V27.0992C54 25.8992 54.6 24.7992 55.4 23.9992C56.2 23.1992 57.9 23.0992 59.1 23.6992L79.1 39.7992C83.8 43.2992 87.3 42.5992 91.6 39.7992L112.5 23.8992C114.8 22.6992 117.7 24.0992 118 26.6992C118.3 29.2992 118 26.9992 118 27.0992V63.1992C118 65.5992 116 67.5992 113.6 67.5992Z" fill="#FFA956" stroke="#201F23" stroke-width="6" stroke-miterlimit="10"/>
<path d="M140.378 63.5782V43.5303V31.3534H146.489L146.582 38.3447L147.415 38.4373C147.693 36.7088 148.187 35.2735 148.897 34.1314C149.607 32.9585 150.517 32.0942 151.629 31.5386C152.74 30.983 154.036 30.7052 155.518 30.7052C157.648 30.7052 159.469 31.2299 160.981 32.2794C162.524 33.298 163.713 34.7796 164.546 36.7242C165.38 38.6688 165.796 40.9992 165.796 43.7155C165.796 46.1848 165.426 48.3764 164.685 50.2901C163.975 52.2038 162.879 53.7163 161.398 54.8275C159.947 55.9078 158.111 56.448 155.888 56.448C154.407 56.448 153.141 56.1856 152.092 55.6609C151.042 55.1053 150.147 54.3028 149.406 53.2533C148.696 52.173 148.11 50.8303 147.647 49.2252H146.767C146.952 50.0895 147.122 50.9537 147.276 51.818C147.431 52.6823 147.554 53.5157 147.647 54.3182C147.77 55.1207 147.832 55.9078 147.832 56.6795V63.5782H140.378ZM153.156 50.5216C154.175 50.5216 155.039 50.2438 155.749 49.6882C156.49 49.1326 157.046 48.3455 157.416 47.3269C157.817 46.3083 158.018 45.1354 158.018 43.8081C158.018 42.3882 157.802 41.169 157.37 40.1504C156.968 39.1009 156.382 38.2984 155.61 37.7428C154.87 37.1563 154.005 36.8631 153.018 36.8631C152.092 36.8631 151.304 37.0637 150.656 37.465C150.008 37.8663 149.468 38.391 149.036 39.0392C148.634 39.6874 148.326 40.3819 148.11 41.1227C147.925 41.8635 147.832 42.5889 147.832 43.2988V44.2248C147.832 44.873 147.909 45.4903 148.063 46.0768C148.218 46.6633 148.449 47.2343 148.758 47.7899C149.067 48.3146 149.437 48.7931 149.869 49.2252C150.301 49.6265 150.795 49.9506 151.351 50.1975C151.906 50.4136 152.508 50.5216 153.156 50.5216ZM170.084 55.7998V31.3534H177.538V55.7998H170.084ZM173.834 28.0661C172.414 28.0661 171.318 27.7729 170.547 27.1864C169.806 26.5691 169.436 25.7048 169.436 24.5936C169.436 23.4207 169.806 22.541 170.547 21.9545C171.318 21.3372 172.414 21.0285 173.834 21.0285C175.285 21.0285 176.381 21.3372 177.121 21.9545C177.893 22.541 178.279 23.4207 178.279 24.5936C178.279 25.7048 177.893 26.5691 177.121 27.1864C176.381 27.7729 175.285 28.0661 173.834 28.0661ZM194.727 56.448C192.659 56.448 190.822 56.1702 189.217 55.6146C187.643 55.059 186.3 54.2565 185.189 53.207C184.078 52.1267 183.229 50.8303 182.643 49.3178C182.056 47.7745 181.763 46.0151 181.763 44.0396C181.763 42.1259 182.041 40.351 182.596 38.7151C183.152 37.0792 183.954 35.6747 185.004 34.5018C186.084 33.298 187.396 32.372 188.939 31.7238C190.514 31.0447 192.273 30.7052 194.218 30.7052C196.193 30.7052 197.922 31.0293 199.403 31.6775C200.916 32.3257 202.15 33.2671 203.107 34.5018C204.095 35.7365 204.805 37.2489 205.237 39.0392C205.7 40.7986 205.839 42.7895 205.654 45.0119L186.624 45.1971V41.2616L201.302 41.1227L198.801 42.9747C198.987 41.4622 198.894 40.2276 198.524 39.2707C198.153 38.283 197.582 37.5576 196.81 37.0946C196.07 36.6316 195.236 36.4001 194.31 36.4001C193.23 36.4001 192.273 36.6933 191.44 37.2798C190.637 37.8663 190.004 38.7151 189.541 39.8263C189.109 40.9375 188.893 42.2956 188.893 43.9007C188.893 46.4009 189.433 48.222 190.514 49.3641C191.594 50.5062 192.983 51.0772 194.681 51.0772C195.514 51.0772 196.209 50.9692 196.764 50.7531C197.32 50.537 197.767 50.2592 198.107 49.9197C198.446 49.5493 198.709 49.148 198.894 48.7159C199.11 48.2529 199.264 47.8053 199.357 47.3732L205.885 48.7159C205.669 49.858 205.299 50.9074 204.774 51.8643C204.249 52.7903 203.539 53.5928 202.644 54.2719C201.749 54.951 200.653 55.4757 199.357 55.8461C198.061 56.2474 196.517 56.448 194.727 56.448ZM210.099 55.7998V44.2711V31.3534H216.21L216.349 39.7337H217.229C217.445 37.573 217.846 35.8445 218.433 34.5481C219.05 33.2208 219.899 32.264 220.979 31.6775C222.091 31.091 223.449 30.7978 225.054 30.7978C225.362 30.7978 225.671 30.8132 225.98 30.8441C226.319 30.875 226.69 30.9367 227.091 31.0293L226.813 38.9929C226.288 38.746 225.733 38.5762 225.146 38.4836C224.591 38.391 224.082 38.3447 223.619 38.3447C222.446 38.3447 221.427 38.5916 220.563 39.0855C219.698 39.5485 219.019 40.2584 218.526 41.2153C218.063 42.1722 217.754 43.376 217.6 44.8267V55.7998H210.099ZM230.581 55.7998V44.2711V31.3534H236.693L236.832 39.7337H237.711C237.927 37.573 238.329 35.8445 238.915 34.5481C239.533 33.2208 240.381 32.264 241.462 31.6775C242.573 31.091 243.931 30.7978 245.536 30.7978C245.845 30.7978 246.153 30.8132 246.462 30.8441C246.802 30.875 247.172 30.9367 247.573 31.0293L247.296 38.9929C246.771 38.746 246.215 38.5762 245.629 38.4836C245.073 38.391 244.564 38.3447 244.101 38.3447C242.928 38.3447 241.909 38.5916 241.045 39.0855C240.181 39.5485 239.502 40.2584 239.008 41.2153C238.545 42.1722 238.236 43.376 238.082 44.8267V55.7998H230.581ZM262.64 56.448C260.572 56.448 258.735 56.1702 257.13 55.6146C255.556 55.059 254.213 54.2565 253.102 53.207C251.991 52.1267 251.142 50.8303 250.555 49.3178C249.969 47.7745 249.676 46.0151 249.676 44.0396C249.676 42.1259 249.953 40.351 250.509 38.7151C251.065 37.0792 251.867 35.6747 252.917 34.5018C253.997 33.298 255.309 32.372 256.852 31.7238C258.426 31.0447 260.186 30.7052 262.13 30.7052C264.106 30.7052 265.834 31.0293 267.316 31.6775C268.828 32.3257 270.063 33.2671 271.02 34.5018C272.008 35.7365 272.718 37.2489 273.15 39.0392C273.613 40.7986 273.752 42.7895 273.566 45.0119L254.537 45.1971V41.2616L269.214 41.1227L266.714 42.9747C266.899 41.4622 266.807 40.2276 266.436 39.2707C266.066 38.283 265.495 37.5576 264.723 37.0946C263.982 36.6316 263.149 36.4001 262.223 36.4001C261.143 36.4001 260.186 36.6933 259.352 37.2798C258.55 37.8663 257.917 38.7151 257.454 39.8263C257.022 40.9375 256.806 42.2956 256.806 43.9007C256.806 46.4009 257.346 48.222 258.426 49.3641C259.507 50.5062 260.896 51.0772 262.593 51.0772C263.427 51.0772 264.121 50.9692 264.677 50.7531C265.232 50.537 265.68 50.2592 266.02 49.9197C266.359 49.5493 266.621 49.148 266.807 48.7159C267.023 48.2529 267.177 47.8053 267.27 47.3732L273.798 48.7159C273.582 49.858 273.211 50.9074 272.687 51.8643C272.162 52.7903 271.452 53.5928 270.557 54.2719C269.662 54.951 268.566 55.4757 267.27 55.8461C265.973 56.2474 264.43 56.448 262.64 56.448ZM298.291 62.2818C294.957 62.2818 291.979 61.8651 289.355 61.0317C286.731 60.2292 284.524 59.0254 282.734 57.4203C280.944 55.8152 279.57 53.8243 278.613 51.4476C277.687 49.04 277.224 46.2774 277.224 43.1599C277.224 40.0732 277.687 37.3415 278.613 34.9648C279.57 32.5881 280.944 30.5972 282.734 28.9921C284.524 27.387 286.731 26.1678 289.355 25.3344C291.979 24.501 294.957 24.0843 298.291 24.0843C301.625 24.0843 304.603 24.501 307.227 25.3344C309.851 26.1678 312.073 27.387 313.894 28.9921C315.715 30.5972 317.104 32.5881 318.061 34.9648C319.018 37.3107 319.496 40.0424 319.496 43.1599C319.496 46.2774 319.018 49.04 318.061 51.4476C317.104 53.8243 315.715 55.8152 313.894 57.4203C312.073 59.0254 309.851 60.2292 307.227 61.0317C304.603 61.8651 301.625 62.2818 298.291 62.2818ZM298.291 56.2628C301.655 56.2628 304.433 55.7998 306.625 54.8738C308.847 53.9478 310.499 52.5125 311.579 50.5679C312.69 48.6233 313.246 46.154 313.246 43.1599C313.246 40.1967 312.69 37.7428 311.579 35.7982C310.499 33.8536 308.847 32.4183 306.625 31.4923C304.403 30.5663 301.625 30.1033 298.291 30.1033C294.957 30.1033 292.179 30.5663 289.957 31.4923C287.765 32.4183 286.13 33.8536 285.049 35.7982C283.969 37.7119 283.429 40.1658 283.429 43.1599C283.429 46.154 283.969 48.6233 285.049 50.5679C286.13 52.5125 287.765 53.9478 289.957 54.8738C292.179 55.7998 294.957 56.2628 298.291 56.2628ZM296.995 48.2992C297.396 48.2992 297.813 48.2529 298.245 48.1603C298.677 48.0368 299.078 47.8516 299.448 47.6047C299.85 47.3578 300.205 47.0645 300.513 46.725C300.822 46.3855 301.054 45.9533 301.208 45.4286L301.115 42.4654L301.717 42.6969C301.409 43.1599 300.976 43.4994 300.421 43.7155C299.865 43.9316 299.263 44.1168 298.615 44.2711C297.967 44.3946 297.35 44.5335 296.763 44.6878C296.207 44.8113 295.744 45.0119 295.374 45.2897C295.004 45.5675 294.818 45.9842 294.818 46.5398C294.818 47.1263 295.019 47.5738 295.42 47.8825C295.853 48.1603 296.377 48.2992 296.995 48.2992ZM294.633 52.1884C293.707 52.1884 292.766 52.0341 291.809 51.7254C290.883 51.4167 290.096 50.9229 289.448 50.2438C288.83 49.5647 288.522 48.6387 288.522 47.4658C288.522 46.3546 288.769 45.4749 289.262 44.8267C289.787 44.1476 290.451 43.6229 291.253 43.2525C292.056 42.8512 292.92 42.5426 293.846 42.3265C294.772 42.1104 295.652 41.9407 296.485 41.8172C297.72 41.632 298.677 41.4622 299.356 41.3079C300.035 41.1536 300.498 40.9684 300.745 40.7523C301.023 40.5054 301.162 40.1967 301.162 39.8263C301.162 39.5176 301.069 39.2398 300.884 38.9929C300.729 38.7151 300.452 38.499 300.05 38.3447C299.68 38.1904 299.171 38.1132 298.522 38.1132C298.059 38.1132 297.581 38.1749 297.087 38.2984C296.593 38.4219 296.161 38.6688 295.791 39.0392C295.42 39.3787 295.173 39.9343 295.05 40.706L289.309 39.3633C289.432 38.2521 289.787 37.2952 290.374 36.4927C290.96 35.6902 291.686 35.0574 292.55 34.5944C293.445 34.1005 294.433 33.7301 295.513 33.4832C296.593 33.2363 297.705 33.1128 298.847 33.1128C300.421 33.1128 301.763 33.3289 302.875 33.761C303.986 34.1623 304.881 34.7487 305.56 35.5204C306.27 36.2921 306.795 37.2181 307.134 38.2984C307.474 39.3787 307.644 40.598 307.644 41.9561V45.5675C307.644 46.0614 307.644 46.5398 307.644 47.0028C307.644 47.4658 307.644 47.9442 307.644 48.4381C307.644 48.9011 307.644 49.395 307.644 49.9197C307.644 50.4136 307.644 50.9846 307.644 51.6328H302.689C302.628 50.892 302.551 50.1666 302.458 49.4567C302.396 48.7159 302.335 47.9751 302.273 47.2343H301.532C301.316 48.3764 300.853 49.3178 300.143 50.0586C299.464 50.7685 298.631 51.3087 297.643 51.6791C296.655 52.0186 295.652 52.1884 294.633 52.1884ZM324.266 55.7998V22.5101H331.582V40.7986C332.508 40.1813 333.357 39.5022 334.128 38.7614C334.9 38.0206 335.61 37.2489 336.258 36.4464C336.937 35.6439 337.524 34.8259 338.017 33.9925C338.542 33.1282 338.99 32.2485 339.36 31.3534H347.926C347.524 32.5572 346.969 33.761 346.259 34.9648C345.549 36.1377 344.685 37.2335 343.666 38.2521C342.678 39.2398 341.49 40.1041 340.101 40.8449C338.712 41.5548 337.138 42.0333 335.378 42.2802V43.0673C337.601 42.666 339.422 42.666 340.842 43.0673C342.262 43.4686 343.388 44.1168 344.222 45.0119C345.086 45.907 345.734 46.9719 346.166 48.2066C346.629 49.4104 347.015 50.5988 347.324 51.7717L348.296 55.7998H340.194L339.731 53.3459C339.453 51.8952 339.113 50.6296 338.712 49.5493C338.311 48.469 337.724 47.6356 336.953 47.0491C336.212 46.4626 335.116 46.1694 333.665 46.1694H331.582V55.7998H324.266ZM361.29 64.2264C360.087 64.2264 358.837 64.1184 357.54 63.9023C356.244 63.6862 355.009 63.3621 353.836 62.93C352.694 62.5287 351.706 62.004 350.873 61.3558L352.679 54.6423C353.759 55.6609 355.055 56.4171 356.568 56.911C358.111 57.4049 359.577 57.6518 360.966 57.6518C362.479 57.6518 363.714 57.3894 364.67 56.8647C365.627 56.34 366.368 55.6455 366.893 54.7812C367.417 53.9169 367.788 52.9446 368.004 51.8643C368.22 50.7531 368.359 49.6265 368.421 48.4844L368.606 44.9656H367.541C367.294 46.9411 366.831 48.577 366.152 49.8734C365.473 51.1389 364.593 52.0804 363.513 52.6977C362.433 53.2842 361.182 53.5774 359.763 53.5774C358.157 53.5774 356.83 53.2533 355.781 52.6051C354.762 51.9569 353.96 51.1389 353.373 50.1512C352.818 49.1326 352.416 48.0677 352.169 46.9565C351.922 45.8144 351.768 44.7495 351.706 43.7618C351.675 42.7741 351.66 41.987 351.66 41.4005V31.3534H359.161V39.2707C359.161 39.888 359.161 40.5825 359.161 41.3542C359.192 42.095 359.253 42.8358 359.346 43.5766C359.469 44.2865 359.655 44.9347 359.901 45.5212C360.179 46.1077 360.534 46.5861 360.966 46.9565C361.429 47.296 362.016 47.4658 362.726 47.4658C363.683 47.4658 364.439 47.1571 364.994 46.5398C365.581 45.8916 366.013 45.1199 366.291 44.2248C366.569 43.2988 366.738 42.4037 366.8 41.5394C366.893 40.6751 366.939 40.0269 366.939 39.5948V31.3534H374.393V48.7622C374.393 49.4721 374.347 50.3518 374.254 51.4013C374.193 52.4508 374.038 53.562 373.791 54.7349C373.545 55.877 373.128 57.0036 372.541 58.1148C371.986 59.2569 371.23 60.2909 370.273 61.2169C369.316 62.1429 368.097 62.8683 366.615 63.393C365.164 63.9486 363.389 64.2264 361.29 64.2264ZM391.177 56.448C388.707 56.448 386.531 55.9696 384.648 55.0127C382.766 54.0558 381.284 52.6205 380.204 50.7068C379.123 48.7931 378.583 46.4009 378.583 43.5303C378.583 40.6597 379.123 38.283 380.204 36.4001C381.284 34.4864 382.766 33.0665 384.648 32.1405C386.562 31.1836 388.754 30.7052 391.223 30.7052C393.692 30.7052 395.884 31.1836 397.798 32.1405C399.711 33.0974 401.193 34.5327 402.242 36.4464C403.323 38.3293 403.863 40.706 403.863 43.5766C403.863 46.5089 403.307 48.932 402.196 50.8457C401.116 52.7594 399.603 54.1793 397.659 55.1053C395.745 56.0004 393.584 56.448 391.177 56.448ZM391.408 51.0309C392.118 51.0309 392.766 50.9074 393.353 50.6605C393.97 50.4136 394.495 50.0277 394.927 49.503C395.39 48.9783 395.745 48.2683 395.992 47.3732C396.239 46.4472 396.362 45.336 396.362 44.0396C396.362 42.6506 396.223 41.4777 395.946 40.5208C395.668 39.5331 395.282 38.746 394.788 38.1595C394.294 37.5422 393.723 37.0946 393.075 36.8168C392.427 36.539 391.732 36.4001 390.992 36.4001C390.312 36.4001 389.664 36.5236 389.047 36.7705C388.46 37.0174 387.951 37.4033 387.519 37.928C387.087 38.4527 386.732 39.1781 386.454 40.1041C386.207 40.9992 386.084 42.1104 386.084 43.4377C386.084 44.8267 386.223 46.0151 386.5 47.0028C386.778 47.9597 387.164 48.7313 387.658 49.3178C388.152 49.9043 388.707 50.3364 389.325 50.6142C389.973 50.892 390.667 51.0309 391.408 51.0309ZM417.031 56.448C414.993 56.448 413.203 55.9387 411.66 54.9201C410.147 53.9015 408.959 52.4199 408.095 50.4753C407.261 48.5307 406.845 46.2003 406.845 43.484C406.845 40.9838 407.215 38.7923 407.956 36.9094C408.697 34.9957 409.792 33.4986 411.243 32.4183C412.694 31.338 414.5 30.7978 416.66 30.7978C418.173 30.7978 419.469 31.0756 420.549 31.6312C421.63 32.1868 422.525 33.0356 423.235 34.1777C423.945 35.2889 424.5 36.6933 424.902 38.391H425.966C425.781 37.3724 425.596 36.4001 425.411 35.4741C425.226 34.5172 425.071 33.6221 424.948 32.7887C424.855 31.9553 424.809 31.2145 424.809 30.5663V22.5564H432.31V44.1322V55.7998H426.152L426.059 48.5307H425.133C424.794 50.3827 424.253 51.8952 423.513 53.0681C422.803 54.2102 421.892 55.059 420.781 55.6146C419.701 56.1702 418.45 56.448 417.031 56.448ZM419.67 50.429C420.596 50.429 421.383 50.2284 422.031 49.8271C422.679 49.4258 423.204 48.9165 423.605 48.2992C424.037 47.651 424.346 46.9565 424.531 46.2157C424.716 45.444 424.809 44.7032 424.809 43.9933V43.1136C424.809 42.4963 424.732 41.8944 424.577 41.3079C424.423 40.6906 424.192 40.1041 423.883 39.5485C423.605 38.9929 423.25 38.5145 422.818 38.1132C422.386 37.6811 421.892 37.357 421.336 37.1409C420.781 36.894 420.179 36.7705 419.531 36.7705C418.512 36.7705 417.632 37.0483 416.892 37.6039C416.182 38.1595 415.626 38.9466 415.225 39.9652C414.854 40.9838 414.669 42.1876 414.669 43.5766C414.669 44.9347 414.87 46.1385 415.271 47.188C415.703 48.2066 416.29 49.0091 417.031 49.5956C417.802 50.1512 418.682 50.429 419.67 50.429ZM443.589 56.448C442.2 56.448 440.981 56.1856 439.932 55.6609C438.882 55.1362 438.049 54.3645 437.432 53.3459C436.845 52.3273 436.552 51.0926 436.552 49.6419C436.552 47.9442 436.938 46.6015 437.709 45.6138C438.512 44.5952 439.515 43.8235 440.719 43.2988C441.953 42.7741 443.234 42.4037 444.562 42.1876C445.889 41.9715 447.124 41.7709 448.266 41.5857C449.253 41.4622 450.056 41.3233 450.673 41.169C451.291 41.0147 451.738 40.7832 452.016 40.4745C452.325 40.135 452.479 39.7028 452.479 39.1781C452.479 38.6225 452.356 38.1441 452.109 37.7428C451.862 37.3107 451.476 36.9711 450.951 36.7242C450.457 36.4773 449.794 36.3538 448.96 36.3538C448.127 36.3538 447.355 36.5081 446.645 36.8168C445.935 37.0946 445.333 37.5422 444.84 38.1595C444.346 38.746 443.991 39.4713 443.775 40.3356L437.2 38.4836C437.57 37.1255 438.126 35.968 438.867 35.0111C439.608 34.0234 440.487 33.2054 441.506 32.5572C442.525 31.909 443.667 31.446 444.932 31.1682C446.198 30.8595 447.571 30.7052 449.053 30.7052C450.905 30.7052 452.51 30.9367 453.868 31.3997C455.226 31.8318 456.337 32.5109 457.202 33.4369C458.097 34.3629 458.745 35.5358 459.146 36.9557C459.578 38.3447 459.794 40.0115 459.794 41.9561V45.7527C459.794 46.8639 459.81 47.9751 459.841 49.0863C459.902 50.1975 459.964 51.3087 460.026 52.4199C460.088 53.5311 460.18 54.6577 460.304 55.7998H453.729C453.637 55.059 453.528 54.1947 453.405 53.207C453.282 52.1884 453.204 51.1389 453.174 50.0586H452.294C451.893 51.2624 451.275 52.3582 450.442 53.3459C449.639 54.3028 448.652 55.059 447.479 55.6146C446.337 56.1702 445.04 56.448 443.589 56.448ZM446.877 51.1698C447.432 51.1698 447.988 51.0772 448.544 50.892C449.13 50.6759 449.686 50.3827 450.21 50.0123C450.735 49.6419 451.213 49.1943 451.646 48.6696C452.078 48.114 452.402 47.4967 452.618 46.8176L452.525 43.3914L453.544 43.5766C452.988 43.947 452.356 44.2402 451.646 44.4563C450.967 44.6724 450.257 44.8421 449.516 44.9656C448.806 45.0891 448.096 45.228 447.386 45.3823C446.707 45.5058 446.09 45.6755 445.534 45.8916C444.978 46.1077 444.546 46.4009 444.238 46.7713C443.929 47.1417 443.775 47.6664 443.775 48.3455C443.775 49.1789 444.068 49.858 444.654 50.3827C445.241 50.9074 445.982 51.1698 446.877 51.1698ZM465.065 55.7998V31.3534H472.52V55.7998H465.065ZM468.816 28.0661C467.396 28.0661 466.3 27.7729 465.528 27.1864C464.788 26.5691 464.417 25.7048 464.417 24.5936C464.417 23.4207 464.788 22.541 465.528 21.9545C466.3 21.3372 467.396 21.0285 468.816 21.0285C470.266 21.0285 471.362 21.3372 472.103 21.9545C472.875 22.541 473.26 23.4207 473.26 24.5936C473.26 25.7048 472.875 26.5691 472.103 27.1864C471.362 27.7729 470.266 28.0661 468.816 28.0661ZM481.097 56.4017C479.492 56.4017 478.288 56.0622 477.485 55.3831C476.714 54.704 476.328 53.6546 476.328 52.2347C476.328 50.784 476.714 49.7191 477.485 49.04C478.288 48.3609 479.492 48.0214 481.097 48.0214C482.733 48.0214 483.952 48.3609 484.754 49.04C485.557 49.7191 485.958 50.784 485.958 52.2347C485.958 55.0127 484.338 56.4017 481.097 56.4017ZM500.207 56.448C498.571 56.448 497.074 56.2937 495.716 55.985C494.388 55.7072 493.231 55.2905 492.243 54.7349C491.255 54.1484 490.453 53.4539 489.836 52.6514C489.218 51.818 488.801 50.8766 488.585 49.8271L494.234 47.5584C494.419 48.114 494.774 48.6696 495.299 49.2252C495.855 49.7808 496.564 50.2284 497.429 50.5679C498.324 50.9074 499.404 51.0772 500.67 51.0772C501.904 51.0772 502.861 50.9074 503.54 50.5679C504.25 50.1975 504.605 49.6728 504.605 48.9937C504.605 48.4998 504.405 48.114 504.003 47.8362C503.633 47.5584 503.062 47.3115 502.29 47.0954C501.549 46.8485 500.608 46.6015 499.466 46.3546C498.262 46.1077 497.058 45.8144 495.855 45.4749C494.651 45.1354 493.524 44.6878 492.475 44.1322C491.456 43.5457 490.623 42.7895 489.974 41.8635C489.357 40.9375 489.048 39.7646 489.048 38.3447C489.048 36.8014 489.45 35.4741 490.252 34.3629C491.086 33.2208 492.289 32.3257 493.864 31.6775C495.469 31.0293 497.398 30.7052 499.651 30.7052C501.688 30.7052 503.479 30.9676 505.022 31.4923C506.565 32.017 507.846 32.7887 508.865 33.8073C509.914 34.795 510.609 36.0143 510.948 37.465L504.929 39.4096C504.806 38.7305 504.513 38.1441 504.05 37.6502C503.587 37.1563 502.985 36.7705 502.244 36.4927C501.534 36.2149 500.685 36.076 499.697 36.076C498.524 36.076 497.598 36.2612 496.919 36.6316C496.271 37.002 495.947 37.4959 495.947 38.1132C495.947 38.6071 496.163 39.0238 496.595 39.3633C497.058 39.672 497.691 39.9343 498.494 40.1504C499.327 40.3665 500.315 40.598 501.457 40.8449C502.691 41.0918 503.895 41.3851 505.068 41.7246C506.241 42.0333 507.306 42.4654 508.263 43.021C509.251 43.5457 510.038 44.2557 510.624 45.1508C511.211 46.0459 511.504 47.188 511.504 48.577C511.504 50.1821 511.056 51.5865 510.161 52.7903C509.297 53.9632 508.031 54.8738 506.365 55.522C504.698 56.1393 502.645 56.448 500.207 56.448ZM515.57 55.7998V40.4745V22.5564H523.025V30.057C523.025 30.6743 522.994 31.338 522.932 32.0479C522.901 32.727 522.824 33.4369 522.701 34.1777C522.608 34.9185 522.5 35.6593 522.376 36.4001C522.284 37.1409 522.16 37.8508 522.006 38.5299H523.025C523.457 36.9248 523.997 35.5513 524.645 34.4092C525.293 33.2363 526.142 32.3257 527.192 31.6775C528.272 31.0293 529.63 30.7052 531.266 30.7052C532.902 30.7052 534.245 31.0139 535.294 31.6312C536.375 32.2177 537.208 33.0048 537.794 33.9925C538.412 34.9494 538.859 35.9988 539.137 37.1409C539.446 38.283 539.631 39.4096 539.693 40.5208C539.785 41.632 539.832 42.6043 539.832 43.4377V55.7998H532.331V44.1785C532.331 42.9747 532.238 41.9252 532.053 41.0301C531.899 40.135 531.652 39.3787 531.312 38.7614C530.973 38.1441 530.525 37.6811 529.97 37.3724C529.445 37.0329 528.812 36.8631 528.071 36.8631C526.929 36.8631 525.988 37.2181 525.247 37.928C524.506 38.6379 523.951 39.5948 523.58 40.7986C523.21 42.0024 523.025 43.3914 523.025 44.9656V55.7998H515.57ZM556.256 56.448C553.787 56.448 551.611 55.9696 549.728 55.0127C547.845 54.0558 546.363 52.6205 545.283 50.7068C544.203 48.7931 543.663 46.4009 543.663 43.5303C543.663 40.6597 544.203 38.283 545.283 36.4001C546.363 34.4864 547.845 33.0665 549.728 32.1405C551.642 31.1836 553.833 30.7052 556.302 30.7052C558.772 30.7052 560.963 31.1836 562.877 32.1405C564.791 33.0974 566.272 34.5327 567.322 36.4464C568.402 38.3293 568.942 40.706 568.942 43.5766C568.942 46.5089 568.387 48.932 567.276 50.8457C566.195 52.7594 564.683 54.1793 562.738 55.1053C560.824 56.0004 558.664 56.448 556.256 56.448ZM556.488 51.0309C557.198 51.0309 557.846 50.9074 558.432 50.6605C559.05 50.4136 559.574 50.0277 560.006 49.503C560.469 48.9783 560.824 48.2683 561.071 47.3732C561.318 46.4472 561.442 45.336 561.442 44.0396C561.442 42.6506 561.303 41.4777 561.025 40.5208C560.747 39.5331 560.361 38.746 559.868 38.1595C559.374 37.5422 558.803 37.0946 558.154 36.8168C557.506 36.539 556.812 36.4001 556.071 36.4001C555.392 36.4001 554.744 36.5236 554.126 36.7705C553.54 37.0174 553.031 37.4033 552.598 37.928C552.166 38.4527 551.811 39.1781 551.534 40.1041C551.287 40.9992 551.163 42.1104 551.163 43.4377C551.163 44.8267 551.302 46.0151 551.58 47.0028C551.858 47.9597 552.243 48.7313 552.737 49.3178C553.231 49.9043 553.787 50.3364 554.404 50.6142C555.052 50.892 555.747 51.0309 556.488 51.0309ZM573.174 63.5782V43.5303V31.3534H579.286L579.378 38.3447L580.212 38.4373C580.489 36.7088 580.983 35.2735 581.693 34.1314C582.403 32.9585 583.314 32.0942 584.425 31.5386C585.536 30.983 586.833 30.7052 588.314 30.7052C590.444 30.7052 592.265 31.2299 593.778 32.2794C595.321 33.298 596.509 34.7796 597.343 36.7242C598.176 38.6688 598.593 40.9992 598.593 43.7155C598.593 46.1848 598.222 48.3764 597.482 50.2901C596.772 52.2038 595.676 53.7163 594.194 54.8275C592.744 55.9078 590.907 56.448 588.685 56.448C587.203 56.448 585.937 56.1856 584.888 55.6609C583.839 55.1053 582.943 54.3028 582.203 53.2533C581.493 52.173 580.906 50.8303 580.443 49.2252H579.563C579.749 50.0895 579.918 50.9537 580.073 51.818C580.227 52.6823 580.351 53.5157 580.443 54.3182C580.567 55.1207 580.628 55.9078 580.628 56.6795V63.5782H573.174ZM585.953 50.5216C586.971 50.5216 587.836 50.2438 588.546 49.6882C589.286 49.1326 589.842 48.3455 590.212 47.3269C590.614 46.3083 590.814 45.1354 590.814 43.8081C590.814 42.3882 590.598 41.169 590.166 40.1504C589.765 39.1009 589.178 38.2984 588.407 37.7428C587.666 37.1563 586.802 36.8631 585.814 36.8631C584.888 36.8631 584.101 37.0637 583.453 37.465C582.804 37.8663 582.264 38.391 581.832 39.0392C581.431 39.6874 581.122 40.3819 580.906 41.1227C580.721 41.8635 580.628 42.5889 580.628 43.2988V44.2248C580.628 44.873 580.706 45.4903 580.86 46.0768C581.014 46.6633 581.246 47.2343 581.554 47.7899C581.863 48.3146 582.233 48.7931 582.666 49.2252C583.098 49.6265 583.592 49.9506 584.147 50.1975C584.703 50.4136 585.305 50.5216 585.953 50.5216Z" fill="black"/>
<path d="M654.801 484.7V90.5996" stroke="#201F23" stroke-width="6" stroke-linecap="round" stroke-linejoin="round"/>
<path d="M578.101 484.7V89.5" stroke="#201F23" stroke-width="6" stroke-linecap="round" stroke-linejoin="round"/>
<path d="M501.5 484.7V90.5996" stroke="#201F23" stroke-width="6" stroke-linecap="round" stroke-linejoin="round"/>
<path d="M424.9 484.7V89.5" stroke="#201F23" stroke-width="6" stroke-linecap="round" stroke-linejoin="round"/>
<path d="M424.9 401.8H654.8" stroke="#201F23" stroke-width="6" stroke-linecap="round" stroke-linejoin="round"/>
<path d="M424.9 320.3H654.8" stroke="#201F23" stroke-width="6" stroke-linecap="round" stroke-linejoin="round"/>
<path d="M424.9 238.8H654.8" stroke="#201F23" stroke-width="6" stroke-linecap="round" stroke-linejoin="round"/>
<path d="M424.9 157.3H654.8" stroke="#201F23" stroke-width="6" stroke-linecap="round" stroke-linejoin="round"/>
<path d="M456.1 368.7L448.3 400.1L446.7 455.8L458.1 417.5L456.1 368.7Z" fill="#201F23" stroke="#201F23" stroke-width="6" stroke-linecap="round" stroke-linejoin="round"/>
<path d="M615.8 368.7L623.7 400.9L625.2 455.8L613.8 417.5L615.8 368.7Z" fill="#201F23" stroke="#201F23" stroke-width="6" stroke-linecap="round" stroke-linejoin="round"/>
<path d="M615.501 368.7H456.101V417.4H615.501V368.7Z" fill="white" stroke="#201F23" stroke-width="6" stroke-linecap="round" stroke-linejoin="round"/>
<path d="M624.8 455.8H446.7L456.1 417.5H615.4L624.8 455.8Z" fill="white" stroke="#201F23" stroke-width="6" stroke-linecap="round" stroke-linejoin="round"/>
<path d="M509.295 398.601V382.893H513.15V398.601H509.295ZM512.079 398.601V395.483H521.647V398.601H512.079ZM512.079 392.079V389.295H520.457V392.079H512.079ZM512.079 385.987V382.893H521.599V385.987H512.079ZM524.147 398.601V382.893H529.145L535.785 393.436H536.023L535.832 382.893H539.569V398.601H535.023L527.931 387.486H527.669L527.883 398.601H524.147ZM546.072 398.601V382.893H549.927V398.601H546.072ZM541.55 386.082V382.893H554.449V386.082H541.55ZM556.43 398.601V382.893H563.094C563.871 382.893 564.593 382.956 565.26 383.083C565.942 383.194 566.561 383.369 567.116 383.607C567.671 383.845 568.155 384.146 568.568 384.511C568.98 384.876 569.298 385.312 569.52 385.82C569.742 386.312 569.853 386.883 569.853 387.534C569.853 388.073 569.766 388.565 569.591 389.009C569.417 389.453 569.147 389.85 568.782 390.199C568.433 390.532 567.989 390.802 567.449 391.008C566.91 391.215 566.283 391.365 565.569 391.461V391.794C566.474 391.889 567.172 392.095 567.664 392.413C568.171 392.714 568.56 393.127 568.83 393.65C569.115 394.158 569.353 394.761 569.544 395.459L570.448 398.601H566.188L565.498 395.697C565.371 395.078 565.18 394.594 564.927 394.245C564.689 393.896 564.379 393.65 563.998 393.507C563.618 393.365 563.142 393.293 562.57 393.293H560.262V398.601H556.43ZM560.262 390.461H562.332C562.586 390.461 562.864 390.453 563.165 390.437C563.483 390.421 563.792 390.382 564.094 390.318C564.411 390.239 564.696 390.12 564.95 389.961C565.22 389.787 565.434 389.557 565.593 389.271C565.767 388.985 565.855 388.605 565.855 388.129C565.855 387.668 565.775 387.296 565.617 387.01C565.458 386.709 565.252 386.478 564.998 386.32C564.744 386.161 564.482 386.05 564.213 385.987C563.959 385.907 563.705 385.86 563.451 385.844C563.213 385.828 563.03 385.82 562.904 385.82H560.262V390.461ZM572.653 398.601V382.893H576.509V398.601H572.653ZM575.438 398.601V395.483H585.005V398.601H575.438ZM575.438 392.079V389.295H583.815V392.079H575.438ZM575.438 385.987V382.893H584.958V385.987H575.438ZM579.745 381.298H576.818L578.579 377.252H582.387L579.745 381.298ZM587.505 398.601V382.893H591.36V398.601H587.505ZM590.289 398.601V395.483H599.857V398.601H590.289ZM590.289 392.079V389.295H598.667V392.079H590.289ZM590.289 385.987V382.893H599.809V385.987H590.289Z" fill="#201F25"/>
<path d="M501.1 388.9V396.3H475.3" stroke="#201F23" stroke-width="6" stroke-linecap="round" stroke-linejoin="round"/>
<path d="M479 390.5L472.8 396.3L479 401.7" stroke="#201F23" stroke-width="6" stroke-linecap="round" stroke-linejoin="round"/>
<path d="M565.5 288.6C586.8 286.2 594.6 266.5 595.6 222C596.6 177.5 577.2 158.9 577.2 158.9L582.1 89.5H502.9C502.9 89.5 503.5 132.2 503.5 159.3C483.3 174.3 462.9 248.8 483.5 261.8C490.7 266.3 510.6 262.6 521.6 267.4C536.9 274.1 547.3 290.5 565.4 288.5L565.5 288.6Z" fill="#FFA956" stroke="#201F23" stroke-width="6" stroke-miterlimit="10"/>
<path d="M577.2 246.3V324.3C577.2 334.7 569.9 343.2 560.9 343.2C551.9 343.2 544.6 334.7 544.6 324.3V246.3" fill="#FFA956"/>
<path d="M577.2 246.3V324.3C577.2 334.7 569.9 343.2 560.9 343.2C551.9 343.2 544.6 334.7 544.6 324.3V246.3" stroke="#201F23" stroke-width="6" stroke-linecap="round" stroke-linejoin="round"/>
<path d="M544.6 243V280.7C544.6 290.4 538.4 298.4 530.8 298.4C523.2 298.4 517 290.4 517 280.7V241.4" fill="#FFA956"/>
<path d="M544.6 243V280.7C544.6 290.4 538.4 298.4 530.8 298.4C523.2 298.4 517 290.4 517 280.7V241.4" stroke="#201F23" stroke-width="6" stroke-linecap="round" stroke-linejoin="round"/>
<path d="M517 234.5V262.7C517 271.3 511.5 278.3 504.8 278.3C498.1 278.3 492.6 271.3 492.6 262.7V228" fill="#FFA956"/>
<path d="M517 234.5V262.7C517 271.3 511.5 278.3 504.8 278.3C498.1 278.3 492.6 271.3 492.6 262.7V228" stroke="#201F23" stroke-width="6" stroke-linecap="round" stroke-linejoin="round"/>
<path d="M504.8 158.6C504.8 158.6 521.7 164 541.9 164C562.1 164 576 158.6 576 158.6V134.4C576 134.4 554.8 138.5 540.4 138.5C526 138.5 504.8 134.4 504.8 134.4V158.6Z" fill="#201F23" stroke="#201F23" stroke-width="6" stroke-miterlimit="10"/>
<path d="M540.399 171.8C551.555 171.8 560.599 162.757 560.599 151.6C560.599 140.444 551.555 131.4 540.399 131.4C529.243 131.4 520.199 140.444 520.199 151.6C520.199 162.757 529.243 171.8 540.399 171.8Z" fill="white" stroke="#201F23" stroke-width="6" stroke-miterlimit="10"/>
<path d="M539.5 140L540.4 152.9L552 150.6" fill="white"/>
<path d="M539.5 140L540.4 152.9L552 150.6" stroke="#201F23" stroke-width="6" stroke-linecap="round" stroke-linejoin="round"/>
<path d="M560.899 333.4C565.704 333.4 569.599 330.131 569.599 326.1C569.599 322.068 565.704 318.8 560.899 318.8C556.094 318.8 552.199 322.068 552.199 326.1C552.199 330.131 556.094 333.4 560.899 333.4Z" fill="white" stroke="#201F23" stroke-width="6" stroke-miterlimit="10"/>
</g>
<defs>
<clipPath id="clip0_202_815">
<rect width="665.02" height="495.45" fill="white"/>
</clipPath>
</defs>
</svg>
