<svg width="666" height="496" viewBox="0 0 666 496" fill="none" xmlns="http://www.w3.org/2000/svg">
<g clip-path="url(#clip0_202_693)">
<path d="M635.59 15.2598H41.9798C27.3829 15.2598 15.5498 27.0929 15.5498 41.6898V466.02C15.5498 480.617 27.3829 492.45 41.9798 492.45H635.59C650.187 492.45 662.02 480.617 662.02 466.02V41.6898C662.02 27.0929 650.187 15.2598 635.59 15.2598Z" fill="#1D1D1B" stroke="#201F23" stroke-width="6" stroke-linecap="round" stroke-linejoin="round"/>
<path d="M623.04 3H29.43C14.8331 3 3 14.8331 3 29.43V453.76C3 468.357 14.8331 480.19 29.43 480.19H623.04C637.637 480.19 649.47 468.357 649.47 453.76V29.43C649.47 14.8331 637.637 3 623.04 3Z" fill="#144FE7"/>
<mask id="mask0_202_693" style="mask-type:luminance" maskUnits="userSpaceOnUse" x="3" y="3" width="647" height="478">
<path d="M623.04 3H29.43C14.8331 3 3 14.8331 3 29.43V453.76C3 468.357 14.8331 480.19 29.43 480.19H623.04C637.637 480.19 649.47 468.357 649.47 453.76V29.43C649.47 14.8331 637.637 3 623.04 3Z" fill="white"/>
</mask>
<g mask="url(#mask0_202_693)">
<path d="M647.69 385.89H150.58L138.42 368.76C136.48 366.03 132.45 365.99 130.46 368.67L117.65 385.89H-2.61966L-37.0797 464.6C-37.0797 464.6 -66.1897 484 -25.3397 492.69C15.5103 501.37 83.4303 500.35 141.13 500.35C198.83 500.35 297.9 500.86 340.79 500.35C383.68 499.84 490.08 501.88 490.08 501.88C490.08 501.88 574.66 498.82 585.9 498.31C597.13 497.8 680.37 488.61 680.37 488.61L647.69 385.9V385.89Z" fill="white" stroke="#201F23" stroke-width="6" stroke-linecap="round" stroke-linejoin="round"/>
</g>
<path d="M623.04 3H29.43C14.8331 3 3 14.8331 3 29.43V453.76C3 468.357 14.8331 480.19 29.43 480.19H623.04C637.637 480.19 649.47 468.357 649.47 453.76V29.43C649.47 14.8331 637.637 3 623.04 3Z" stroke="#201F23" stroke-width="6" stroke-linecap="round" stroke-linejoin="round"/>
<path d="M653.31 79.1299H4.76953" stroke="#201F23" stroke-width="6" stroke-linecap="round" stroke-linejoin="round"/>
<path d="M653.31 155.76H3" stroke="#201F23" stroke-width="6" stroke-linecap="round" stroke-linejoin="round"/>
<path d="M653.31 232.39H4.76953" stroke="#201F23" stroke-width="6" stroke-linecap="round" stroke-linejoin="round"/>
<path d="M653.31 309.02H3" stroke="#201F23" stroke-width="6" stroke-linecap="round" stroke-linejoin="round"/>
<path d="M570.36 385.65V3.1001" stroke="#201F23" stroke-width="6" stroke-linecap="round" stroke-linejoin="round"/>
<path d="M488.87 385.65V3.1001" stroke="#201F23" stroke-width="6" stroke-linecap="round" stroke-linejoin="round"/>
<path d="M407.39 385.65V3.1001" stroke="#201F23" stroke-width="6" stroke-linecap="round" stroke-linejoin="round"/>
<path d="M325.91 385.65V3.1001" stroke="#201F23" stroke-width="6" stroke-linecap="round" stroke-linejoin="round"/>
<path d="M244.43 385.65V3.1001" stroke="#201F23" stroke-width="6" stroke-linecap="round" stroke-linejoin="round"/>
<path d="M162.95 385.65V3.1001" stroke="#201F23" stroke-width="6" stroke-linecap="round" stroke-linejoin="round"/>
<path d="M81.46 385.65V3.1001" stroke="#201F23" stroke-width="6" stroke-linecap="round" stroke-linejoin="round"/>
<path d="M302.82 236.22C324.78 188.38 290.56 148.53 290.56 148.53C290.56 148.53 345.08 160.9 372.14 139.96C399.2 119.02 412.41 92.3599 408.17 74.4799C403.93 56.5999 422.59 121.85 477.16 128.1C543.03 135.64 566.31 100.53 574.48 96.9499C582.65 93.3799 553.03 125.04 556.55 188.38C559.19 235.9 635.25 262.35 635.25 262.35C635.25 262.35 583.68 256.33 558.08 296.06C542.58 320.12 544.95 343.4 544.95 343.4C544.95 343.4 280.87 284.05 302.83 236.21L302.82 236.22Z" fill="#FFA956" stroke="#201F23" stroke-width="6" stroke-miterlimit="10"/>
<path d="M406.45 200.31C406.45 200.31 408.57 169.79 419.73 165.59C440.5 157.76 440.5 207.46 440.5 207.46C440.5 207.46 464.25 222.88 482.37 241.16C506.57 265.58 528.33 297.92 543.22 332.52C548.17 344.02 555.5 372.87 557.61 385.65H328.16L249.7 247.26L406.46 200.31" fill="#FF5E38"/>
<path d="M406.45 200.31C406.45 200.31 408.57 169.79 419.73 165.59C440.5 157.76 440.5 207.46 440.5 207.46C440.5 207.46 464.25 222.88 482.37 241.16C506.57 265.58 528.33 297.92 543.22 332.52C548.17 344.02 555.5 372.87 557.61 385.65H328.16L249.7 247.26L406.46 200.31" stroke="#201F23" stroke-width="6" stroke-linecap="round" stroke-linejoin="round"/>
<path d="M249.7 247.26L439.79 207.4L406.45 200.31L248.76 233.25L249.7 247.26Z" fill="#1D1D1B" stroke="#201F23" stroke-width="6" stroke-linecap="round" stroke-linejoin="round"/>
<path d="M415.73 168.54C415.73 168.54 423.65 163.85 428.75 173.04C433.85 182.23 433.12 205.97 433.12 205.97L439.78 207.39C439.78 207.39 432.28 166.42 427.75 165.6C423.22 164.78 415.72 168.54 415.72 168.54H415.73Z" fill="#1D1D1B" stroke="#201F23" stroke-width="6" stroke-linecap="round" stroke-linejoin="round"/>
<path d="M228.93 205.39C228.93 205.39 242.72 198.89 248.76 209.48C254.8 220.07 256.88 245.76 256.88 245.76L249.69 247.27C249.69 247.27 249.69 216.84 244.58 209.48C239.47 202.12 228.92 205.39 228.92 205.39H228.93Z" fill="#1D1D1B" stroke="#201F23" stroke-width="6" stroke-linecap="round" stroke-linejoin="round"/>
<path d="M162.95 384.87C162.95 384.87 170.88 328.88 183.13 301.65C195.38 274.42 215.66 240.11 215.66 240.11C215.66 240.11 217.78 209.59 228.94 205.39C249.71 197.56 249.71 247.26 249.71 247.26C249.71 247.26 275.39 260.95 291.58 280.96C312.14 306.37 338.79 349.45 349.2 385.65C334.95 385.65 231.91 385.19 185.5 384.97C171.73 384.91 162.95 384.87 162.95 384.87Z" fill="#FF5E38" stroke="#201F23" stroke-width="6" stroke-linecap="round" stroke-linejoin="round"/>
<path d="M225.18 247.26C225.18 247.26 242.9 241.13 255.87 251.47" stroke="#201F23" stroke-width="6" stroke-linecap="round" stroke-linejoin="round"/>
<path d="M478.449 380.57C509.922 357.042 514.205 309.569 488.015 274.535C461.826 239.501 415.081 230.173 383.608 253.701C352.135 277.229 347.852 324.702 374.042 359.736C400.231 394.77 446.976 404.098 478.449 380.57Z" fill="#1D1D1B" stroke="#201F23" stroke-width="6" stroke-linecap="round" stroke-linejoin="round"/>
<path d="M469.629 360.771C492.702 343.523 495.842 308.72 476.643 283.038C457.444 257.355 423.176 250.517 400.103 267.766C377.03 285.014 373.89 319.816 393.089 345.499C412.288 371.181 446.557 378.019 469.629 360.771Z" fill="#FFA956" stroke="#201F23" stroke-width="6" stroke-miterlimit="10"/>
<path d="M459.866 343.196C475.365 331.61 477.476 308.231 464.58 290.98C451.683 273.728 428.663 269.136 413.164 280.723C397.664 292.31 395.553 315.688 408.45 332.94C421.346 350.191 444.366 354.783 459.866 343.196Z" fill="#FFA956" stroke="#201F23" stroke-width="6" stroke-miterlimit="10"/>
<path d="M449.628 389.777C453.941 386.553 454.526 380.045 450.935 375.241C447.344 370.438 440.937 369.157 436.624 372.381C432.311 375.605 431.726 382.113 435.317 386.917C438.908 391.721 445.315 393.002 449.628 389.777Z" fill="white" stroke="#201F23" stroke-width="3" stroke-linecap="round" stroke-linejoin="round"/>
<path d="M470.852 384.026C474.891 381.007 475.441 374.917 472.081 370.422C468.722 365.928 462.724 364.732 458.686 367.751C454.647 370.77 454.097 376.861 457.456 381.355C460.816 385.85 466.813 387.045 470.852 384.026Z" fill="white" stroke="#201F23" stroke-width="3" stroke-linecap="round" stroke-linejoin="round"/>
<path d="M486.412 372.395C490.26 369.518 490.782 363.711 487.578 359.425C484.374 355.139 478.656 353.996 474.808 356.873C470.96 359.75 470.437 365.557 473.642 369.843C476.846 374.129 482.563 375.272 486.412 372.395Z" fill="white" stroke="#201F23" stroke-width="3" stroke-linecap="round" stroke-linejoin="round"/>
<path d="M496.402 357.55C500.056 354.819 500.552 349.306 497.51 345.236C494.467 341.167 489.039 340.082 485.385 342.813C481.731 345.545 481.236 351.058 484.278 355.127C487.32 359.197 492.748 360.282 496.402 357.55Z" fill="white" stroke="#201F23" stroke-width="3" stroke-linecap="round" stroke-linejoin="round"/>
<path d="M501.391 340.247C504.634 337.823 505.075 332.932 502.377 329.323C499.678 325.713 494.862 324.752 491.62 327.176C488.378 329.6 487.936 334.491 490.635 338.1C493.333 341.71 498.149 342.671 501.391 340.247Z" fill="white" stroke="#201F23" stroke-width="3" stroke-linecap="round" stroke-linejoin="round"/>
<path d="M501.709 324.15C504.58 322.004 504.972 317.676 502.584 314.482C500.197 311.288 495.934 310.439 493.063 312.585C490.193 314.731 489.801 319.06 492.188 322.253C494.576 325.447 498.838 326.297 501.709 324.15Z" fill="white" stroke="#201F23" stroke-width="3" stroke-linecap="round" stroke-linejoin="round"/>
<path d="M498.476 308.242C501.347 306.096 501.738 301.767 499.351 298.574C496.963 295.38 492.701 294.531 489.83 296.677C486.959 298.823 486.567 303.152 488.955 306.345C491.342 309.539 495.605 310.388 498.476 308.242Z" fill="white" stroke="#201F23" stroke-width="3" stroke-linecap="round" stroke-linejoin="round"/>
<path d="M492.392 294.144C495.037 292.166 495.396 288.175 493.194 285.229C490.992 282.283 487.062 281.498 484.417 283.475C481.771 285.453 481.412 289.444 483.615 292.39C485.817 295.336 489.747 296.121 492.392 294.144Z" fill="white" stroke="#201F23" stroke-width="3" stroke-linecap="round" stroke-linejoin="round"/>
<path d="M484.588 282.227C487.233 280.249 487.592 276.258 485.39 273.312C483.188 270.366 479.258 269.581 476.613 271.558C473.968 273.536 473.609 277.527 475.811 280.473C478.013 283.419 481.943 284.204 484.588 282.227Z" fill="white" stroke="#201F23" stroke-width="3" stroke-linecap="round" stroke-linejoin="round"/>
<path d="M475.108 272.072C477.753 270.095 478.112 266.104 475.91 263.158C473.707 260.212 469.778 259.426 467.132 261.404C464.487 263.381 464.128 267.373 466.33 270.319C468.533 273.265 472.462 274.05 475.108 272.072Z" fill="white" stroke="#201F23" stroke-width="3" stroke-linecap="round" stroke-linejoin="round"/>
<path d="M464.126 264.742C466.771 262.765 467.131 258.774 464.928 255.828C462.726 252.882 458.796 252.096 456.151 254.074C453.506 256.051 453.147 260.043 455.349 262.989C457.551 265.935 461.481 266.72 464.126 264.742Z" fill="white" stroke="#201F23" stroke-width="3" stroke-linecap="round" stroke-linejoin="round"/>
<path d="M425.202 386.81C429.514 383.586 430.1 377.078 426.508 372.274C422.917 367.47 416.51 366.189 412.197 369.413C407.884 372.637 407.299 379.145 410.89 383.949C414.481 388.753 420.889 390.034 425.202 386.81Z" fill="white" stroke="#201F23" stroke-width="3" stroke-linecap="round" stroke-linejoin="round"/>
<path d="M404.298 376.336C408.611 373.112 409.196 366.604 405.605 361.8C402.014 356.996 395.606 355.715 391.294 358.94C386.981 362.164 386.396 368.672 389.987 373.476C393.578 378.279 399.985 379.56 404.298 376.336Z" fill="white" stroke="#201F23" stroke-width="3" stroke-linecap="round" stroke-linejoin="round"/>
<path d="M389.054 358.884C393.367 355.66 393.952 349.152 390.361 344.348C386.77 339.544 380.362 338.263 376.049 341.487C371.737 344.712 371.151 351.22 374.743 356.023C378.334 360.827 384.741 362.108 389.054 358.884Z" fill="white" stroke="#201F23" stroke-width="3" stroke-linecap="round" stroke-linejoin="round"/>
<path d="M379.005 338.074C383.318 334.85 383.903 328.342 380.312 323.538C376.721 318.734 370.313 317.454 366.001 320.678C361.688 323.902 361.103 330.41 364.694 335.214C368.285 340.018 374.692 341.298 379.005 338.074Z" fill="white" stroke="#201F23" stroke-width="3" stroke-linecap="round" stroke-linejoin="round"/>
<path d="M375.762 316.882C380.075 313.658 380.66 307.15 377.069 302.346C373.478 297.542 367.07 296.261 362.757 299.485C358.445 302.71 357.859 309.218 361.451 314.021C365.042 318.825 371.449 320.106 375.762 316.882Z" fill="white" stroke="#201F23" stroke-width="3" stroke-linecap="round" stroke-linejoin="round"/>
<path d="M378.997 296.074C383.31 292.85 383.895 286.342 380.304 281.538C376.713 276.734 370.306 275.454 365.993 278.678C361.68 281.902 361.095 288.41 364.686 293.214C368.277 298.018 374.685 299.298 378.997 296.074Z" fill="white" stroke="#201F23" stroke-width="3" stroke-linecap="round" stroke-linejoin="round"/>
<path d="M389.045 278.138C393.358 274.914 393.943 268.406 390.352 263.602C386.761 258.798 380.353 257.517 376.041 260.741C371.728 263.965 371.143 270.473 374.734 275.277C378.325 280.081 384.732 281.362 389.045 278.138Z" fill="white" stroke="#201F23" stroke-width="3" stroke-linecap="round" stroke-linejoin="round"/>
<path d="M402.972 264.972C406.847 262.075 407.375 256.231 404.151 251.918C400.926 247.605 395.171 246.457 391.297 249.354C387.422 252.25 386.894 258.095 390.118 262.408C393.342 266.721 399.097 267.869 402.972 264.972Z" fill="white" stroke="#201F23" stroke-width="3" stroke-linecap="round" stroke-linejoin="round"/>
<path d="M419.358 257.416C422.786 254.854 423.252 249.681 420.398 245.864C417.544 242.047 412.452 241.029 409.024 243.592C405.596 246.155 405.13 251.327 407.984 255.145C410.837 258.962 415.93 259.979 419.358 257.416Z" fill="white" stroke="#201F23" stroke-width="3" stroke-linecap="round" stroke-linejoin="round"/>
<path d="M435.866 255.946C439.02 253.588 439.448 248.83 436.823 245.317C434.197 241.805 429.512 240.869 426.358 243.227C423.204 245.585 422.776 250.343 425.401 253.856C428.027 257.368 432.712 258.304 435.866 255.946Z" fill="white" stroke="#201F23" stroke-width="3" stroke-linecap="round" stroke-linejoin="round"/>
<path d="M451.213 258.756C454.172 256.543 454.574 252.078 452.111 248.783C449.647 245.487 445.251 244.609 442.292 246.822C439.333 249.034 438.931 253.499 441.394 256.794C443.858 260.09 448.254 260.968 451.213 258.756Z" fill="white" stroke="#201F23" stroke-width="3" stroke-linecap="round" stroke-linejoin="round"/>
<path d="M490.9 388.28H391.9V408.45H490.9V388.28Z" fill="white"/>
<path d="M490.9 382.62H391.9V388.88H490.9V382.62Z" fill="#1D1D1B"/>
<path d="M35.25 432.01C35.25 419.37 44.41 410.14 58.79 410.14C73.17 410.14 82.33 419.37 82.33 432.01C82.33 444.65 73.17 454.57 58.79 454.57C44.41 454.57 35.25 445.06 35.25 432.01ZM58.78 431.46C60.93 431.46 62.46 429.24 62.46 425.56C62.46 421.32 60.93 418.41 58.78 418.41C56.63 418.41 55.03 421.33 55.03 425.56C55.03 429.24 56.56 431.46 58.78 431.46Z" fill="#201F25"/>
<path d="M112.1 454.58C96.5505 454.58 86.4805 446.46 86.4805 433.4C86.4805 419.1 96.9605 410.14 113.9 410.14C124.24 410.14 135.42 414.93 136.32 423.33V423.95C131.53 420.69 126.18 419.02 119.24 419.02C114.24 419.02 110.28 420.69 110.28 422.7C110.28 423.39 110.77 424.09 111.74 424.09C113.06 424.09 115.84 422.42 120.83 422.42C130.34 422.42 137.7 428.88 137.7 437.14C137.7 447.48 127.63 454.57 112.08 454.57L112.1 454.58ZM112.1 439.86C114.53 439.86 115.78 437.85 115.78 434.65C115.78 430.76 114.53 428.19 112.1 428.19C109.67 428.19 108.35 430.76 108.35 434.65C108.35 437.84 109.6 439.86 112.1 439.86Z" fill="#201F25"/>
<path d="M181.38 454.58C165.83 454.58 155.76 446.46 155.76 433.4C155.76 419.1 166.24 410.14 183.18 410.14C193.52 410.14 204.7 414.93 205.6 423.33V423.95C200.81 420.69 195.46 419.02 188.52 419.02C183.52 419.02 179.56 420.69 179.56 422.7C179.56 423.39 180.05 424.09 181.02 424.09C182.34 424.09 185.12 422.42 190.11 422.42C199.62 422.42 206.98 428.88 206.98 437.14C206.98 447.48 196.91 454.57 181.36 454.57L181.38 454.58ZM181.38 439.86C183.81 439.86 185.06 437.85 185.06 434.65C185.06 430.76 183.81 428.19 181.38 428.19C178.95 428.19 177.63 430.76 177.63 434.65C177.63 437.84 178.88 439.86 181.38 439.86Z" fill="#201F25"/>
<path d="M245.74 453.19H219.22C219.01 445 221.86 438.82 221.86 432.71C221.86 429.59 219.98 427.85 216.44 427.85C214.36 427.85 212.14 428.13 210.19 428.68V415.7C222.2 415.7 231.78 410.15 245.74 410.15C243.66 426.12 243.66 441.39 245.74 453.19Z" fill="#201F25"/>
<path d="M298.77 453.19H270.17C270.17 431.32 284.47 432.78 284.47 426.32C284.47 424.86 283.22 423.96 281.35 423.96C276 423.96 269.76 425.07 264.48 426.6L262.95 411.53H312.52C310.09 428.89 298.77 437.22 298.77 453.19Z" fill="#201F25"/>
<path d="M315.5 432.01C315.5 419.37 324.66 410.14 339.04 410.14C353.42 410.14 362.58 419.37 362.58 432.01C362.58 444.65 353.42 454.57 339.04 454.57C324.66 454.57 315.5 445.06 315.5 432.01ZM339.04 431.46C341.19 431.46 342.72 429.24 342.72 425.56C342.72 421.32 341.19 418.41 339.04 418.41C336.89 418.41 335.29 421.33 335.29 425.56C335.29 429.24 336.82 431.46 339.04 431.46Z" fill="#201F25"/>
<path d="M380.62 440.28C380.62 433.82 384.99 430.42 392.08 429.87C393.88 429.73 394.72 429.18 394.72 428.2C394.72 427.3 393.89 426.6 392.08 426.26C388.33 425.57 384.79 423.97 384.79 419.32C384.79 412.86 392.43 410.16 408.19 410.16C423.95 410.16 431.03 412.87 431.03 419.32C431.03 423.97 427.49 425.57 423.74 426.26C421.93 426.61 421.1 427.3 421.1 428.2C421.1 429.17 421.93 429.73 423.74 429.87C430.82 430.42 435.2 433.83 435.2 440.28C435.2 449.44 425.06 454.58 408.19 454.58C391.32 454.58 380.63 449.44 380.63 440.28H380.62ZM408.18 441.32C410.05 441.32 411.44 439.31 411.44 436.95C411.44 433.96 410.05 431.67 408.18 431.67C406.17 431.67 405.06 433.96 405.06 436.95C405.06 439.31 406.17 441.32 408.18 441.32ZM408.18 426.18C410.33 426.18 411.23 424.51 411.23 422.29C411.23 419.79 410.33 417.64 408.18 417.64C406.03 417.64 405.26 419.79 405.26 422.29C405.26 424.51 405.95 426.18 408.18 426.18Z" fill="#201F25"/>
<path d="M439.35 440.28C439.35 433.82 443.72 430.42 450.81 429.87C452.61 429.73 453.45 429.18 453.45 428.2C453.45 427.3 452.62 426.6 450.81 426.26C447.06 425.57 443.52 423.97 443.52 419.32C443.52 412.86 451.16 410.16 466.92 410.16C482.68 410.16 489.76 412.87 489.76 419.32C489.76 423.97 486.22 425.57 482.47 426.26C480.67 426.61 479.83 427.3 479.83 428.2C479.83 429.17 480.66 429.73 482.47 429.87C489.55 430.42 493.93 433.83 493.93 440.28C493.93 449.44 483.79 454.58 466.92 454.58C450.05 454.58 439.36 449.44 439.36 440.28H439.35ZM466.91 441.32C468.79 441.32 470.17 439.31 470.17 436.95C470.17 433.96 468.78 431.67 466.91 431.67C464.9 431.67 463.79 433.96 463.79 436.95C463.79 439.31 464.9 441.32 466.91 441.32ZM466.91 426.18C469.06 426.18 469.96 424.51 469.96 422.29C469.96 419.79 469.06 417.64 466.91 417.64C464.76 417.64 463.99 419.79 463.99 422.29C463.99 424.51 464.68 426.18 466.91 426.18Z" fill="#201F25"/>
<path d="M537.58 410.14C553.13 410.14 563.2 417.92 563.2 431.66C563.2 445.4 552.09 454.57 536.19 454.57C522.17 454.57 513.07 446.59 513.07 434.71V434.09C515.78 437.08 520.57 438.81 525.84 438.81C534.24 438.81 540.77 434.85 540.77 431.45C540.77 430.62 540.22 430.06 539.38 430.06C536.88 430.06 535.35 435.54 525.98 435.54C517.93 435.54 513.34 431.17 513.34 424.99C513.34 415.13 522.44 410.13 537.57 410.13L537.58 410.14ZM536.2 426.46C538.49 426.46 539.95 424.58 539.95 421.95C539.95 418.27 538.49 415.84 536.2 415.84C533.91 415.84 532.52 418.27 532.52 421.95C532.52 424.59 533.98 426.46 536.2 426.46Z" fill="#201F25"/>
<path d="M590.28 424.45C590.28 423.06 588.54 422.65 585.21 422.65C581.53 422.65 574.59 424.32 568.62 428.97L568.2 410.85C575.42 413.63 587.92 410.16 598.82 410.16C608.12 410.16 614.58 412.94 614.58 420.71C614.58 434.94 592.02 429.6 592.02 434.25C592.02 435.92 594.1 436.54 597.02 436.54C601.88 436.54 609.31 434.67 614.79 431.47L614.03 453.2H567.37V439.66C567.37 423.76 590.28 429.25 590.28 424.45Z" fill="#201F25"/>
</g>
<defs>
<clipPath id="clip0_202_693">
<rect width="665.02" height="495.45" fill="white"/>
</clipPath>
</defs>
</svg>
