<?xml version="1.0" encoding="UTF-8"?><svg id="Calque_2" xmlns="http://www.w3.org/2000/svg" viewBox="0 0 271.11 415.3"><defs><style>.cls-1{fill:none;}.cls-1,.cls-2,.cls-3,.cls-4{stroke:#201f23;stroke-width:6px;}.cls-1,.cls-4{stroke-miterlimit:10;}.cls-2{fill:#1d1d1b;}.cls-2,.cls-3{stroke-linecap:round;stroke-linejoin:round;}.cls-3{fill:#ff5e38;}.cls-4{fill:#ffa956;}</style></defs><g id="Calque_1-2"><path class="cls-3" d="M199.75,11.44s-61.65,40.49-99.67,100.91c-38.02,60.42-49.16,134.54-49.16,134.54l50.93-45.53s-8.85-28.71,20.35-75.12c29.2-46.4,57.34-48.36,57.34-48.36l20.2-66.44Z"/><path class="cls-3" d="M253.23,10.31c10.81,6.8,18.34,12.75,6.23,36.36-7.27,14.16-30.4,47.74-39.49,55.1-8.25,6.69-16.46.63-22.35-3.07-23.2-14.59-29.55-46.21-14.19-70.62,15.36-24.41,46.61-32.36,69.8-17.77Z"/><path class="cls-3" d="M128.44,208.64c11.5,7.24,18.36,13.74,4.8,38.21-6.78,12.23-29.55,45.93-37.6,52.52s-16.87,1.4-22.81-2.34c-23.2-14.59-29.55-46.21-14.19-70.62s46.61-32.36,69.8-17.77Z"/><ellipse class="cls-4" cx="225.43" cy="54.5" rx="52.21" ry="22.32" transform="translate(59.25 216.28) rotate(-57.82)"/><ellipse class="cls-4" cx="100.64" cy="252.83" rx="52.21" ry="22.32" transform="translate(-166.96 203.37) rotate(-57.82)"/><path class="cls-2" d="M262.12,17.13c10.43,6.56,7,30.79-8.36,55.2-15.36,24.41-35.71,37.99-46.14,31.42-10.43-6.56-7-30.79,8.36-55.2,15.36-24.41,35.71-37.99,46.14-31.42Z"/><path class="cls-2" d="M137.33,215.47c10.43,6.56,7,30.79-8.36,55.2-15.36,24.41-35.71,37.99-46.14,31.42s-7-30.79,8.36-55.2c15.36-24.41,35.71-37.99,46.14-31.42Z"/><path class="cls-1" d="M53.97,274.39s-11.11.57-10.52,12.11,11.13,22.55,16.07,19.25c4.27-2.85-2.14-9.4-8.44-12.95-6.81-3.83-16.67-4.4-19.92,3.41-3.24,7.81,6.95,21.21,13.51,23.76s10.16-1.04,8.12-4.75c-4.14-7.53-25.47-8.03-29,.37-3.52,8.4,7.79,21.46,13.02,23.15,7.1,2.29,9.96-3.18,5.36-6.5-7.82-5.64-24.77-8.54-29.78,4.76-3.64,9.65,8.88,19.74,17.73,19.35,6.39-.28,6.3-4.98,3.97-6.69-4.55-3.34-20.7-6.21-27.89,4.26-4.72,6.87.35,18.31,9.43,20.05,8.49,1.63,16.88.34,16.54-5.26-.31-5.1-10.68-5.24-18.08-.91-6.44,3.77-12.57,8.12-10.81,16.78,2.27,11.22,28.47,13.45,28.97,4.84.23-3.98-6.01-6.11-13.46-2.45-9.91,4.87-20.25,13.14-5.54,26.07"/></g></svg>