<?xml version="1.0" encoding="UTF-8"?>
<svg xmlns="http://www.w3.org/2000/svg" version="1.1" viewBox="0 0 800.6 585.6">
  <defs>
    <style>
      .cls-1, .cls-2, .cls-3, .cls-4, .cls-5 {
        stroke: #201f25;
        stroke-linejoin: round;
        stroke-width: 6px;
      }

      .cls-1, .cls-2, .cls-4, .cls-5 {
        stroke-linecap: round;
      }

      .cls-1, .cls-6 {
        fill: #fff;
      }

      .cls-2, .cls-3 {
        fill: none;
      }

      .cls-7 {
        fill: #ff5e38;
      }

      .cls-8, .cls-5 {
        fill: #ffa956;
      }

      .cls-4 {
        fill: #144fe7;
      }
    </style>
  </defs>
  <!-- Generator: Adobe Illustrator 28.7.0, SVG Export Plug-In . SVG Version: 1.2.0 Build 136)  -->
  <g>
    <g id="Calque_1">
      <g id="Calque_1-2" data-name="Calque_1">
        <g>
          <path class="cls-6" d="M292.4,317.6l23-19.4s-.3-2.9-.9-7c-.1-4.4-.9-10.3-3.7-16.6-1.1-3.3-2.4-6.2-3.9-8.3-2.2-3-5.4-6-9.1-8.7-4.9-4.1-10-6.8-14.5-8.5-2.2-.9-4.1-1.5-5.7-1.8h0c-5-1.2-8.3-1.3-8.3-1.3l-2.2,1.9h0l-21.6,18.4h0l-72.3,61.6c-36.5,30.8-75.7,64.5-75.7,64.5l-5.7,28.5-.8-.8-4.5,27.1,55.8-2.1,4.8-4c14.7-6.5,67-54.2,100.6-85.6l44.7-38.1c.1.4.2.6.2.6l-.2-.4Z"/>
          <path class="cls-6" d="M680,175.5c-91.5-44.5-250.9-8.8-269.7-4.3-5.5-4.9-9.4-6.8-9.4-6.8l-53.3,10.9h-.9c-17.7-23.9-52.3-53.3-111.5-42.4-60.3,11.1-60.8,62.6-60.8,62.6h0c-1.2,1.9-2.4,3.8-3.5,5.8-16.6,31.2-6,52.2,8.8,56.4l2.5-4.7c-2.5,21.1,4.9,33,18.2,36.6,12,3.2,25.2-2.5,34.6-25.3,7.3-17.8,28.1-50.9,70.9-32.2,35.4,15.5,34.2,56.4,24.9,71-14.1,22.1-30,9.9-47.9,24.2-13.4,10.8-8.3,34.8,12.2,41.7,28.9,9.7,62.5-3.3,83.5-29.2,20.1-24.7,24.5-54.1,24.5-54.1l28.8-5.9s3.1-5.1,5.7-13.7l.9,2.7c172.3-40.8,264.5,16.2,264.5,16.2,0,0,74.2-62.2-23.1-109.5h0Z"/>
        </g>
        <g>
          <path class="cls-7" d="M247.9,265.5s10.3,2.1,18.6,9.2c8.3,7,14.2,12.4,17.7,19.1s8.9,22.7,8.9,22.7l23-19.4s-2.2-23.4-8.5-32c-6.3-8.7-21.8-17.8-29.3-19-7.6-1.3-10.6.6-10.6.6l-19.7,18.9h-.1Z"/>
          <g>
            <polygon class="cls-8" points="86.9 445.7 115 444.6 91.5 418.6 86.9 445.7"/>
            <path class="cls-8" d="M105,393.7s39.3,10.3,37.7,49.8c-.3,8,134.6-117.3,134.6-117.3,0,0-9.7-40.4-42.3-49.7-4.6.8-137.1,114.4-137.1,114.4l7.1,2.7h0Z"/>
            <g>
              <path class="cls-2" d="M314.6,297.2l-171.9,146.3-55.8,2.1,11-54.7,171.9-146.3s19.7.3,34.2,17.1c14.6,16.8,10.6,35.5,10.6,35.5h0Z"/>
              <path class="cls-2" d="M101.3,393.7s15.8,1.1,29.2,15.8c13.5,14.7,11.4,31.9,11.4,31.9"/>
              <path class="cls-2" d="M91.5,423.1c13.9,2.5,19.3,20.3,19.3,20.3"/>
              <path class="cls-2" d="M246,265s17.6,3.7,31.4,19.4c13.8,15.7,14.7,32.1,14.7,32.1"/>
              <path class="cls-2" d="M235,276.5s14.6,4.1,29.2,19c13.6,13.9,13.1,30.7,13.1,30.7"/>
              <line class="cls-3" x1="253.5" y1="288.8" x2="121.2" y2="401.4"/>
              <line class="cls-3" x1="271.3" y1="305" x2="137.2" y2="419.1"/>
            </g>
            <path class="cls-5" d="M439.3,267.7c172.3-40.8,264.5,16.2,264.5,16.2,0,0,74.2-62.2-23.1-109.5-97.4-47.4-271.5-3.9-271.5-3.9l14.8,47.6,15.4,49.7h-.1Z"/>
            <path class="cls-1" d="M250.4,173.9s-47.2,4.6-63.9,61.9c-9.1,31.1-1.5,48.2,14.8,52.6,12,3.2,25.2-2.5,34.6-25.3,7.3-17.8,28.1-50.9,70.9-32.2,35.4,15.5,34.2,56.4,24.9,71-14.1,22.1-30,9.9-47.9,24.2-13.4,10.8-8.3,34.8,12.2,41.7,28.9,9.7,62.5-3.3,83.5-29.2,20.1-24.7,24.5-54.1,24.5-54.1l28.8-5.9s17.7-29.1,4.2-67.1-35.4-48.3-35.4-48.3l-53.3,10.9"/>
            <path class="cls-4" d="M408.3,167.7"/>
            <path class="cls-2" d="M180.5,256.6c-14.8-4.2-25.4-25.2-8.8-56.4,19-35.6,65.1-47.2,65.1-47.2"/>
            <path class="cls-2" d="M175.2,194.3s.4-51.4,60.8-62.6c95.2-17.6,126.8,69.3,126.8,69.3"/>
          </g>
        </g>
      </g>
    </g>
  </g>
</svg>