<svg width="12" height="10" viewBox="0 0 12 10" fill="none" xmlns="http://www.w3.org/2000/svg">
<path d="M1.09789 5.88972L4.98954 9.53129C5.15107 9.6824 5.36428 9.76658 5.5861 9.76658C5.80793 9.76658 6.02114 9.6824 6.18267 9.53129L10.0743 5.88972C10.729 5.27883 11.0995 4.42186 11.0995 3.52604V3.40084C11.0995 1.89197 10.0119 0.605438 8.52799 0.357198C7.54593 0.193144 6.54663 0.514777 5.84454 1.21848L5.5861 1.47752L5.32767 1.21848C4.62558 0.514777 3.62628 0.193144 2.64421 0.357198C1.16035 0.605438 0.0727539 1.89197 0.0727539 3.40084V3.52604C0.0727539 4.42186 0.443182 5.27883 1.09789 5.88972Z" fill="#E73928"/>
</svg>
