<svg width="2582" height="525" viewBox="0 0 2582 525" fill="none" xmlns="http://www.w3.org/2000/svg">
<path d="M2371.1 209.4C2387.2 201.1 2404.1 195.5 2421.8 192.8C2422.2 192.8 2422.5 192.6 2422.8 192.3C2431.3 184.5 2440.3 177.6 2449.8 171.5C2467.7 160.1 2486.9 156 2510.8 150.2C2520.4 147.9 2530.7 143.8 2538.1 136.9C2540.9 134.3 2543 131.6 2544.3 128.8C2550.1 116.7 2547.4 104.1 2536.2 96.3999C2526.8 89.8999 2514.7 87.0999 2503.6 85.8999C2477.8 83.1999 2453 86.4999 2429.3 95.7999C2386 112.7 2352.5 146.1 2327.6 184.6C2319.6 196.9 2312.4 209.7 2305.8 223C2304.5 225.6 2303.3 227.4 2302.1 228.2C2300.1 229.6 2297.9 230 2295.3 229.4C2290.3 228.1 2288.3 224.7 2289.2 219.2C2289.3 218.6 2289.9 217.2 2291 215C2314.4 167.5 2346.9 123.7 2392.4 95.3999C2414.1 81.9999 2437.8 73.2999 2463.6 69.4999C2464.5 69.3999 2465.5 68.6999 2466.8 67.4999C2472.2 62.2999 2477.1 55.1999 2478.3 47.6999C2480.3 35.1999 2473.9 23.9999 2461.9 19.6999C2456.4 17.7999 2450.8 16.7999 2445 16.8999C2435.9 16.8999 2426.6 18.1999 2417.1 20.4999C2403.1 23.8999 2390.2 28.9999 2378.6 35.7999C2351 51.7999 2327.8 74.8999 2309.6 101.1C2293.8 123.8 2280.8 148.8 2270.6 176C2267.8 183.4 2265.8 188.8 2264.7 192.2C2264.1 194 2263.4 195.3 2262.6 196.1C2257.8 201.2 2249.6 198.6 2248.2 192C2247.9 190.7 2248.2 188.5 2249.3 185.5C2261.1 150.4 2276.8 118.7 2296.4 90.5999C2303.3 80.6999 2312 70.0999 2322.4 58.9999C2322.7 58.6999 2322.6 58.5999 2322.2 58.5999C2307.6 60.3999 2294.7 66.4999 2283.5 76.9999C2276 83.9999 2269.4 91.8999 2263.6 100.8C2256.8 111.2 2250.7 121.9 2245.3 133C2238.3 147.3 2232.5 159.1 2227.9 168.2C2225.1 173.7 2221.8 179.5 2217.8 185.5C2209.1 198.6 2195.6 206 2180.2 208.4C2169.5 210 2157.5 210.2 2144.1 208.8C2131.9 207.6 2120.2 206 2108.8 204.1C2065.8 196.8 2030.1 190.5 1990.5 187.9C1963.2 186.1 1936.6 186.5 1910.7 189C1870.2 193 1830.6 203.5 1792.5 218.5C1758.4 231.9 1724.8 248.9 1693.4 266.6C1655.3 288 1614.1 313.2 1574 334.5C1553 345.7 1532.4 355.1 1512.3 362.8C1484.6 373.4 1454.9 380.7 1425.2 382.1C1398 383.4 1370.5 381 1342.8 374.7C1307.3 366.7 1272.8 352.1 1240.3 334.5C1223.9 325.6 1207.7 316.3 1191.7 306.5C1162.6 288.6 1138.8 274.3 1120.3 263.4C1099.3 251.1 1077.6 239.8 1055.2 229.5C993 200.8 927.7 185.2 859.1 182.9C834.4 182 808.3 182.5 780.9 184.3C703.7 189.3 630.7 206.5 562.1 236C541.2 245 521.1 254.6 501.9 264.8C464.8 284.5 428.8 306.3 394.7 325.1C374.1 336.5 355.6 345.5 339.2 352.1C288.1 372.6 234.7 382.1 179 380.4C123.1 378.7 69.5004 366.7 18.2004 344.3C17.9004 344.2 17.7004 344.3 17.7004 344.6C16.3004 359.3 16.8004 373.3 19.3004 386.8C25.7004 421.4 43.5004 448.3 72.7004 467.4C95.5004 482.3 122.7 490.7 149.5 494.9C175.1 498.9 201.5 500 228 499.1C263.6 497.8 296.5 493.9 326.7 487.3C361.2 479.8 394.1 468 425.4 451.7C454.6 436.5 476.9 421.8 512.8 398.9C524.5 391.5 536.3 384.3 548.4 377.4C591.7 352.7 637.6 334.8 686.2 323.6C727.4 314.2 767.1 308.8 805.3 307.6C851.6 306.1 897.3 311.7 942.5 324.4C963.4 330.3 982.8 337 1000.8 344.4C1027.9 355.6 1055.9 369.1 1084.9 384.9C1113.1 400.2 1156 424.7 1192.8 443.9C1216.1 456 1239.2 466.6 1262.1 475.4C1305.6 492.3 1351.6 502.4 1398.3 503.2C1403.6 503.2 1410.2 503.2 1418.3 503.2C1448.1 502.8 1477.3 499.7 1506 493.8C1530.8 488.8 1554.7 481.8 1577.8 472.9C1607.4 461.5 1638 446.2 1669.4 427C1702.3 407 1733.6 385.6 1765.1 366.2C1782 355.8 1799.2 346.5 1816.7 338.4C1835.6 329.6 1855.9 322.8 1875.9 318.2C1911.5 309.9 1948.1 306.5 1985.7 308C2022.7 309.4 2058.5 315.6 2093.3 326.4C2128.6 337.4 2161.7 353.6 2191.3 375.4C2197.9 380.3 2202.5 383.8 2205 386.1C2212.5 392.8 2221 400.2 2230.4 408.3C2250.3 425.5 2270.9 441.1 2292.2 455.1C2307.2 465 2322.9 473.8 2339.3 481.7C2367.2 495 2396.1 503.4 2425.8 506.9C2443.3 508.9 2459.8 508.3 2475.2 505C2487.4 502.4 2498.5 497.8 2508.3 491.1C2514.6 486.9 2520.2 481.4 2525.3 474.8C2525.5 474.5 2525.5 474.2 2525.3 473.9L2500.6 432.5C2500.4 432.2 2500.2 432.1 2499.9 432.3C2484.1 441.7 2467.4 446.7 2449.2 445.4C2439.7 444.7 2430.4 442.1 2421.5 437.6C2409.8 431.7 2398.4 422.7 2390.8 412.1C2381.5 399.2 2376.6 384.7 2375.9 368.3C2375 346 2382.1 323.3 2397.8 307.4C2401.9 303.2 2406.7 299.6 2412.1 296.6C2421.4 291.3 2430.7 287.5 2439.8 285C2461 279.3 2480.8 282.5 2499.1 294.5C2505.6 298.7 2513.2 304.4 2521.9 311.6C2524.6 313.8 2528.2 316.2 2532.7 318.7C2540 322.8 2547.2 322.7 2554.1 318.4C2556.5 316.9 2558.2 315.3 2559.3 313.6C2562.9 308.2 2564.6 301.7 2564.5 294.2C2564.4 285.5 2562.8 277.4 2559.7 270.1C2552.6 253.3 2541.1 239.7 2525.3 229.4C2515.8 223.2 2505.6 218.4 2494.7 215.2C2478.2 210.2 2460.9 207.8 2442.8 208C2441.3 208 2439.6 208.1 2437.5 208.3C2433.2 208.7 2428.2 209 2424.3 209.6C2393.9 214.5 2367.7 227.7 2345.7 249.2C2345.7 249.2 2344.4 250.5 2342 253C2340.4 254.6 2339 255.7 2337.8 256.1C2331.3 258.4 2324.9 252.8 2326.5 246C2326.9 244.1 2327.9 242.5 2329.4 241.1C2331.4 239.2 2333.4 237.2 2335.3 235.3" stroke="#908F91" stroke-width="2"/>
<path d="M2446 0C2453.6 0.2 2460.8 1.5 2467.6 3.8C2476.6 7 2483.5 12.3 2488.5 19.8C2492.2 25.3 2494.4 31.5 2495.1 38.4C2496.3 48.8 2494 58.6 2488.2 67.8C2488 68.1 2488.1 68.3 2488.5 68.3C2500.8 68.2 2512.6 69.6 2523.9 72.6C2542.8 77.6 2559.7 88.9 2563.5 108.9C2566.2 122.9 2561.1 138.4 2550.8 148.2C2544.7 154 2537.8 158.5 2530.3 161.5C2524 164 2517.9 166 2512.1 167.3C2501.2 169.8 2492.4 172 2485.8 174C2473.3 177.6 2462 183.1 2451.7 190.7C2451.3 191 2451.4 191.1 2451.8 191.1C2469.9 191.6 2487.4 194.7 2504.2 200.4C2515.7 204.3 2526.5 209.7 2536.9 216.8C2556.9 230.5 2572.9 250.8 2579 274.3C2580.8 281.2 2581.7 288.1 2581.6 295.1C2581.6 298.1 2581.2 301.8 2580.4 306.1C2579 313.9 2575.8 320.8 2570.8 326.6C2567.3 330.7 2562.7 333.8 2556.9 336C2546.4 340 2536.1 339.5 2526.1 334.5C2521.9 332.4 2518.2 330.2 2515.1 327.8C2512.4 325.8 2506.2 321 2496.5 313.4C2493.5 311 2489.7 308.6 2485.3 306.1C2472.7 299 2459.5 297.3 2445.6 300.9C2435.6 303.5 2426.5 307.4 2418 312.6C2411.7 316.5 2406.6 321.6 2402.7 327.8C2394.3 341.2 2391 355.9 2392.7 371.8C2394.2 386.2 2399.7 398.3 2409 408C2419.6 419 2433.9 427.1 2449.3 428.7C2465.2 430.3 2481.5 424.7 2494.3 415.5C2497.5 413.2 2499.9 411.9 2501.4 411.6C2505 410.9 2507.9 412.4 2510.2 416.2C2520.6 433.7 2531.1 451.3 2541.5 468.8C2542.6 470.7 2543.3 472.3 2543.4 473.6C2543.6 475.5 2543.3 477.3 2542.3 478.8C2535.4 490.2 2526.2 499.6 2514.6 506.9C2505.4 512.6 2495.7 516.9 2485.2 519.8C2475.3 522.5 2465.3 524.1 2455.2 524.5C2446.2 524.9 2439.9 525 2436.4 524.8C2403.5 522.6 2371.6 514.7 2340.8 501.1C2323.5 493.5 2306.8 484.6 2290.7 474.5C2268.7 460.6 2247.6 445.3 2227.7 428.5C2219.1 421.3 2211.3 414.6 2204.3 408.3C2197.2 402 2192.1 397.6 2189 395.2C2165.3 376.5 2139.5 361.8 2111.4 350.9C2063.5 332.4 2013.4 323.7 1961 324.7C1928.1 325.4 1897.1 329.7 1868.1 337.7C1849.5 342.8 1831.5 349.7 1814.8 358C1795.7 367.5 1776.1 378.8 1756 391.7C1722.7 413.2 1703.6 425.5 1698.7 428.7C1660.8 452.9 1620.9 475 1578.5 490.6C1525.4 510.2 1470 520 1412.5 520C1410.8 520 1408.7 520.3 1406.7 520.2C1404.5 520.1 1403.4 520 1403.3 520C1370.9 519.8 1339.2 515.8 1308.3 507.9C1284.7 501.8 1262.1 494.2 1240.5 485C1214.4 474 1187.9 461 1160.9 446.2C1138.7 434 1116.6 421.8 1094.8 409.6C1066.5 393.8 1039.8 380.2 1014.7 368.8C992.5 358.7 970.3 350.3 948 343.5C891.5 326.2 833.7 320.4 774.5 326.2C743.4 329.2 713.2 334.3 684.1 341.3C640.7 351.8 599.6 367.9 560.7 389.7C533.8 404.8 514.4 417.6 483.5 437.3C468.2 447.1 452.5 456.2 436.4 464.7C394.6 486.8 349.5 501.5 302.3 508.8C267.3 514.2 232.3 516.6 197.1 515.9C191.2 515.8 183.7 515.4 174.5 514.7C154 513.2 134.5 509.8 116.1 504.7C91.9 498 68.8 487.2 49.6 471.3C27.8 453.3 13.2 430.5 5.6 402.9C2.5 391.8 0.7 379.9 0 367.3V353.1C0.5 344.5 1.4 337 2.6 330.6C3.5 326 6 323.5 10.1 323.1C11.8 323 13.9 323.5 16.4 324.7C43.4 337.8 73.1 347.8 105.3 354.6C142.6 362.5 179.5 365.3 216.2 362.9C259.3 360.1 300.8 350.2 340.4 333.2C351.4 328.5 364.4 322.1 379.3 314.1C391.5 307.6 414.5 294.5 448.3 274.8C472.5 260.7 497.4 247.4 523.2 234.9C587.8 203.5 656.7 182.3 727.9 172.6C771.1 166.7 815 164.5 859.8 166C924.4 168.2 986.2 181.8 1045.2 206.7C1068.3 216.5 1090.8 227.5 1112.8 239.8C1127.1 247.8 1141.1 255.9 1154.6 264.2C1204.4 294.5 1233.7 313.5 1275.6 333.4C1301.1 345.5 1326.9 354.3 1352.9 359.7C1377.7 364.8 1402.6 366.6 1427.7 365.1C1440.5 364.3 1453.7 362.3 1467.5 359C1500.2 351.1 1532.2 337.1 1562.7 321.2C1577.9 313.2 1592.7 305.1 1607 296.8C1636.2 279.9 1658.4 267 1673.5 258.3C1715.2 234.3 1757.5 212.9 1802.6 196.6C1843.7 181.8 1885.5 173.2 1928.1 170.7C1942.1 169.9 1956.5 169.7 1971.3 170.2C1997.4 171 2024.5 173.6 2052.8 177.9C2067.6 180.2 2090.3 183.9 2120.9 189.1C2123.5 189.5 2129.6 190.4 2139.5 191.6C2147.9 192.6 2156.6 193.1 2165.6 192.9C2172.6 192.8 2179.1 191.8 2185.2 189.8C2193.3 187.2 2199.6 182.3 2204.2 175.1C2207.8 169.4 2210.9 163.9 2213.6 158.5C2226 133.5 2232.3 120.6 2232.7 119.8C2239.5 106.3 2247.2 93.8 2255.8 82.2C2261.2 74.9 2267.7 68.1 2275.1 61.8C2293.5 46.2 2314.9 39.7 2339.3 42.3C2339.8 42.3 2340.3 42.2 2340.7 41.9C2347.2 36.3 2354.1 31.5 2361.3 26.7C2385.7 10.7 2412.7 1.9 2442.2 0.3H2445.7L2446 0ZM2335.2 235.3C2346.1 225 2358 216.4 2371.2 209.4C2387.3 201.1 2404.2 195.5 2421.9 192.8C2422.3 192.8 2422.6 192.6 2422.9 192.3C2431.4 184.5 2440.4 177.6 2449.9 171.5C2467.8 160.1 2487 156 2510.9 150.2C2520.5 147.9 2530.8 143.8 2538.2 136.9C2541 134.3 2543.1 131.6 2544.4 128.8C2550.2 116.7 2547.5 104.1 2536.3 96.4C2526.9 89.9 2514.8 87.1 2503.7 85.9C2477.9 83.2 2453.1 86.5 2429.4 95.8C2386.1 112.7 2352.6 146.1 2327.7 184.6C2319.7 196.9 2312.5 209.7 2305.9 223C2304.6 225.6 2303.4 227.4 2302.2 228.2C2300.2 229.6 2298 230 2295.4 229.4C2290.4 228.1 2288.4 224.7 2289.3 219.2C2289.4 218.6 2290 217.2 2291.1 215C2314.5 167.5 2347 123.7 2392.5 95.4C2414.2 82 2437.9 73.3 2463.7 69.5C2464.6 69.4 2465.6 68.7 2466.9 67.5C2472.3 62.3 2477.2 55.2 2478.4 47.7C2480.4 35.2 2474 24 2462 19.7C2456.5 17.8 2450.9 16.8 2445.1 16.9C2436 16.9 2426.7 18.2 2417.2 20.5C2403.2 23.9 2390.3 29 2378.7 35.8C2351.1 51.8 2327.9 74.9 2309.7 101.1C2293.9 123.8 2280.9 148.8 2270.7 176C2267.9 183.4 2265.9 188.8 2264.8 192.2C2264.2 194 2263.5 195.3 2262.7 196.1C2257.9 201.2 2249.7 198.6 2248.3 192C2248 190.7 2248.3 188.5 2249.4 185.5C2261.2 150.4 2276.9 118.7 2296.5 90.6C2303.4 80.7 2312.1 70.1 2322.5 59C2322.8 58.7 2322.7 58.6 2322.3 58.6C2307.7 60.4 2294.8 66.5 2283.6 77C2276.1 84 2269.5 91.9 2263.7 100.8C2256.9 111.2 2250.8 121.9 2245.4 133C2238.4 147.3 2232.6 159.1 2228 168.2C2225.2 173.7 2221.9 179.5 2217.9 185.5C2209.2 198.6 2195.7 206 2180.3 208.4C2169.6 210 2157.6 210.2 2144.2 208.8C2132 207.6 2120.3 206 2108.9 204.1C2065.9 196.8 2030.2 190.5 1990.6 187.9C1963.3 186.1 1936.7 186.5 1910.8 189C1870.3 193 1830.7 203.5 1792.6 218.5C1758.5 231.9 1724.9 248.9 1693.5 266.6C1655.4 288 1614.2 313.2 1574.1 334.5C1553.1 345.7 1532.5 355.1 1512.4 362.8C1484.7 373.4 1455 380.7 1425.3 382.1C1398.1 383.4 1370.6 381 1342.9 374.7C1307.4 366.7 1272.9 352.1 1240.4 334.5C1224 325.6 1207.8 316.3 1191.8 306.5C1162.7 288.6 1138.9 274.3 1120.4 263.4C1099.4 251.1 1077.7 239.8 1055.3 229.5C993.1 200.8 927.8 185.2 859.2 182.9C834.5 182 808.4 182.5 781 184.3C703.8 189.3 630.8 206.5 562.2 236C541.3 245 521.2 254.6 502 264.8C464.9 284.5 428.9 306.3 394.8 325.1C374.2 336.5 355.7 345.5 339.3 352.1C288.2 372.6 234.8 382.1 179.1 380.4C123.2 378.7 69.6 366.7 18.3 344.3C18 344.2 17.8 344.3 17.8 344.6C16.4 359.3 16.9 373.3 19.4 386.8C25.8 421.4 43.6 448.3 72.8 467.4C95.6 482.3 122.8 490.7 149.6 494.9C175.2 498.9 201.6 500 228.1 499.1C263.7 497.8 296.6 493.9 326.8 487.3C361.3 479.8 394.2 468 425.5 451.7C454.7 436.5 477 421.8 512.9 398.9C524.6 391.5 536.4 384.3 548.5 377.4C591.8 352.7 637.7 334.8 686.3 323.6C727.5 314.2 767.2 308.8 805.4 307.6C851.7 306.1 897.4 311.7 942.6 324.4C963.5 330.3 982.9 337 1000.9 344.4C1028 355.6 1056 369.1 1085 384.9C1113.2 400.2 1156.1 424.7 1192.9 443.9C1216.2 456 1239.3 466.6 1262.2 475.4C1305.7 492.3 1351.7 502.4 1398.4 503.2C1403.7 503.2 1410.3 503.2 1418.4 503.2C1448.2 502.8 1477.4 499.7 1506.1 493.8C1530.9 488.8 1554.8 481.8 1577.9 472.9C1607.5 461.5 1638.1 446.2 1669.5 427C1702.4 407 1733.7 385.6 1765.2 366.2C1782.1 355.8 1799.3 346.5 1816.8 338.4C1835.7 329.6 1856 322.8 1876 318.2C1911.6 309.9 1948.2 306.5 1985.8 308C2022.8 309.4 2058.6 315.6 2093.4 326.4C2128.7 337.4 2161.8 353.6 2191.4 375.4C2198 380.3 2202.6 383.8 2205.1 386.1C2212.6 392.8 2221.1 400.2 2230.5 408.3C2250.4 425.5 2271 441.1 2292.3 455.1C2307.3 465 2323 473.8 2339.4 481.7C2367.3 495 2396.2 503.4 2425.9 506.9C2443.4 508.9 2459.9 508.3 2475.3 505C2487.5 502.4 2498.6 497.8 2508.4 491.1C2514.7 486.9 2520.3 481.4 2525.4 474.8C2525.6 474.5 2525.6 474.2 2525.4 473.9L2500.7 432.5C2500.5 432.2 2500.3 432.1 2500 432.3C2484.2 441.7 2467.5 446.7 2449.3 445.4C2439.8 444.7 2430.5 442.1 2421.6 437.6C2409.9 431.7 2398.5 422.7 2390.9 412.1C2381.6 399.2 2376.7 384.7 2376 368.3C2375.1 346 2382.2 323.3 2397.9 307.4C2402 303.2 2406.8 299.6 2412.2 296.6C2421.5 291.3 2430.8 287.5 2439.9 285C2461.1 279.3 2480.9 282.5 2499.2 294.5C2505.7 298.7 2513.3 304.4 2522 311.6C2524.7 313.8 2528.3 316.2 2532.8 318.7C2540.1 322.8 2547.3 322.7 2554.2 318.4C2556.6 316.9 2558.3 315.3 2559.4 313.6C2563 308.2 2564.7 301.7 2564.6 294.2C2564.5 285.5 2562.9 277.4 2559.8 270.1C2552.7 253.3 2541.2 239.7 2525.4 229.4C2515.9 223.2 2505.7 218.4 2494.8 215.2C2478.3 210.2 2461 207.8 2442.9 208C2441.4 208 2439.7 208.1 2437.6 208.3C2433.3 208.7 2428.3 209 2424.4 209.6C2394 214.5 2367.8 227.7 2345.8 249.2C2345.8 249.2 2344.5 250.5 2342.1 253C2340.5 254.6 2339.1 255.7 2337.9 256.1C2331.4 258.4 2325 252.8 2326.6 246C2327 244.1 2328 242.5 2329.5 241.1C2331.5 239.2 2333.5 237.2 2335.4 235.3H2335.2Z" fill="#201F23"/>
<path d="M2371.1 209.4C2353.2 218.8 2335.1 235.3 2335.1 235.3C2333.2 237.3 2331.2 239.2 2329.2 241.1C2327.7 242.5 2326.8 244.1 2326.3 246C2324.7 252.8 2331 258.3 2337.6 256.1C2338.8 255.7 2340.2 254.7 2341.8 253C2344.3 250.5 2345.5 249.3 2345.5 249.2C2367.5 227.7 2393.7 214.5 2424.1 209.6C2428 209 2433 208.7 2437.3 208.3C2439.4 208.1 2441.2 208 2442.6 208C2460.7 207.8 2478 210.2 2494.5 215.2C2505.3 218.5 2515.5 223.2 2525.1 229.4C2540.9 239.7 2552.4 253.3 2559.5 270.1C2562.6 277.5 2564.2 285.5 2564.3 294.2C2564.3 301.7 2562.7 308.1 2559.1 313.6C2558 315.3 2556.2 316.9 2553.9 318.4C2547 322.7 2539.8 322.8 2532.5 318.7C2528 316.2 2524.4 313.8 2521.7 311.6C2513 304.5 2505.4 298.8 2498.9 294.5C2480.6 282.5 2460.8 279.3 2439.6 285C2430.5 287.4 2421.3 291.3 2411.9 296.6C2406.5 299.7 2401.7 303.3 2397.6 307.4C2381.9 323.2 2374.7 346 2375.7 368.3C2376.4 384.6 2381.4 399.2 2390.6 412.1C2398.2 422.7 2409.6 431.7 2421.3 437.6C2430.2 442.1 2439.5 444.7 2449 445.4C2467.2 446.7 2483.9 441.7 2499.7 432.3C2500 432.1 2500.2 432.2 2500.4 432.5L2525.1 473.9C2525.3 474.2 2525.3 474.5 2525.1 474.8C2520 481.4 2514.3 486.9 2508.1 491.1C2498.3 497.8 2487.2 502.4 2475 505C2459.6 508.3 2443.1 508.9 2425.6 506.9C2395.8 503.4 2367 495 2339.1 481.7C2322.7 473.9 2307 465 2292 455.1C2270.7 441.1 2250.1 425.5 2230.2 408.3C2220.8 400.2 2212.4 392.8 2204.8 386.1C2202.3 383.9 2197.7 380.3 2191.1 375.4C2161.5 353.6 2128.3 337.3 2093.1 326.4C2058.3 315.6 2022.5 309.5 1985.5 308C1947.9 306.5 1911.3 309.9 1875.7 318.2C1855.7 322.8 1835.4 329.7 1816.5 338.4C1799 346.5 1781.8 355.8 1764.9 366.2C1733.4 385.6 1702.1 407 1669.2 427C1637.7 446.1 1607.2 461.4 1577.6 472.9C1554.5 481.8 1530.6 488.8 1505.8 493.8C1477.2 499.6 1447.9 502.7 1418.1 503.2C1410 503.3 1403.4 503.3 1398.1 503.2C1351.5 502.4 1305.5 492.3 1261.9 475.4C1239 466.5 1215.9 456 1192.6 443.9C1155.8 424.7 1112.9 400.2 1084.7 384.9C1055.7 369.2 1027.6 355.7 1000.6 344.4C982.599 336.9 963.199 330.2 942.299 324.4C897.199 311.7 851.399 306 805.099 307.6C766.799 308.9 727.099 314.2 685.999 323.6C637.499 334.7 591.599 352.7 548.199 377.4C536.199 384.3 524.299 391.4 512.599 398.9C476.599 421.8 454.399 436.5 425.199 451.7C393.899 467.9 360.999 479.8 326.499 487.3C296.299 493.8 263.399 497.8 227.799 499.1C201.299 500.1 174.899 499 149.299 494.9C122.499 490.7 95.2992 482.3 72.4992 467.4C43.2992 448.3 25.4992 421.5 19.0992 386.8C16.5992 373.3 16.0992 359.3 17.4992 344.6C17.4992 344.2 17.6992 344.1 17.9992 344.3C69.2992 366.7 122.899 378.7 178.799 380.4C234.499 382.1 287.899 372.7 338.999 352.1C355.399 345.5 373.899 336.5 394.499 325.1C428.499 306.3 464.599 284.5 501.699 264.8C520.899 254.6 540.999 245 561.899 236C630.499 206.5 703.499 189.3 780.699 184.3C808.099 182.5 834.199 182.1 858.899 182.9C927.499 185.3 992.899 200.8 1055 229.5C1077.3 239.8 1099 251.1 1120.1 263.4C1138.6 274.2 1162.4 288.6 1191.5 306.5C1207.4 316.3 1223.6 325.6 1240.1 334.5C1272.6 352.1 1307.1 366.7 1342.6 374.7C1370.3 381 1397.8 383.4 1425 382.1C1454.7 380.6 1484.4 373.4 1512.1 362.8C1532.2 355.1 1552.8 345.7 1573.8 334.5C1613.8 313.2 1655.1 288 1693.2 266.6C1724.7 248.9 1758.2 231.9 1792.3 218.5C1830.4 203.5 1870 193 1910.5 189C1936.4 186.4 1962.9 186 1990.3 187.9C2030 190.6 2065.6 196.8 2108.6 204.1C2119.9 206 2131.7 207.6 2143.9 208.8C2157.3 210.1 2169.3 210 2180 208.4C2195.4 206.1 2208.9 198.7 2217.6 185.5C2221.6 179.5 2225 173.7 2227.7 168.2C2232.2 159.1 2238 147.4 2245.1 133C2250.5 122 2256.6 111.2 2263.4 100.8C2269.2 91.8999 2275.8 83.9999 2283.3 76.9999C2294.5 66.5999 2307.4 60.3999 2322 58.5999C2322.4 58.5999 2322.5 58.5999 2322.2 58.9999C2311.8 70.0999 2303.1 80.5999 2296.2 90.5999C2276.6 118.7 2260.9 150.4 2249.1 185.5C2248.1 188.5 2247.7 190.7 2248 192C2249.4 198.6 2257.6 201.2 2262.4 196.1C2263.2 195.3 2263.9 194 2264.5 192.2C2265.7 188.8 2267.7 183.4 2270.4 176C2280.6 148.8 2293.6 123.8 2309.4 101.1C2327.6 74.9999 2350.8 51.8999 2378.4 35.7999C2390.1 29.0999 2402.9 23.9999 2416.9 20.4999C2426.3 18.1999 2435.6 16.9999 2444.8 16.8999C2450.5 16.8999 2456.1 17.7999 2461.7 19.6999C2473.7 23.8999 2480.1 35.1999 2478.1 47.6999C2476.9 55.1999 2472 62.2999 2466.6 67.4999C2465.4 68.6999 2464.3 69.2999 2463.4 69.4999C2437.6 73.3999 2413.9 81.9999 2392.2 95.3999C2346.7 123.6 2314.1 167.5 2290.8 215C2289.7 217.2 2289.2 218.6 2289 219.2C2288.1 224.7 2290.2 228.1 2295.1 229.4C2297.7 230.1 2299.9 229.7 2301.9 228.2C2303.1 227.4 2304.3 225.6 2305.6 223C2312.1 209.7 2319.4 196.9 2327.4 184.6C2352.3 146.1 2385.7 112.7 2429.1 95.7999C2452.9 86.4999 2477.6 83.1999 2503.4 85.8999C2514.5 87.0999 2526.7 89.8999 2536 96.3999C2547.2 104.1 2549.9 116.7 2544.1 128.8C2542.8 131.6 2540.7 134.3 2537.9 136.9C2530.5 143.8 2520.2 147.9 2510.6 150.2C2486.7 156 2467.5 160.1 2449.6 171.5C2440 177.6 2431 184.5 2422.6 192.3C2422.3 192.6 2422 192.7 2421.6 192.8C2403.9 195.5 2388.8 200 2370.9 209.4H2371.1Z" fill="white"/>
<path d="M0.0996094 361.7L7.99961 384.2L41.1996 463.4L81.9996 491.6L162.2 507.8L305.2 500.5L449.2 450.5L548.2 377.1L694.3 328L841.4 314.7L969.1 341.3L1086.5 394.4L1189.6 455.7L1308.4 507.7L1414.3 513.9L1524.2 506.8L1645.6 459.8L1762.6 376.1L1902.5 314.8C1902.5 314.8 2043.4 319.9 2047.5 320.9C2051.6 321.9 2165.2 358.2 2165.2 358.2L2229.3 418.9L2290.6 465.9C2290.6 465.9 2363.1 501.6 2366.2 502.7C2369.3 503.8 2430.5 513.9 2430.5 513.9L2485.4 519.6L2535.7 488.4L2510.2 425.1L2535.7 475L2491.1 507.5L2441.1 525H0.0996094V361.7Z" fill="#201F23"/>
<path d="M2506.6 412C2506.6 412 2508.79 399.1 2513.1 373.5C2517.41 347.9 2535.1 336.5 2535.1 336.5L2527.1 322.9L2493.9 302.5L2467.3 294.3C2467.3 294.3 2440.7 291.2 2437.7 294.3C2434.7 297.4 2410.1 309.6 2410.1 309.6L2392.7 322.9C2392.7 322.9 2383.5 345.4 2383.5 348.4V386.2L2390.6 412L2421.3 430.1C2421.3 430.1 2443.8 437.2 2450.9 435.2C2458 433.2 2499.7 432.2 2499.7 432.2H2513.1L2506.6 412Z" fill="#201F23"/>
</svg>
