<svg width="2582" height="525" viewBox="0 0 2582 525" fill="none" xmlns="http://www.w3.org/2000/svg">
<path d="M210.507 209.4C194.407 201.1 177.507 195.5 159.807 192.8C159.407 192.8 159.107 192.6 158.807 192.3C150.307 184.5 141.307 177.6 131.807 171.5C113.907 160.1 94.7071 156 70.8071 150.2C61.2071 147.9 50.9071 143.8 43.5071 136.9C40.7071 134.3 38.6071 131.6 37.3071 128.8C31.5071 116.7 34.207 104.1 45.407 96.3999C54.807 89.8999 66.9071 87.0999 78.0071 85.8999C103.807 83.1999 128.607 86.4999 152.307 95.7999C195.607 112.7 229.107 146.1 254.007 184.6C262.007 196.9 269.207 209.7 275.807 223C277.107 225.6 278.307 227.4 279.507 228.2C281.507 229.6 283.707 230 286.307 229.4C291.307 228.1 293.307 224.7 292.407 219.2C292.307 218.6 291.707 217.2 290.607 215C267.207 167.5 234.707 123.7 189.207 95.3999C167.507 81.9999 143.807 73.2999 118.007 69.4999C117.107 69.3999 116.107 68.6999 114.807 67.4999C109.407 62.2999 104.507 55.1999 103.307 47.6999C101.307 35.1999 107.707 23.9999 119.707 19.6999C125.207 17.7999 130.807 16.7999 136.607 16.8999C145.707 16.8999 155.007 18.1999 164.507 20.4999C178.507 23.8999 191.407 28.9999 203.007 35.7999C230.607 51.7999 253.807 74.8999 272.007 101.1C287.807 123.8 300.807 148.8 311.007 176C313.807 183.4 315.807 188.8 316.907 192.2C317.507 194 318.207 195.3 319.007 196.1C323.807 201.2 332.007 198.6 333.407 192C333.707 190.7 333.407 188.5 332.307 185.5C320.507 150.4 304.807 118.7 285.207 90.5999C278.307 80.6999 269.607 70.0999 259.207 58.9999C258.907 58.6999 259.007 58.5999 259.407 58.5999C274.007 60.3999 286.907 66.4999 298.107 76.9999C305.607 83.9999 312.207 91.8999 318.007 100.8C324.807 111.2 330.907 121.9 336.307 133C343.307 147.3 349.107 159.1 353.707 168.2C356.507 173.7 359.807 179.5 363.807 185.5C372.507 198.6 386.007 206 401.407 208.4C412.107 210 424.107 210.2 437.507 208.8C449.707 207.6 461.407 206 472.807 204.1C515.807 196.8 551.507 190.5 591.107 187.9C618.407 186.1 645.007 186.5 670.907 189C711.407 193 751.007 203.5 789.107 218.5C823.207 231.9 856.807 248.9 888.207 266.6C926.307 288 967.507 313.2 1007.61 334.5C1028.61 345.7 1049.21 355.1 1069.31 362.8C1097.01 373.4 1126.71 380.7 1156.41 382.1C1183.61 383.4 1211.11 381 1238.81 374.7C1274.31 366.7 1308.81 352.1 1341.31 334.5C1357.71 325.6 1373.91 316.3 1389.91 306.5C1419.01 288.6 1442.81 274.3 1461.31 263.4C1482.31 251.1 1504.01 239.8 1526.41 229.5C1588.61 200.8 1653.91 185.2 1722.51 182.9C1747.21 182 1773.31 182.5 1800.71 184.3C1877.91 189.3 1950.91 206.5 2019.51 236C2040.41 245 2060.51 254.6 2079.71 264.8C2116.81 284.5 2152.81 306.3 2186.91 325.1C2207.51 336.5 2226.01 345.5 2242.41 352.1C2293.51 372.6 2346.91 382.1 2402.61 380.4C2458.51 378.7 2512.11 366.7 2563.41 344.3C2563.71 344.2 2563.91 344.3 2563.91 344.6C2565.31 359.3 2564.81 373.3 2562.31 386.8C2555.91 421.4 2538.11 448.3 2508.91 467.4C2486.11 482.3 2458.91 490.7 2432.11 494.9C2406.51 498.9 2380.11 500 2353.61 499.1C2318.01 497.8 2285.11 493.9 2254.91 487.3C2220.41 479.8 2187.51 468 2156.21 451.7C2127.01 436.5 2104.71 421.8 2068.81 398.9C2057.11 391.5 2045.31 384.3 2033.21 377.4C1989.91 352.7 1944.01 334.8 1895.41 323.6C1854.21 314.2 1814.51 308.8 1776.31 307.6C1730.01 306.1 1684.31 311.7 1639.11 324.4C1618.21 330.3 1598.81 337 1580.81 344.4C1553.71 355.6 1525.71 369.1 1496.71 384.9C1468.51 400.2 1425.61 424.7 1388.81 443.9C1365.51 456 1342.41 466.6 1319.51 475.4C1276.01 492.3 1230.01 502.4 1183.31 503.2C1178.01 503.2 1171.41 503.2 1163.31 503.2C1133.51 502.8 1104.31 499.7 1075.61 493.8C1050.81 488.8 1026.91 481.8 1003.81 472.9C974.207 461.5 943.607 446.2 912.207 427C879.307 407 848.007 385.6 816.507 366.2C799.607 355.8 782.407 346.5 764.907 338.4C746.007 329.6 725.707 322.8 705.707 318.2C670.107 309.9 633.507 306.5 595.907 308C558.907 309.4 523.107 315.6 488.307 326.4C453.007 337.4 419.907 353.6 390.307 375.4C383.707 380.3 379.107 383.8 376.607 386.1C369.107 392.8 360.607 400.2 351.207 408.3C331.307 425.5 310.707 441.1 289.407 455.1C274.407 465 258.707 473.8 242.307 481.7C214.407 495 185.507 503.4 155.807 506.9C138.307 508.9 121.807 508.3 106.407 505C94.207 502.4 83.1071 497.8 73.3071 491.1C67.0071 486.9 61.4071 481.4 56.3071 474.8C56.1071 474.5 56.1071 474.2 56.3071 473.9L81.0071 432.5C81.2071 432.2 81.407 432.1 81.707 432.3C97.507 441.7 114.207 446.7 132.407 445.4C141.907 444.7 151.207 442.1 160.107 437.6C171.807 431.7 183.207 422.7 190.807 412.1C200.107 399.2 205.007 384.7 205.707 368.3C206.607 346 199.507 323.3 183.807 307.4C179.707 303.2 174.907 299.6 169.507 296.6C160.207 291.3 150.907 287.5 141.807 285C120.607 279.3 100.807 282.5 82.5071 294.5C76.0071 298.7 68.407 304.4 59.707 311.6C57.007 313.8 53.407 316.2 48.907 318.7C41.607 322.8 34.4071 322.7 27.5071 318.4C25.1071 316.9 23.4071 315.3 22.3071 313.6C18.7071 308.2 17.0072 301.7 17.1072 294.2C17.2072 285.5 18.807 277.4 21.907 270.1C29.007 253.3 40.5071 239.7 56.3071 229.4C65.8071 223.2 76.007 218.4 86.907 215.2C103.407 210.2 120.707 207.8 138.807 208C140.307 208 142.007 208.1 144.107 208.3C148.407 208.7 153.407 209 157.307 209.6C187.707 214.5 213.907 227.7 235.907 249.2C235.907 249.2 237.207 250.5 239.607 253C241.207 254.6 242.607 255.7 243.807 256.1C250.307 258.4 256.707 252.8 255.107 246C254.707 244.1 253.707 242.5 252.207 241.1C250.207 239.2 248.207 237.2 246.307 235.3" stroke="#908F91" stroke-width="2"/>
<path d="M135.607 0C128.007 0.2 120.807 1.5 114.007 3.8C105.007 7 98.1074 12.3 93.1074 19.8C89.4074 25.3 87.2073 31.5 86.5073 38.4C85.3073 48.8 87.6072 58.6 93.4072 67.8C93.6072 68.1 93.5074 68.3 93.1074 68.3C80.8074 68.2 69.0073 69.6 57.7073 72.6C38.8073 77.6 21.9074 88.9 18.1074 108.9C15.4074 122.9 20.5074 138.4 30.8074 148.2C36.9074 154 43.8074 158.5 51.3074 161.5C57.6074 164 63.7073 166 69.5073 167.3C80.4073 169.8 89.2074 172 95.8074 174C108.307 177.6 119.607 183.1 129.907 190.7C130.307 191 130.207 191.1 129.807 191.1C111.707 191.6 94.2072 194.7 77.4072 200.4C65.9072 204.3 55.1073 209.7 44.7073 216.8C24.7073 230.5 8.70742 250.8 2.60742 274.3C0.807422 281.2 -0.0926758 288.1 0.00732422 295.1C0.00732422 298.1 0.407275 301.8 1.20728 306.1C2.60728 313.9 5.80737 320.8 10.8074 326.6C14.3074 330.7 18.9073 333.8 24.7073 336C35.2073 340 45.5073 339.5 55.5073 334.5C59.7073 332.4 63.4073 330.2 66.5073 327.8C69.2073 325.8 75.4074 321 85.1074 313.4C88.1074 311 91.9074 308.6 96.3074 306.1C108.907 299 122.107 297.3 136.007 300.9C146.007 303.5 155.107 307.4 163.607 312.6C169.907 316.5 175.007 321.6 178.907 327.8C187.307 341.2 190.607 355.9 188.907 371.8C187.407 386.2 181.907 398.3 172.607 408C162.007 419 147.707 427.1 132.307 428.7C116.407 430.3 100.107 424.7 87.3074 415.5C84.1074 413.2 81.7073 411.9 80.2073 411.6C76.6073 410.9 73.7072 412.4 71.4072 416.2C61.0072 433.7 50.5074 451.3 40.1074 468.8C39.0074 470.7 38.3073 472.3 38.2073 473.6C38.0073 475.5 38.3074 477.3 39.3074 478.8C46.2074 490.2 55.4073 499.6 67.0073 506.9C76.2073 512.6 85.9072 516.9 96.4072 519.8C106.307 522.5 116.307 524.1 126.407 524.5C135.407 524.9 141.707 525 145.207 524.8C178.107 522.6 210.007 514.7 240.807 501.1C258.107 493.5 274.807 484.6 290.907 474.5C312.907 460.6 334.007 445.3 353.907 428.5C362.507 421.3 370.307 414.6 377.307 408.3C384.407 402 389.507 397.6 392.607 395.2C416.307 376.5 442.107 361.8 470.207 350.9C518.107 332.4 568.207 323.7 620.607 324.7C653.507 325.4 684.507 329.7 713.507 337.7C732.107 342.8 750.107 349.7 766.807 358C785.907 367.5 805.507 378.8 825.607 391.7C858.907 413.2 878.007 425.5 882.907 428.7C920.807 452.9 960.707 475 1003.11 490.6C1056.21 510.2 1111.61 520 1169.11 520C1170.81 520 1172.91 520.3 1174.91 520.2C1177.11 520.1 1178.21 520 1178.31 520C1210.71 519.8 1242.41 515.8 1273.31 507.9C1296.91 501.8 1319.51 494.2 1341.11 485C1367.21 474 1393.71 461 1420.71 446.2C1442.91 434 1465.01 421.8 1486.81 409.6C1515.11 393.8 1541.81 380.2 1566.91 368.8C1589.11 358.7 1611.31 350.3 1633.61 343.5C1690.11 326.2 1747.91 320.4 1807.11 326.2C1838.21 329.2 1868.41 334.3 1897.51 341.3C1940.91 351.8 1982.01 367.9 2020.91 389.7C2047.81 404.8 2067.21 417.6 2098.11 437.3C2113.41 447.1 2129.11 456.2 2145.21 464.7C2187.01 486.8 2232.11 501.5 2279.31 508.8C2314.31 514.2 2349.31 516.6 2384.51 515.9C2390.41 515.8 2397.91 515.4 2407.11 514.7C2427.61 513.2 2447.11 509.8 2465.51 504.7C2489.71 498 2512.81 487.2 2532.01 471.3C2553.81 453.3 2568.41 430.5 2576.01 402.9C2579.11 391.8 2580.91 379.9 2581.61 367.3V353.1C2581.11 344.5 2580.21 337 2579.01 330.6C2578.11 326 2575.61 323.5 2571.51 323.1C2569.81 323 2567.71 323.5 2565.21 324.7C2538.21 337.8 2508.51 347.8 2476.31 354.6C2439.01 362.5 2402.11 365.3 2365.41 362.9C2322.31 360.1 2280.81 350.2 2241.21 333.2C2230.21 328.5 2217.21 322.1 2202.31 314.1C2190.11 307.6 2167.11 294.5 2133.31 274.8C2109.11 260.7 2084.21 247.4 2058.41 234.9C1993.81 203.5 1924.91 182.3 1853.71 172.6C1810.51 166.7 1766.61 164.5 1721.81 166C1657.21 168.2 1595.41 181.8 1536.41 206.7C1513.31 216.5 1490.81 227.5 1468.81 239.8C1454.51 247.8 1440.51 255.9 1427.01 264.2C1377.21 294.5 1347.91 313.5 1306.01 333.4C1280.51 345.5 1254.71 354.3 1228.71 359.7C1203.91 364.8 1179.01 366.6 1153.91 365.1C1141.11 364.3 1127.91 362.3 1114.11 359C1081.41 351.1 1049.41 337.1 1018.91 321.2C1003.71 313.2 988.907 305.1 974.607 296.8C945.407 279.9 923.207 267 908.107 258.3C866.407 234.3 824.107 212.9 779.007 196.6C737.907 181.8 696.107 173.2 653.507 170.7C639.507 169.9 625.107 169.7 610.307 170.2C584.207 171 557.107 173.6 528.807 177.9C514.007 180.2 491.307 183.9 460.707 189.1C458.107 189.5 452.007 190.4 442.107 191.6C433.707 192.6 425.007 193.1 416.007 192.9C409.007 192.8 402.507 191.8 396.407 189.8C388.307 187.2 382.007 182.3 377.407 175.1C373.807 169.4 370.707 163.9 368.007 158.5C355.607 133.5 349.307 120.6 348.907 119.8C342.107 106.3 334.407 93.8 325.807 82.2C320.407 74.9 313.907 68.1 306.507 61.8C288.107 46.2 266.707 39.7 242.307 42.3C241.807 42.3 241.307 42.2 240.907 41.9C234.407 36.3 227.507 31.5 220.307 26.7C195.907 10.7 168.907 1.9 139.407 0.3H135.907L135.607 0ZM246.407 235.3C235.507 225 223.607 216.4 210.407 209.4C194.307 201.1 177.407 195.5 159.707 192.8C159.307 192.8 159.007 192.6 158.707 192.3C150.207 184.5 141.207 177.6 131.707 171.5C113.807 160.1 94.6073 156 70.7073 150.2C61.1073 147.9 50.8072 143.8 43.4072 136.9C40.6072 134.3 38.5073 131.6 37.2073 128.8C31.4073 116.7 34.1074 104.1 45.3074 96.4C54.7074 89.9 66.8072 87.1 77.9072 85.9C103.707 83.2 128.507 86.5 152.207 95.8C195.507 112.7 229.007 146.1 253.907 184.6C261.907 196.9 269.107 209.7 275.707 223C277.007 225.6 278.207 227.4 279.407 228.2C281.407 229.6 283.607 230 286.207 229.4C291.207 228.1 293.207 224.7 292.307 219.2C292.207 218.6 291.607 217.2 290.507 215C267.107 167.5 234.607 123.7 189.107 95.4C167.407 82 143.707 73.3 117.907 69.5C117.007 69.4 116.007 68.7 114.707 67.5C109.307 62.3 104.407 55.2 103.207 47.7C101.207 35.2 107.607 24 119.607 19.7C125.107 17.8 130.707 16.8 136.507 16.9C145.607 16.9 154.907 18.2 164.407 20.5C178.407 23.9 191.307 29 202.907 35.8C230.507 51.8 253.707 74.9 271.907 101.1C287.707 123.8 300.707 148.8 310.907 176C313.707 183.4 315.707 188.8 316.807 192.2C317.407 194 318.107 195.3 318.907 196.1C323.707 201.2 331.907 198.6 333.307 192C333.607 190.7 333.307 188.5 332.207 185.5C320.407 150.4 304.707 118.7 285.107 90.6C278.207 80.7 269.507 70.1 259.107 59C258.807 58.7 258.907 58.6 259.307 58.6C273.907 60.4 286.807 66.5 298.007 77C305.507 84 312.107 91.9 317.907 100.8C324.707 111.2 330.807 121.9 336.207 133C343.207 147.3 349.007 159.1 353.607 168.2C356.407 173.7 359.707 179.5 363.707 185.5C372.407 198.6 385.907 206 401.307 208.4C412.007 210 424.007 210.2 437.407 208.8C449.607 207.6 461.307 206 472.707 204.1C515.707 196.8 551.407 190.5 591.007 187.9C618.307 186.1 644.907 186.5 670.807 189C711.307 193 750.907 203.5 789.007 218.5C823.107 231.9 856.707 248.9 888.107 266.6C926.207 288 967.407 313.2 1007.51 334.5C1028.51 345.7 1049.11 355.1 1069.21 362.8C1096.91 373.4 1126.61 380.7 1156.31 382.1C1183.51 383.4 1211.01 381 1238.71 374.7C1274.21 366.7 1308.71 352.1 1341.21 334.5C1357.61 325.6 1373.81 316.3 1389.81 306.5C1418.91 288.6 1442.71 274.3 1461.21 263.4C1482.21 251.1 1503.91 239.8 1526.31 229.5C1588.51 200.8 1653.81 185.2 1722.41 182.9C1747.11 182 1773.21 182.5 1800.61 184.3C1877.81 189.3 1950.81 206.5 2019.41 236C2040.31 245 2060.41 254.6 2079.61 264.8C2116.71 284.5 2152.71 306.3 2186.81 325.1C2207.41 336.5 2225.91 345.5 2242.31 352.1C2293.41 372.6 2346.81 382.1 2402.51 380.4C2458.41 378.7 2512.01 366.7 2563.31 344.3C2563.61 344.2 2563.81 344.3 2563.81 344.6C2565.21 359.3 2564.71 373.3 2562.21 386.8C2555.81 421.4 2538.01 448.3 2508.81 467.4C2486.01 482.3 2458.81 490.7 2432.01 494.9C2406.41 498.9 2380.01 500 2353.51 499.1C2317.91 497.8 2285.01 493.9 2254.81 487.3C2220.31 479.8 2187.41 468 2156.11 451.7C2126.91 436.5 2104.61 421.8 2068.71 398.9C2057.01 391.5 2045.21 384.3 2033.11 377.4C1989.81 352.7 1943.91 334.8 1895.31 323.6C1854.11 314.2 1814.41 308.8 1776.21 307.6C1729.91 306.1 1684.21 311.7 1639.01 324.4C1618.11 330.3 1598.71 337 1580.71 344.4C1553.61 355.6 1525.61 369.1 1496.61 384.9C1468.41 400.2 1425.51 424.7 1388.71 443.9C1365.41 456 1342.31 466.6 1319.41 475.4C1275.91 492.3 1229.91 502.4 1183.21 503.2C1177.91 503.2 1171.31 503.2 1163.21 503.2C1133.41 502.8 1104.21 499.7 1075.51 493.8C1050.71 488.8 1026.81 481.8 1003.71 472.9C974.107 461.5 943.507 446.2 912.107 427C879.207 407 847.907 385.6 816.407 366.2C799.507 355.8 782.307 346.5 764.807 338.4C745.907 329.6 725.607 322.8 705.607 318.2C670.007 309.9 633.407 306.5 595.807 308C558.807 309.4 523.007 315.6 488.207 326.4C452.907 337.4 419.807 353.6 390.207 375.4C383.607 380.3 379.007 383.8 376.507 386.1C369.007 392.8 360.507 400.2 351.107 408.3C331.207 425.5 310.607 441.1 289.307 455.1C274.307 465 258.607 473.8 242.207 481.7C214.307 495 185.407 503.4 155.707 506.9C138.207 508.9 121.707 508.3 106.307 505C94.1074 502.4 83.0073 497.8 73.2073 491.1C66.9073 486.9 61.3073 481.4 56.2073 474.8C56.0073 474.5 56.0073 474.2 56.2073 473.9L80.9072 432.5C81.1072 432.2 81.3074 432.1 81.6074 432.3C97.4074 441.7 114.107 446.7 132.307 445.4C141.807 444.7 151.107 442.1 160.007 437.6C171.707 431.7 183.107 422.7 190.707 412.1C200.007 399.2 204.907 384.7 205.607 368.3C206.507 346 199.407 323.3 183.707 307.4C179.607 303.2 174.807 299.6 169.407 296.6C160.107 291.3 150.807 287.5 141.707 285C120.507 279.3 100.707 282.5 82.4072 294.5C75.9072 298.7 68.3074 304.4 59.6074 311.6C56.9074 313.8 53.3074 316.2 48.8074 318.7C41.5074 322.8 34.3072 322.7 27.4072 318.4C25.0072 316.9 23.3073 315.3 22.2073 313.6C18.6073 308.2 16.9073 301.7 17.0073 294.2C17.1073 285.5 18.7074 277.4 21.8074 270.1C28.9074 253.3 40.4073 239.7 56.2073 229.4C65.7073 223.2 75.9074 218.4 86.8074 215.2C103.307 210.2 120.607 207.8 138.707 208C140.207 208 141.907 208.1 144.007 208.3C148.307 208.7 153.307 209 157.207 209.6C187.607 214.5 213.807 227.7 235.807 249.2C235.807 249.2 237.107 250.5 239.507 253C241.107 254.6 242.507 255.7 243.707 256.1C250.207 258.4 256.607 252.8 255.007 246C254.607 244.1 253.607 242.5 252.107 241.1C250.107 239.2 248.107 237.2 246.207 235.3H246.407Z" fill="#201F23"/>
<path d="M210.508 209.4C228.408 218.8 246.508 235.3 246.508 235.3C248.408 237.3 250.408 239.2 252.408 241.1C253.908 242.5 254.808 244.1 255.308 246C256.908 252.8 250.608 258.3 244.008 256.1C242.808 255.7 241.408 254.7 239.808 253C237.308 250.5 236.108 249.3 236.108 249.2C214.108 227.7 187.908 214.5 157.508 209.6C153.608 209 148.608 208.7 144.308 208.3C142.208 208.1 140.408 208 139.008 208C120.908 207.8 103.608 210.2 87.1084 215.2C76.3084 218.5 66.1083 223.2 56.5083 229.4C40.7083 239.7 29.2084 253.3 22.1084 270.1C19.0084 277.5 17.4083 285.5 17.3083 294.2C17.3083 301.7 18.9083 308.1 22.5083 313.6C23.6083 315.3 25.4083 316.9 27.7083 318.4C34.6083 322.7 41.8084 322.8 49.1084 318.7C53.6084 316.2 57.2082 313.8 59.9082 311.6C68.6082 304.5 76.2083 298.8 82.7083 294.5C101.008 282.5 120.808 279.3 142.008 285C151.108 287.4 160.308 291.3 169.708 296.6C175.108 299.7 179.908 303.3 184.008 307.4C199.708 323.2 206.908 346 205.908 368.3C205.208 384.6 200.208 399.2 191.008 412.1C183.408 422.7 172.008 431.7 160.308 437.6C151.408 442.1 142.108 444.7 132.608 445.4C114.408 446.7 97.7082 441.7 81.9082 432.3C81.6082 432.1 81.4083 432.2 81.2083 432.5L56.5083 473.9C56.3083 474.2 56.3083 474.5 56.5083 474.8C61.6083 481.4 67.3083 486.9 73.5083 491.1C83.3083 497.8 94.4084 502.4 106.608 505C122.008 508.3 138.508 508.9 156.008 506.9C185.808 503.4 214.608 495 242.508 481.7C258.908 473.9 274.608 465 289.608 455.1C310.908 441.1 331.508 425.5 351.408 408.3C360.808 400.2 369.208 392.8 376.808 386.1C379.308 383.9 383.908 380.3 390.508 375.4C420.108 353.6 453.308 337.3 488.508 326.4C523.308 315.6 559.108 309.5 596.108 308C633.708 306.5 670.308 309.9 705.908 318.2C725.908 322.8 746.208 329.7 765.108 338.4C782.608 346.5 799.808 355.8 816.708 366.2C848.208 385.6 879.508 407 912.408 427C943.908 446.1 974.408 461.4 1004.01 472.9C1027.11 481.8 1051.01 488.8 1075.81 493.8C1104.41 499.6 1133.71 502.7 1163.51 503.2C1171.61 503.3 1178.21 503.3 1183.51 503.2C1230.11 502.4 1276.11 492.3 1319.71 475.4C1342.61 466.5 1365.71 456 1389.01 443.9C1425.81 424.7 1468.71 400.2 1496.91 384.9C1525.91 369.2 1554.01 355.7 1581.01 344.4C1599.01 336.9 1618.41 330.2 1639.31 324.4C1684.41 311.7 1730.21 306 1776.51 307.6C1814.81 308.9 1854.51 314.2 1895.61 323.6C1944.11 334.7 1990.01 352.7 2033.41 377.4C2045.41 384.3 2057.31 391.4 2069.01 398.9C2105.01 421.8 2127.21 436.5 2156.41 451.7C2187.71 467.9 2220.61 479.8 2255.11 487.3C2285.31 493.8 2318.21 497.8 2353.81 499.1C2380.31 500.1 2406.71 499 2432.31 494.9C2459.11 490.7 2486.31 482.3 2509.11 467.4C2538.31 448.3 2556.11 421.5 2562.51 386.8C2565.01 373.3 2565.51 359.3 2564.11 344.6C2564.11 344.2 2563.91 344.1 2563.61 344.3C2512.31 366.7 2458.71 378.7 2402.81 380.4C2347.11 382.1 2293.71 372.7 2242.61 352.1C2226.21 345.5 2207.71 336.5 2187.11 325.1C2153.11 306.3 2117.01 284.5 2079.91 264.8C2060.71 254.6 2040.61 245 2019.71 236C1951.11 206.5 1878.11 189.3 1800.91 184.3C1773.51 182.5 1747.41 182.1 1722.71 182.9C1654.11 185.3 1588.71 200.8 1526.61 229.5C1504.31 239.8 1482.61 251.1 1461.51 263.4C1443.01 274.2 1419.21 288.6 1390.11 306.5C1374.21 316.3 1358.01 325.6 1341.51 334.5C1309.01 352.1 1274.51 366.7 1239.01 374.7C1211.31 381 1183.81 383.4 1156.61 382.1C1126.91 380.6 1097.21 373.4 1069.51 362.8C1049.41 355.1 1028.81 345.7 1007.81 334.5C967.808 313.2 926.508 288 888.408 266.6C856.908 248.9 823.408 231.9 789.308 218.5C751.208 203.5 711.608 193 671.108 189C645.208 186.4 618.708 186 591.308 187.9C551.608 190.6 516.008 196.8 473.008 204.1C461.708 206 449.908 207.6 437.708 208.8C424.308 210.1 412.308 210 401.608 208.4C386.208 206.1 372.708 198.7 364.008 185.5C360.008 179.5 356.608 173.7 353.908 168.2C349.408 159.1 343.608 147.4 336.508 133C331.108 122 325.008 111.2 318.208 100.8C312.408 91.8999 305.808 83.9999 298.308 76.9999C287.108 66.5999 274.208 60.3999 259.608 58.5999C259.208 58.5999 259.108 58.5999 259.408 58.9999C269.808 70.0999 278.508 80.5999 285.408 90.5999C305.008 118.7 320.708 150.4 332.508 185.5C333.508 188.5 333.908 190.7 333.608 192C332.208 198.6 324.008 201.2 319.208 196.1C318.408 195.3 317.708 194 317.108 192.2C315.908 188.8 313.908 183.4 311.208 176C301.008 148.8 288.008 123.8 272.208 101.1C254.008 74.9999 230.808 51.8999 203.208 35.7999C191.508 29.0999 178.708 23.9999 164.708 20.4999C155.308 18.1999 146.008 16.9999 136.808 16.8999C131.108 16.8999 125.508 17.7999 119.908 19.6999C107.908 23.8999 101.508 35.1999 103.508 47.6999C104.708 55.1999 109.608 62.2999 115.008 67.4999C116.208 68.6999 117.308 69.2999 118.208 69.4999C144.008 73.3999 167.708 81.9999 189.408 95.3999C234.908 123.6 267.508 167.5 290.808 215C291.908 217.2 292.408 218.6 292.608 219.2C293.508 224.7 291.408 228.1 286.508 229.4C283.908 230.1 281.708 229.7 279.708 228.2C278.508 227.4 277.308 225.6 276.008 223C269.508 209.7 262.208 196.9 254.208 184.6C229.308 146.1 195.908 112.7 152.508 95.7999C128.708 86.4999 104.008 83.1999 78.2083 85.8999C67.1083 87.0999 54.9084 89.8999 45.6084 96.3999C34.4084 104.1 31.7083 116.7 37.5083 128.8C38.8083 131.6 40.9083 134.3 43.7083 136.9C51.1083 143.8 61.4083 147.9 71.0083 150.2C94.9083 156 114.108 160.1 132.008 171.5C141.608 177.6 150.608 184.5 159.008 192.3C159.308 192.6 159.608 192.7 160.008 192.8C177.708 195.5 192.808 200 210.708 209.4H210.508Z" fill="white"/>
<path d="M2581.51 361.7L2573.61 384.2L2540.41 463.4L2499.61 491.6L2419.41 507.8L2276.41 500.5L2132.41 450.5L2033.41 377.1L1887.31 328L1740.21 314.7L1612.51 341.3L1495.11 394.4L1392.01 455.7L1273.21 507.7L1167.31 513.9L1057.41 506.8L936.008 459.8L819.008 376.1L679.108 314.8C679.108 314.8 538.208 319.9 534.108 320.9C530.008 321.9 416.408 358.2 416.408 358.2L352.308 418.9L291.008 465.9C291.008 465.9 218.508 501.6 215.408 502.7C212.308 503.8 151.108 513.9 151.108 513.9L96.2078 519.6L45.9077 488.4L71.4077 425.1L45.9077 475L90.5078 507.5L140.508 525H2581.51V361.7Z" fill="#201F23"/>
<path d="M75.0078 412C75.0078 412 72.8154 399.1 68.5078 373.5C64.2002 347.9 46.5078 336.5 46.5078 336.5L54.5078 322.9L87.7073 302.5L114.307 294.3C114.307 294.3 140.907 291.2 143.907 294.3C146.907 297.4 171.507 309.6 171.507 309.6L188.907 322.9C188.907 322.9 198.107 345.4 198.107 348.4V386.2L191.007 412L160.307 430.1C160.307 430.1 137.807 437.2 130.707 435.2C123.607 433.2 81.9072 432.2 81.9072 432.2H68.5078L75.0078 412Z" fill="#201F23"/>
</svg>
