<?xml version="1.0" encoding="UTF-8" standalone="no"?>
<!DOCTYPE svg PUBLIC "-//W3C//DTD SVG 1.1//EN" "http://www.w3.org/Graphics/SVG/1.1/DTD/svg11.dtd">
<svg xmlns="http://www.w3.org/2000/svg" version="1.1" viewBox="0.00 0.00 1855.00 1694.00">
<g stroke-width="2.00" fill="none" stroke-linecap="butt">
<path stroke="#90653e" vector-effect="non-scaling-stroke" d="
  M 19.95 1669.81
  Q 26.79 1669.75 33.75 1669.53
  Q 746.80 1647.60 793.57 1646.12
  Q 868.06 1643.78 941.08 1633.36
  Q 1015.31 1622.78 1088.57 1600.85
  Q 1108.14 1594.99 1131.77 1586.32
  Q 1161.45 1575.44 1173.38 1570.09
  Q 1203.49 1556.58 1213.57 1551.60
  Q 1269.62 1523.97 1320.17 1488.40
  Q 1372.13 1451.85 1417.92 1408.05
  Q 1423.83 1402.40 1432.42 1394.29
  Q 1460.59 1367.69 1483.37 1341.36
  Q 1538.54 1277.60 1581.60 1204.35
  Q 1599.33 1174.17 1606.72 1159.96
  Q 1615.71 1142.67 1624.65 1125.40
  Q 1629.52 1116.00 1647.91 1075.68
  Q 1652.54 1065.53 1655.99 1057.38
  Q 1682.66 994.41 1701.89 937.17
  Q 1738.17 829.15 1762.76 716.51
  Q 1771.83 674.95 1780.02 631.30
  Q 1798.96 530.36 1805.56 492.55
  C 1816.25 431.28 1825.54 367.07 1829.24 306.55
  Q 1831.08 276.50 1830.36 246.08
  Q 1829.69 218.37 1825.55 192.02
  Q 1821.82 168.26 1814.42 148.09
  Q 1811.02 138.81 1805.10 127.93
  C 1795.75 110.78 1781.37 96.09 1763.38 88.44
  Q 1743.98 80.17 1721.27 77.79
  C 1684.92 73.97 1648.24 87.28 1621.48 112.52
  A 1.52 1.47 -69.3 0 1 1620.64 112.92
  Q 1620.17 112.97 1619.92 113.26
  Q 1619.67 113.56 1619.63 113.60
  Q 1612.64 119.50 1604.61 128.59
  Q 1603.95 129.34 1603.59 129.97
  Q 1602.97 131.07 1602.70 131.38
  Q 1598.39 136.26 1593.51 142.52
  A 0.08 0.08 0.0 0 1 1593.36 142.46
  Q 1593.37 142.33 1593.33 142.20
  Q 1593.23 141.89 1593.03 142.15
  Q 1584.51 153.15 1576.47 165.46
  Q 1573.34 170.25 1570.46 175.97
  Q 1570.00 176.88 1569.90 177.50
  Q 1569.82 177.98 1569.56 178.40
  Q 1565.22 185.35 1561.23 192.94
  Q 1552.74 209.11 1546.09 224.96
  Q 1545.97 225.25 1545.38 227.12
  Q 1545.08 228.09 1544.38 229.17
  A 1.54 1.53 59.8 0 0 1544.14 230.09
  Q 1544.20 230.98 1543.90 231.67
  Q 1537.44 246.52 1530.09 268.63
  Q 1522.30 292.09 1515.18 318.71
  Q 1512.06 330.33 1510.25 338.10
  Q 1503.65 366.38 1499.23 384.00
  Q 1486.53 434.64 1469.31 486.80
  Q 1461.35 510.89 1445.98 549.97
  Q 1442.65 558.46 1438.18 568.38
  Q 1420.80 606.94 1417.98 612.22
  Q 1406.64 633.44 1398.29 648.04
  Q 1385.86 669.74 1369.38 692.89
  Q 1362.75 702.19 1357.82 708.08
  Q 1346.60 721.48 1342.16 726.55
  C 1341.32 727.50 1340.43 729.12 1339.33 730.11
  Q 1337.34 731.92 1337.26 732.00
  Q 1326.89 742.98 1314.39 754.75
  Q 1314.00 755.12 1313.40 755.93
  Q 1312.94 756.55 1312.36 757.10
  Q 1311.31 758.08 1304.10 764.05
  Q 1303.30 764.71 1302.37 765.41
  Q 1290.80 774.07 1280.19 781.42
  Q 1273.30 786.19 1267.92 789.09
  Q 1249.55 798.98 1230.02 805.05
  Q 1215.29 809.63 1201.18 810.21
  A 0.68 0.67 89.6 0 1 1200.48 809.51
  L 1201.15 787.00
  Q 1201.18 786.05 1202.12 785.99
  Q 1215.76 785.09 1230.34 779.60
  Q 1251.57 771.61 1270.30 759.28
  Q 1270.86 758.91 1271.74 758.08
  Q 1272.62 757.25 1273.17 756.89
  Q 1278.57 753.43 1283.64 749.15
  Q 1283.87 748.95 1284.16 748.87
  Q 1284.61 748.74 1284.97 748.44
  L 1297.69 737.62
  Q 1302.77 733.30 1307.42 728.52
  Q 1311.12 724.73 1323.66 711.76
  Q 1323.85 711.57 1323.88 711.45
  Q 1324.01 710.94 1324.12 710.82
  Q 1338.31 694.53 1340.37 691.36
  Q 1341.64 689.39 1342.59 688.25
  Q 1344.07 686.47 1344.09 686.44
  Q 1361.06 663.86 1375.87 638.40
  Q 1387.64 618.16 1390.74 612.29
  Q 1399.84 595.08 1417.44 555.75
  Q 1423.92 541.27 1438.18 502.77
  Q 1441.32 494.27 1444.81 483.92
  Q 1467.68 416.06 1484.97 340.21
  Q 1489.38 320.84 1497.10 293.62
  Q 1511.85 241.61 1533.63 194.72
  Q 1537.52 186.35 1542.78 176.95
  Q 1550.54 163.06 1553.48 157.97
  Q 1562.45 142.44 1574.37 127.62
  Q 1577.00 124.36 1577.94 123.43
  Q 1578.29 123.09 1578.42 122.63
  Q 1578.57 122.13 1578.68 121.99
  Q 1593.80 103.14 1612.32 88.29
  Q 1612.65 88.02 1612.49 87.63
  L 1588.38 28.59
  Q 1588.17 28.09 1587.65 28.21
  Q 1549.49 36.42 1514.75 53.50
  Q 1491.62 64.86 1473.98 75.97
  Q 1431.27 102.86 1391.09 138.83
  Q 1356.86 169.48 1327.17 201.93
  Q 1274.21 259.81 1226.86 325.39
  Q 1190.00 376.45 1161.41 430.68
  Q 1140.54 470.25 1121.15 511.91
  C 1100.70 555.84 1081.28 598.01 1059.33 639.84
  C 1032.09 691.77 1001.25 740.25 964.81 786.31
  Q 949.23 806.02 932.96 822.70
  Q 932.86 822.80 926.83 829.12
  Q 922.40 833.74 916.79 839.02
  Q 899.25 855.54 885.14 867.13
  Q 865.16 883.55 844.19 898.41
  Q 811.45 921.60 773.07 943.05
  Q 723.16 970.93 667.28 994.47
  C 613.42 1017.16 555.28 1030.56 496.80 1040.05
  Q 439.75 1049.29 384.50 1054.28
  Q 312.02 1060.82 245.25 1063.29
  Q 120.71 1067.89 2.00 1063.43
  Q 1.73 1063.42 1.37 1063.72"
/>
<path stroke="#90653e" vector-effect="non-scaling-stroke" d="
  M 1584.56 161.16
  Q 1574.01 176.77 1567.86 194.31
  Q 1565.74 200.38 1564.05 208.78
  Q 1561.04 223.81 1562.81 237.28
  Q 1564.47 249.99 1571.35 260.64
  Q 1578.13 271.14 1588.48 278.13
  Q 1601.12 286.67 1615.37 291.43
  Q 1640.70 299.90 1668.68 303.88
  Q 1687.94 306.62 1704.48 304.38
  Q 1716.33 302.77 1726.86 297.34
  Q 1738.01 291.57 1745.98 280.99
  Q 1753.96 270.39 1757.47 258.72
  Q 1768.76 221.18 1758.94 182.31
  C 1749.49 144.93 1722.75 112.23 1682.43 107.76
  C 1678.17 107.28 1674.65 107.69 1670.68 107.60
  Q 1666.63 107.52 1661.87 108.24
  Q 1647.53 110.41 1634.27 117.05
  Q 1633.40 117.49 1632.60 117.45
  Q 1632.10 117.42 1631.66 117.64
  Q 1620.67 122.89 1611.37 131.15
  Q 1607.98 134.16 1607.53 134.53
  Q 1606.92 135.03 1599.88 141.95
  Q 1599.84 142.00 1595.21 146.64
  Q 1588.25 153.62 1585.57 158.94
  Q 1585.29 159.49 1585.07 160.06
  Q 1584.74 160.90 1584.56 161.16"
/>
<path stroke="#90653e" vector-effect="non-scaling-stroke" d="
  M 1643.38 138.77
  Q 1642.59 138.84 1641.57 139.37
  Q 1635.28 142.66 1629.82 146.73
  Q 1626.42 149.27 1621.71 153.87
  Q 1617.38 158.10 1613.95 161.43
  Q 1605.79 169.31 1598.39 183.15
  Q 1598.31 183.30 1598.27 184.12
  Q 1598.24 184.60 1598.01 185.02
  Q 1587.15 204.46 1586.32 226.51
  Q 1585.87 238.25 1591.50 247.35
  C 1597.72 257.39 1610.23 264.06 1621.65 268.01
  Q 1651.86 278.48 1683.14 281.11
  Q 1696.15 282.21 1707.80 279.02
  C 1721.47 275.28 1730.21 265.01 1734.29 251.83
  Q 1744.82 217.83 1733.96 182.78
  Q 1728.97 166.65 1718.60 153.67
  C 1703.07 134.22 1678.81 126.57 1655.01 134.48
  Q 1649.71 136.24 1645.81 138.05
  Q 1645.37 138.25 1644.92 138.07
  Q 1644.36 137.85 1644.12 138.29
  Q 1643.87 138.73 1643.38 138.77"
/>
</g>
<path fill="#212025" d="
  M 23.41 1694.00
  L 20.72 1694.00
  Q 20.30 1685.41 20.18 1676.78
  Q 20.17 1676.33 19.75 1673.35
  Q 19.50 1671.61 19.95 1669.81
  Q 26.79 1669.75 33.75 1669.53
  Q 746.80 1647.60 793.57 1646.12
  Q 868.06 1643.78 941.08 1633.36
  Q 1015.31 1622.78 1088.57 1600.85
  Q 1108.14 1594.99 1131.77 1586.32
  Q 1161.45 1575.44 1173.38 1570.09
  Q 1203.49 1556.58 1213.57 1551.60
  Q 1269.62 1523.97 1320.17 1488.40
  Q 1372.13 1451.85 1417.92 1408.05
  Q 1423.83 1402.40 1432.42 1394.29
  Q 1460.59 1367.69 1483.37 1341.36
  Q 1538.54 1277.60 1581.60 1204.35
  Q 1599.33 1174.17 1606.72 1159.96
  Q 1615.71 1142.67 1624.65 1125.40
  Q 1629.52 1116.00 1647.91 1075.68
  Q 1652.54 1065.53 1655.99 1057.38
  Q 1682.66 994.41 1701.89 937.17
  Q 1738.17 829.15 1762.76 716.51
  Q 1771.83 674.95 1780.02 631.30
  Q 1798.96 530.36 1805.56 492.55
  C 1816.25 431.28 1825.54 367.07 1829.24 306.55
  Q 1831.08 276.50 1830.36 246.08
  Q 1829.69 218.37 1825.55 192.02
  Q 1821.82 168.26 1814.42 148.09
  Q 1811.02 138.81 1805.10 127.93
  C 1795.75 110.78 1781.37 96.09 1763.38 88.44
  Q 1743.98 80.17 1721.27 77.79
  C 1684.92 73.97 1648.24 87.28 1621.48 112.52
  A 1.52 1.47 -69.3 0 1 1620.64 112.92
  Q 1620.17 112.97 1619.92 113.26
  Q 1619.67 113.56 1619.63 113.60
  Q 1612.64 119.50 1604.61 128.59
  Q 1603.95 129.34 1603.59 129.97
  Q 1602.97 131.07 1602.70 131.38
  Q 1598.39 136.26 1593.51 142.52
  A 0.08 0.08 0.0 0 1 1593.36 142.46
  Q 1593.37 142.33 1593.33 142.20
  Q 1593.23 141.89 1593.03 142.15
  Q 1584.51 153.15 1576.47 165.46
  Q 1573.34 170.25 1570.46 175.97
  Q 1570.00 176.88 1569.90 177.50
  Q 1569.82 177.98 1569.56 178.40
  Q 1565.22 185.35 1561.23 192.94
  Q 1552.74 209.11 1546.09 224.96
  Q 1545.97 225.25 1545.38 227.12
  Q 1545.08 228.09 1544.38 229.17
  A 1.54 1.53 59.8 0 0 1544.14 230.09
  Q 1544.20 230.98 1543.90 231.67
  Q 1537.44 246.52 1530.09 268.63
  Q 1522.30 292.09 1515.18 318.71
  Q 1512.06 330.33 1510.25 338.10
  Q 1503.65 366.38 1499.23 384.00
  Q 1486.53 434.64 1469.31 486.80
  Q 1461.35 510.89 1445.98 549.97
  Q 1442.65 558.46 1438.18 568.38
  Q 1420.80 606.94 1417.98 612.22
  Q 1406.64 633.44 1398.29 648.04
  Q 1385.86 669.74 1369.38 692.89
  Q 1362.75 702.19 1357.82 708.08
  Q 1346.60 721.48 1342.16 726.55
  C 1341.32 727.50 1340.43 729.12 1339.33 730.11
  Q 1337.34 731.92 1337.26 732.00
  Q 1326.89 742.98 1314.39 754.75
  Q 1314.00 755.12 1313.40 755.93
  Q 1312.94 756.55 1312.36 757.10
  Q 1311.31 758.08 1304.10 764.05
  Q 1303.30 764.71 1302.37 765.41
  Q 1290.80 774.07 1280.19 781.42
  Q 1273.30 786.19 1267.92 789.09
  Q 1249.55 798.98 1230.02 805.05
  Q 1215.29 809.63 1201.18 810.21
  A 0.68 0.67 89.6 0 1 1200.48 809.51
  L 1201.15 787.00
  Q 1201.18 786.05 1202.12 785.99
  Q 1215.76 785.09 1230.34 779.60
  Q 1251.57 771.61 1270.30 759.28
  Q 1270.86 758.91 1271.74 758.08
  Q 1272.62 757.25 1273.17 756.89
  Q 1278.57 753.43 1283.64 749.15
  Q 1283.87 748.95 1284.16 748.87
  Q 1284.61 748.74 1284.97 748.44
  L 1297.69 737.62
  Q 1302.77 733.30 1307.42 728.52
  Q 1311.12 724.73 1323.66 711.76
  Q 1323.85 711.57 1323.88 711.45
  Q 1324.01 710.94 1324.12 710.82
  Q 1338.31 694.53 1340.37 691.36
  Q 1341.64 689.39 1342.59 688.25
  Q 1344.07 686.47 1344.09 686.44
  Q 1361.06 663.86 1375.87 638.40
  Q 1387.64 618.16 1390.74 612.29
  Q 1399.84 595.08 1417.44 555.75
  Q 1423.92 541.27 1438.18 502.77
  Q 1441.32 494.27 1444.81 483.92
  Q 1467.68 416.06 1484.97 340.21
  Q 1489.38 320.84 1497.10 293.62
  Q 1511.85 241.61 1533.63 194.72
  Q 1537.52 186.35 1542.78 176.95
  Q 1550.54 163.06 1553.48 157.97
  Q 1562.45 142.44 1574.37 127.62
  Q 1577.00 124.36 1577.94 123.43
  Q 1578.29 123.09 1578.42 122.63
  Q 1578.57 122.13 1578.68 121.99
  Q 1593.80 103.14 1612.32 88.29
  Q 1612.65 88.02 1612.49 87.63
  L 1588.38 28.59
  Q 1588.17 28.09 1587.65 28.21
  Q 1549.49 36.42 1514.75 53.50
  Q 1491.62 64.86 1473.98 75.97
  Q 1431.27 102.86 1391.09 138.83
  Q 1356.86 169.48 1327.17 201.93
  Q 1274.21 259.81 1226.86 325.39
  Q 1190.00 376.45 1161.41 430.68
  Q 1140.54 470.25 1121.15 511.91
  C 1100.70 555.84 1081.28 598.01 1059.33 639.84
  C 1032.09 691.77 1001.25 740.25 964.81 786.31
  Q 949.23 806.02 932.96 822.70
  Q 932.86 822.80 926.83 829.12
  Q 922.40 833.74 916.79 839.02
  Q 899.25 855.54 885.14 867.13
  Q 865.16 883.55 844.19 898.41
  Q 811.45 921.60 773.07 943.05
  Q 723.16 970.93 667.28 994.47
  C 613.42 1017.16 555.28 1030.56 496.80 1040.05
  Q 439.75 1049.29 384.50 1054.28
  Q 312.02 1060.82 245.25 1063.29
  Q 120.71 1067.89 2.00 1063.43
  Q 1.73 1063.42 1.37 1063.72
  Q 0.50 1063.27 0.53 1062.72
  Q 1.02 1052.04 1.58 1040.11
  A 0.76 0.76 0.0 0 1 2.36 1039.39
  Q 140.23 1044.48 277.27 1037.72
  Q 280.16 1037.57 297.24 1036.66
  Q 390.81 1031.63 478.43 1018.59
  Q 526.14 1011.49 576.01 999.25
  Q 606.69 991.71 637.82 980.25
  Q 644.93 977.63 656.39 972.84
  Q 721.14 945.72 778.08 912.32
  Q 813.50 891.54 847.26 866.27
  Q 893.21 831.88 930.35 789.95
  Q 936.28 783.26 943.19 774.62
  Q 988.60 717.85 1024.26 653.76
  Q 1046.16 614.38 1065.80 572.83
  Q 1095.14 510.76 1108.17 482.93
  Q 1117.20 463.66 1132.89 432.92
  Q 1172.07 356.15 1225.55 286.32
  Q 1257.33 244.83 1284.19 213.71
  Q 1327.04 164.05 1372.49 123.00
  Q 1397.95 100.01 1427.81 78.07
  C 1459.02 55.14 1492.81 35.40 1528.53 21.04
  Q 1564.00 6.78 1602.58 1.04
  Q 1603.18 0.95 1603.41 1.51
  L 1632.79 73.43
  Q 1632.98 73.89 1633.42 73.66
  Q 1641.71 69.27 1644.12 68.10
  Q 1674.02 53.52 1706.30 53.09
  Q 1735.59 52.70 1765.14 63.11
  Q 1794.49 73.45 1814.01 97.99
  Q 1824.75 111.49 1831.71 126.84
  Q 1841.37 148.17 1846.37 172.16
  Q 1852.43 201.17 1853.79 230.51
  Q 1854.69 249.89 1854.67 257.76
  Q 1854.66 258.04 1854.66 260.26
  Q 1854.66 309.76 1848.39 365.50
  Q 1841.36 428.11 1830.45 489.77
  Q 1809.83 606.29 1795.77 676.57
  Q 1777.33 768.73 1752.56 855.57
  Q 1742.92 889.38 1730.75 926.81
  Q 1710.93 987.77 1686.17 1047.95
  Q 1660.04 1111.45 1627.53 1172.28
  Q 1595.72 1231.79 1556.84 1286.84
  Q 1510.82 1352.01 1454.24 1406.99
  Q 1443.31 1417.61 1423.86 1435.61
  Q 1292.34 1557.31 1123.38 1614.98
  Q 1113.24 1618.43 1104.38 1621.20
  Q 1024.45 1646.16 939.26 1657.98
  C 889.62 1664.86 839.30 1668.95 788.75 1670.49
  Q 567.84 1677.21 23.55 1693.96
  Q 22.96 1693.97 23.41 1694.00
  Z"
/>
<path fill="#ffa956" d="
  M 19.95 1669.81
  L 1.37 1063.72
  Q 1.73 1063.42 2.00 1063.43
  Q 120.71 1067.89 245.25 1063.29
  Q 312.02 1060.82 384.50 1054.28
  Q 439.75 1049.29 496.80 1040.05
  C 555.28 1030.56 613.42 1017.16 667.28 994.47
  Q 723.16 970.93 773.07 943.05
  Q 811.45 921.60 844.19 898.41
  Q 865.16 883.55 885.14 867.13
  Q 899.25 855.54 916.79 839.02
  Q 922.40 833.74 926.83 829.12
  Q 932.86 822.80 932.96 822.70
  Q 949.23 806.02 964.81 786.31
  C 1001.25 740.25 1032.09 691.77 1059.33 639.84
  C 1081.28 598.01 1100.70 555.84 1121.15 511.91
  Q 1140.54 470.25 1161.41 430.68
  Q 1190.00 376.45 1226.86 325.39
  Q 1274.21 259.81 1327.17 201.93
  Q 1356.86 169.48 1391.09 138.83
  Q 1431.27 102.86 1473.98 75.97
  Q 1491.62 64.86 1514.75 53.50
  Q 1549.49 36.42 1587.65 28.21
  Q 1588.17 28.09 1588.38 28.59
  L 1612.49 87.63
  Q 1612.65 88.02 1612.32 88.29
  Q 1593.80 103.14 1578.68 121.99
  Q 1578.57 122.13 1578.42 122.63
  Q 1578.29 123.09 1577.94 123.43
  Q 1577.00 124.36 1574.37 127.62
  Q 1562.45 142.44 1553.48 157.97
  Q 1550.54 163.06 1542.78 176.95
  Q 1537.52 186.35 1533.63 194.72
  Q 1511.85 241.61 1497.10 293.62
  Q 1489.38 320.84 1484.97 340.21
  Q 1467.68 416.06 1444.81 483.92
  Q 1441.32 494.27 1438.18 502.77
  Q 1423.92 541.27 1417.44 555.75
  Q 1399.84 595.08 1390.74 612.29
  Q 1387.64 618.16 1375.87 638.40
  Q 1361.06 663.86 1344.09 686.44
  Q 1344.07 686.47 1342.59 688.25
  Q 1341.64 689.39 1340.37 691.36
  Q 1338.31 694.53 1324.12 710.82
  Q 1324.01 710.94 1323.88 711.45
  Q 1323.85 711.57 1323.66 711.76
  Q 1311.12 724.73 1307.42 728.52
  Q 1302.77 733.30 1297.69 737.62
  L 1284.97 748.44
  Q 1284.61 748.74 1284.16 748.87
  Q 1283.87 748.95 1283.64 749.15
  Q 1278.57 753.43 1273.17 756.89
  Q 1272.62 757.25 1271.74 758.08
  Q 1270.86 758.91 1270.30 759.28
  Q 1251.57 771.61 1230.34 779.60
  Q 1215.76 785.09 1202.12 785.99
  Q 1201.18 786.05 1201.15 787.00
  L 1200.48 809.51
  A 0.68 0.67 89.6 0 0 1201.18 810.21
  Q 1215.29 809.63 1230.02 805.05
  Q 1249.55 798.98 1267.92 789.09
  Q 1273.30 786.19 1280.19 781.42
  Q 1290.80 774.07 1302.37 765.41
  Q 1303.30 764.71 1304.10 764.05
  Q 1311.31 758.08 1312.36 757.10
  Q 1312.94 756.55 1313.40 755.93
  Q 1314.00 755.12 1314.39 754.75
  Q 1326.89 742.98 1337.26 732.00
  Q 1337.34 731.92 1339.33 730.11
  C 1340.43 729.12 1341.32 727.50 1342.16 726.55
  Q 1346.60 721.48 1357.82 708.08
  Q 1362.75 702.19 1369.38 692.89
  Q 1385.86 669.74 1398.29 648.04
  Q 1406.64 633.44 1417.98 612.22
  Q 1420.80 606.94 1438.18 568.38
  Q 1442.65 558.46 1445.98 549.97
  Q 1461.35 510.89 1469.31 486.80
  Q 1486.53 434.64 1499.23 384.00
  Q 1503.65 366.38 1510.25 338.10
  Q 1512.06 330.33 1515.18 318.71
  Q 1522.30 292.09 1530.09 268.63
  Q 1537.44 246.52 1543.90 231.67
  Q 1544.20 230.98 1544.14 230.09
  A 1.54 1.53 59.8 0 1 1544.38 229.17
  Q 1545.08 228.09 1545.38 227.12
  Q 1545.97 225.25 1546.09 224.96
  Q 1552.74 209.11 1561.23 192.94
  Q 1565.22 185.35 1569.56 178.40
  Q 1569.82 177.98 1569.90 177.50
  Q 1570.00 176.88 1570.46 175.97
  Q 1573.34 170.25 1576.47 165.46
  Q 1584.51 153.15 1593.03 142.15
  Q 1593.23 141.89 1593.33 142.20
  Q 1593.37 142.33 1593.36 142.46
  A 0.08 0.08 0.0 0 0 1593.51 142.52
  Q 1598.39 136.26 1602.70 131.38
  Q 1602.97 131.07 1603.59 129.97
  Q 1603.95 129.34 1604.61 128.59
  Q 1612.64 119.50 1619.63 113.60
  Q 1619.67 113.56 1619.92 113.26
  Q 1620.17 112.97 1620.64 112.92
  A 1.52 1.47 -69.3 0 0 1621.48 112.52
  C 1648.24 87.28 1684.92 73.97 1721.27 77.79
  Q 1743.98 80.17 1763.38 88.44
  C 1781.37 96.09 1795.75 110.78 1805.10 127.93
  Q 1811.02 138.81 1814.42 148.09
  Q 1821.82 168.26 1825.55 192.02
  Q 1829.69 218.37 1830.36 246.08
  Q 1831.08 276.50 1829.24 306.55
  C 1825.54 367.07 1816.25 431.28 1805.56 492.55
  Q 1798.96 530.36 1780.02 631.30
  Q 1771.83 674.95 1762.76 716.51
  Q 1738.17 829.15 1701.89 937.17
  Q 1682.66 994.41 1655.99 1057.38
  Q 1652.54 1065.53 1647.91 1075.68
  Q 1629.52 1116.00 1624.65 1125.40
  Q 1615.71 1142.67 1606.72 1159.96
  Q 1599.33 1174.17 1581.60 1204.35
  Q 1538.54 1277.60 1483.37 1341.36
  Q 1460.59 1367.69 1432.42 1394.29
  Q 1423.83 1402.40 1417.92 1408.05
  Q 1372.13 1451.85 1320.17 1488.40
  Q 1269.62 1523.97 1213.57 1551.60
  Q 1203.49 1556.58 1173.38 1570.09
  Q 1161.45 1575.44 1131.77 1586.32
  Q 1108.14 1594.99 1088.57 1600.85
  Q 1015.31 1622.78 941.08 1633.36
  Q 868.06 1643.78 793.57 1646.12
  Q 746.80 1647.60 33.75 1669.53
  Q 26.79 1669.75 19.95 1669.81
  Z
  M 1584.56 161.16
  Q 1574.01 176.77 1567.86 194.31
  Q 1565.74 200.38 1564.05 208.78
  Q 1561.04 223.81 1562.81 237.28
  Q 1564.47 249.99 1571.35 260.64
  Q 1578.13 271.14 1588.48 278.13
  Q 1601.12 286.67 1615.37 291.43
  Q 1640.70 299.90 1668.68 303.88
  Q 1687.94 306.62 1704.48 304.38
  Q 1716.33 302.77 1726.86 297.34
  Q 1738.01 291.57 1745.98 280.99
  Q 1753.96 270.39 1757.47 258.72
  Q 1768.76 221.18 1758.94 182.31
  C 1749.49 144.93 1722.75 112.23 1682.43 107.76
  C 1678.17 107.28 1674.65 107.69 1670.68 107.60
  Q 1666.63 107.52 1661.87 108.24
  Q 1647.53 110.41 1634.27 117.05
  Q 1633.40 117.49 1632.60 117.45
  Q 1632.10 117.42 1631.66 117.64
  Q 1620.67 122.89 1611.37 131.15
  Q 1607.98 134.16 1607.53 134.53
  Q 1606.92 135.03 1599.88 141.95
  Q 1599.84 142.00 1595.21 146.64
  Q 1588.25 153.62 1585.57 158.94
  Q 1585.29 159.49 1585.07 160.06
  Q 1584.74 160.90 1584.56 161.16
  Z"
/>
<path fill="#212025" d="
  M 1585.07 160.06
  Q 1585.29 159.49 1585.57 158.94
  Q 1588.25 153.62 1595.21 146.64
  Q 1599.84 142.00 1599.88 141.95
  Q 1606.92 135.03 1607.53 134.53
  Q 1607.98 134.16 1611.37 131.15
  Q 1620.67 122.89 1631.66 117.64
  Q 1632.10 117.42 1632.60 117.45
  Q 1633.40 117.49 1634.27 117.05
  Q 1647.53 110.41 1661.87 108.24
  Q 1666.63 107.52 1670.68 107.60
  C 1674.65 107.69 1678.17 107.28 1682.43 107.76
  C 1722.75 112.23 1749.49 144.93 1758.94 182.31
  Q 1768.76 221.18 1757.47 258.72
  Q 1753.96 270.39 1745.98 280.99
  Q 1738.01 291.57 1726.86 297.34
  Q 1716.33 302.77 1704.48 304.38
  Q 1687.94 306.62 1668.68 303.88
  Q 1640.70 299.90 1615.37 291.43
  Q 1601.12 286.67 1588.48 278.13
  Q 1578.13 271.14 1571.35 260.64
  Q 1564.47 249.99 1562.81 237.28
  Q 1561.04 223.81 1564.05 208.78
  Q 1565.74 200.38 1567.86 194.31
  Q 1574.01 176.77 1584.56 161.16
  Q 1584.74 160.90 1585.07 160.06
  Z
  M 1643.38 138.77
  Q 1642.59 138.84 1641.57 139.37
  Q 1635.28 142.66 1629.82 146.73
  Q 1626.42 149.27 1621.71 153.87
  Q 1617.38 158.10 1613.95 161.43
  Q 1605.79 169.31 1598.39 183.15
  Q 1598.31 183.30 1598.27 184.12
  Q 1598.24 184.60 1598.01 185.02
  Q 1587.15 204.46 1586.32 226.51
  Q 1585.87 238.25 1591.50 247.35
  C 1597.72 257.39 1610.23 264.06 1621.65 268.01
  Q 1651.86 278.48 1683.14 281.11
  Q 1696.15 282.21 1707.80 279.02
  C 1721.47 275.28 1730.21 265.01 1734.29 251.83
  Q 1744.82 217.83 1733.96 182.78
  Q 1728.97 166.65 1718.60 153.67
  C 1703.07 134.22 1678.81 126.57 1655.01 134.48
  Q 1649.71 136.24 1645.81 138.05
  Q 1645.37 138.25 1644.92 138.07
  Q 1644.36 137.85 1644.12 138.29
  Q 1643.87 138.73 1643.38 138.77
  Z"
/>
<path fill="#ffa956" d="
  M 1644.12 138.29
  Q 1644.36 137.85 1644.92 138.07
  Q 1645.37 138.25 1645.81 138.05
  Q 1649.71 136.24 1655.01 134.48
  C 1678.81 126.57 1703.07 134.22 1718.60 153.67
  Q 1728.97 166.65 1733.96 182.78
  Q 1744.82 217.83 1734.29 251.83
  C 1730.21 265.01 1721.47 275.28 1707.80 279.02
  Q 1696.15 282.21 1683.14 281.11
  Q 1651.86 278.48 1621.65 268.01
  C 1610.23 264.06 1597.72 257.39 1591.50 247.35
  Q 1585.87 238.25 1586.32 226.51
  Q 1587.15 204.46 1598.01 185.02
  Q 1598.24 184.60 1598.27 184.12
  Q 1598.31 183.30 1598.39 183.15
  Q 1605.79 169.31 1613.95 161.43
  Q 1617.38 158.10 1621.71 153.87
  Q 1626.42 149.27 1629.82 146.73
  Q 1635.28 142.66 1641.57 139.37
  Q 1642.59 138.84 1643.38 138.77
  Q 1643.87 138.73 1644.12 138.29
  Z"
/>
</svg>
